<svg id="svg" version="1.1" xmlns="http://www.w3.org/2000/svg" xmlns:xlink="http://www.w3.org/1999/xlink" width="400" height="225" viewBox="0, 0, 400,225"><g id="svgg"><path id="path0" d="M154.935 41.024 C 154.818 41.179,154.256 42.622,153.686 44.232 C 151.119 51.474,150.066 54.463,148.449 59.088 C 147.497 61.812,146.431 64.851,146.080 65.841 C 144.987 68.932,142.822 75.103,141.144 79.910 C 140.258 82.448,139.279 85.234,138.968 86.100 C 138.658 86.967,137.965 88.942,137.429 90.490 C 136.894 92.037,135.880 94.924,135.176 96.905 C 133.646 101.212,131.246 108.039,130.548 110.073 C 130.271 110.878,129.963 111.739,129.864 111.986 C 129.685 112.431,128.963 114.484,127.212 119.527 C 126.718 120.951,125.790 123.585,125.149 125.380 C 124.509 127.175,123.853 129.049,123.692 129.544 C 123.433 130.341,122.363 133.391,119.863 140.461 C 119.447 141.638,118.145 145.335,116.969 148.678 C 115.793 152.020,114.361 156.072,113.787 157.681 C 113.213 159.291,112.559 161.165,112.333 161.846 C 112.108 162.527,111.347 164.705,110.642 166.685 C 109.938 168.666,109.282 170.540,109.185 170.850 C 109.088 171.159,107.973 174.329,106.707 177.894 C 105.441 181.459,104.462 184.524,104.532 184.707 C 104.643 184.996,107.127 185.031,123.919 184.978 C 145.045 184.913,143.371 185.031,143.817 183.568 C 143.930 183.196,144.848 180.512,145.857 177.603 C 146.865 174.693,148.137 170.996,148.682 169.387 C 150.611 163.697,151.630 160.828,151.881 160.383 C 152.226 159.771,194.782 159.660,195.163 160.270 C 195.279 160.456,197.009 165.521,199.008 171.525 C 203.609 185.344,203.377 184.729,204.057 184.899 C 205.250 185.199,241.924 185.033,242.178 184.727 C 242.412 184.445,241.605 181.982,237.484 170.400 C 236.845 168.604,236.084 166.427,235.791 165.560 C 235.499 164.693,234.687 162.364,233.986 160.383 C 233.285 158.402,232.629 156.528,232.528 156.218 C 232.427 155.909,231.666 153.731,230.838 151.379 C 230.009 149.026,228.893 145.836,228.358 144.288 C 227.823 142.741,227.029 140.461,226.594 139.223 C 226.159 137.985,225.147 135.098,224.345 132.808 C 223.543 130.518,222.207 126.719,221.376 124.367 C 220.545 122.015,219.482 118.976,219.013 117.614 C 218.112 114.995,215.768 108.283,213.276 101.182 C 212.450 98.829,211.085 94.930,210.243 92.515 C 206.164 80.826,205.442 78.777,204.849 77.209 C 204.497 76.280,204.108 75.166,203.983 74.733 C 203.858 74.299,203.182 72.324,202.480 70.343 C 201.778 68.362,200.767 65.476,200.233 63.928 C 199.699 62.380,199.035 60.456,198.757 59.651 C 198.478 58.846,198.098 57.887,197.912 57.518 C 197.725 57.150,197.241 55.884,196.836 54.705 C 196.431 53.525,195.527 50.940,194.827 48.959 C 194.128 46.978,193.244 44.446,192.862 43.331 C 192.481 42.217,192.070 41.179,191.949 41.024 C 191.627 40.612,155.247 40.612,154.935 41.024 M173.730 88.970 C 173.870 89.249,174.751 91.756,175.688 94.541 C 176.625 97.327,178.855 103.962,180.644 109.285 C 182.433 114.609,184.506 120.773,185.252 122.983 C 185.997 125.193,186.607 127.244,186.607 127.541 L 186.607 128.081 174.470 128.081 C 167.794 128.081,162.198 128.131,162.033 128.191 C 160.880 128.615,160.951 127.615,162.392 123.129 C 162.849 121.705,163.309 120.236,163.413 119.865 C 163.518 119.494,163.959 118.025,164.393 116.601 C 164.827 115.177,165.501 112.949,165.891 111.649 C 166.560 109.420,167.021 107.924,169.399 100.281 C 169.939 98.548,170.893 95.459,171.521 93.416 C 173.161 88.079,173.220 87.958,173.730 88.970 " stroke="none" fill="#fafafb" fill-rule="evenodd"></path><path id="path1" d="M0.000 112.549 L 0.000 225.098 200.000 225.098 L 400.000 225.098 400.000 112.549 L 400.000 0.000 200.000 0.000 L 0.000 0.000 0.000 112.549 M192.050 40.912 C 192.235 41.128,192.664 42.116,193.004 43.106 C 196.764 54.065,197.630 56.374,197.881 56.113 C 197.975 56.016,198.093 53.911,198.144 51.435 C 198.354 41.228,199.542 40.518,216.389 40.518 C 229.869 40.518,231.749 40.893,233.616 43.959 C 234.993 46.219,234.879 41.819,235.003 97.468 L 235.115 148.002 262.127 148.116 C 292.215 148.243,290.288 148.137,292.452 149.790 C 295.386 152.030,295.555 152.948,295.551 166.617 C 295.547 181.202,295.223 182.411,290.821 184.295 L 289.364 184.918 246.456 184.977 C 212.159 185.024,203.503 184.979,203.323 184.752 C 203.199 184.596,201.309 179.100,199.122 172.538 C 196.784 165.525,194.992 160.492,194.772 160.326 C 194.223 159.912,152.880 159.916,152.313 160.330 C 152.097 160.488,151.319 162.372,150.569 164.551 C 149.825 166.715,148.554 170.411,147.747 172.763 C 146.939 175.115,145.926 178.053,145.496 179.291 C 145.065 180.529,144.521 182.121,144.287 182.830 C 143.463 185.319,146.148 185.031,123.796 185.031 C 101.894 185.031,103.823 185.181,104.467 183.526 C 104.769 182.751,106.659 177.419,108.722 171.525 C 109.566 169.111,110.833 165.515,111.535 163.534 C 112.238 161.553,112.896 159.679,112.997 159.370 C 113.099 159.060,113.808 157.034,114.574 154.868 C 116.523 149.354,118.855 142.706,119.076 142.037 C 119.178 141.728,119.838 139.854,120.542 137.873 C 121.246 135.892,121.904 134.018,122.005 133.708 C 122.264 132.910,124.899 125.421,126.282 121.553 C 126.923 119.758,128.190 116.162,129.097 113.562 C 130.003 110.962,131.318 107.214,132.019 105.234 C 132.719 103.253,133.427 101.227,133.591 100.732 C 133.755 100.236,134.414 98.362,135.055 96.567 C 135.696 94.772,136.663 92.037,137.204 90.490 C 139.773 83.130,141.211 79.027,142.490 75.408 C 143.255 73.241,144.031 71.013,144.215 70.456 C 144.399 69.899,144.637 69.240,144.744 68.993 C 144.851 68.745,145.397 67.226,145.958 65.616 C 153.879 42.875,154.583 40.920,154.944 40.691 C 155.589 40.281,191.695 40.496,192.050 40.912 M172.790 89.983 C 172.600 90.571,171.639 93.686,170.654 96.905 C 169.670 100.124,168.396 104.277,167.823 106.134 C 167.250 107.991,166.526 110.371,166.214 111.424 C 165.902 112.476,165.401 114.097,165.102 115.025 C 164.528 116.803,163.875 118.932,162.293 124.179 C 161.765 125.932,161.394 127.527,161.470 127.724 C 161.700 128.324,186.044 128.262,186.366 127.660 C 186.490 127.429,186.541 127.190,186.480 127.129 C 186.419 127.068,184.555 121.610,182.337 115.000 C 173.082 87.416,173.599 88.914,173.325 88.914 C 173.222 88.914,172.981 89.395,172.790 89.983 " stroke="none" fill="#1b242c" fill-rule="evenodd"></path><path id="path2" d="M154.944 40.691 C 154.801 40.782,154.527 41.262,154.337 41.756 C 153.422 44.128,150.146 53.654,150.219 53.727 C 150.265 53.773,150.581 53.023,150.921 52.060 C 151.261 51.097,152.253 48.284,153.127 45.808 C 154.001 43.331,154.813 41.179,154.932 41.024 C 155.102 40.803,159.071 40.743,173.438 40.743 C 187.805 40.743,191.775 40.803,191.946 41.024 C 192.065 41.179,192.597 42.572,193.128 44.119 C 193.944 46.494,194.786 48.546,194.423 47.271 C 193.935 45.560,192.317 41.222,192.051 40.912 C 191.695 40.496,155.589 40.281,154.944 40.691 M204.615 40.851 C 199.598 41.963,198.293 44.077,198.152 51.322 C 198.052 56.409,198.000 56.699,197.386 55.599 C 196.785 54.524,197.037 55.472,197.864 57.400 C 198.209 58.205,198.647 59.319,198.838 59.876 C 199.902 62.994,201.356 67.172,202.480 70.343 C 203.182 72.324,203.858 74.299,203.983 74.733 C 204.108 75.166,204.497 76.280,204.849 77.209 C 205.442 78.777,206.164 80.826,210.243 92.515 C 211.085 94.930,212.450 98.829,213.276 101.182 C 215.768 108.283,218.112 114.995,219.013 117.614 C 219.482 118.976,220.545 122.015,221.376 124.367 C 222.207 126.719,223.543 130.518,224.345 132.808 C 225.147 135.098,226.159 137.985,226.594 139.223 C 227.029 140.461,227.823 142.741,228.358 144.288 C 228.893 145.836,230.009 149.026,230.838 151.379 C 231.666 153.731,232.427 155.909,232.528 156.218 C 232.629 156.528,233.285 158.402,233.986 160.383 C 234.687 162.364,235.499 164.693,235.791 165.560 C 236.084 166.427,236.845 168.604,237.484 170.400 C 241.669 182.162,242.414 184.442,242.169 184.738 C 241.961 184.989,245.857 185.029,265.642 184.979 L 289.364 184.918 290.821 184.295 C 295.223 182.411,295.547 181.202,295.551 166.617 C 295.555 152.948,295.386 152.030,292.452 149.790 C 290.288 148.137,292.215 148.243,262.127 148.116 L 235.115 148.002 235.003 97.468 C 234.895 48.994,234.873 46.887,234.473 45.808 C 233.375 42.842,231.396 41.279,228.094 40.768 C 225.798 40.413,206.279 40.482,204.615 40.851 M194.503 47.862 C 194.493 48.002,195.037 49.623,195.712 51.464 C 196.387 53.305,196.944 54.696,196.950 54.555 C 196.956 54.414,196.472 52.945,195.873 51.291 C 194.506 47.513,194.524 47.558,194.503 47.862 M148.254 59.002 C 147.306 61.748,146.569 64.033,146.615 64.078 C 146.660 64.124,147.477 61.919,148.430 59.178 C 149.383 56.438,150.120 54.153,150.069 54.102 C 150.018 54.051,149.201 56.256,148.254 59.002 M146.002 65.417 C 145.803 66.002,145.679 66.519,145.727 66.567 C 145.774 66.615,145.976 66.175,146.175 65.590 C 146.375 65.005,146.499 64.488,146.451 64.440 C 146.404 64.393,146.202 64.832,146.002 65.417 M145.239 67.586 C 144.856 68.646,144.909 68.933,145.316 67.997 C 145.500 67.573,145.620 67.135,145.583 67.024 C 145.546 66.913,145.391 67.166,145.239 67.586 M144.651 69.129 C 144.597 69.302,144.442 69.789,144.307 70.211 C 143.926 71.399,144.191 71.292,144.600 70.092 C 144.799 69.507,144.914 68.981,144.856 68.922 C 144.797 68.864,144.705 68.957,144.651 69.129 M143.181 73.400 C 142.785 74.532,142.505 75.500,142.557 75.552 C 142.609 75.604,142.975 74.721,143.370 73.589 C 143.765 72.457,144.046 71.489,143.994 71.437 C 143.942 71.385,143.576 72.268,143.181 73.400 M140.930 79.816 C 140.162 81.999,139.576 83.826,139.627 83.878 C 139.679 83.929,140.343 82.179,141.104 79.990 C 141.865 77.800,142.451 75.972,142.407 75.928 C 142.363 75.884,141.698 77.634,140.930 79.816 M139.223 84.637 C 139.139 84.903,139.120 85.172,139.182 85.234 C 139.244 85.296,139.364 85.128,139.449 84.862 C 139.533 84.596,139.552 84.327,139.490 84.265 C 139.428 84.204,139.308 84.371,139.223 84.637 M138.479 86.817 C 137.816 88.637,137.868 88.904,138.561 87.236 C 138.867 86.498,139.085 85.798,139.045 85.679 C 139.006 85.560,138.751 86.072,138.479 86.817 M172.749 89.482 C 172.535 90.042,172.409 90.549,172.469 90.609 C 172.529 90.669,172.700 90.312,172.849 89.816 C 173.206 88.624,173.425 88.678,173.993 90.096 C 174.254 90.746,174.405 90.974,174.329 90.602 C 173.900 88.497,173.290 88.065,172.749 89.482 M137.301 90.194 C 137.023 91.037,136.303 93.078,135.702 94.729 C 134.750 97.345,134.250 99.130,134.840 97.805 C 135.366 96.627,138.006 88.859,137.913 88.766 C 137.854 88.708,137.579 89.350,137.301 90.194 M171.885 92.200 C 171.668 92.891,171.530 93.496,171.580 93.545 C 171.629 93.595,171.848 93.071,172.065 92.380 C 172.283 91.690,172.420 91.085,172.371 91.035 C 172.321 90.986,172.103 91.510,171.885 92.200 M174.451 91.492 C 174.451 91.832,175.435 94.533,175.526 94.442 C 175.577 94.391,175.393 93.709,175.118 92.926 C 174.625 91.520,174.451 91.147,174.451 91.492 M170.641 96.246 C 170.238 97.556,169.949 98.668,169.999 98.717 C 170.048 98.766,170.416 97.734,170.818 96.423 C 171.219 95.111,171.508 93.999,171.460 93.951 C 171.412 93.903,171.043 94.935,170.641 96.246 M175.609 94.992 C 175.835 95.940,178.338 103.111,178.415 103.033 C 178.522 102.926,175.882 94.994,175.672 94.793 C 175.593 94.716,175.564 94.806,175.609 94.992 M133.967 99.622 C 133.701 100.316,133.490 101.002,133.499 101.146 C 133.508 101.289,133.765 100.760,134.070 99.970 C 134.375 99.180,134.585 98.495,134.537 98.447 C 134.489 98.398,134.232 98.927,133.967 99.622 M169.742 99.077 C 169.732 99.158,169.319 100.523,168.824 102.110 C 168.329 103.697,167.932 105.100,167.942 105.227 C 167.953 105.355,168.407 104.091,168.952 102.420 C 169.497 100.748,169.901 99.280,169.851 99.156 C 169.801 99.032,169.752 98.997,169.742 99.077 M132.593 103.597 C 132.191 104.745,131.464 106.787,130.979 108.136 C 130.493 109.484,130.138 110.629,130.189 110.680 C 130.240 110.731,130.435 110.337,130.623 109.804 C 132.869 103.434,133.471 101.657,133.403 101.589 C 133.359 101.545,132.995 102.449,132.593 103.597 M178.510 103.545 C 178.510 103.731,178.608 104.035,178.728 104.221 C 178.922 104.521,178.946 104.521,178.946 104.221 C 178.946 104.035,178.848 103.731,178.728 103.545 C 178.534 103.245,178.510 103.245,178.510 103.545 M178.972 104.814 C 178.962 104.954,179.101 105.410,179.282 105.827 C 179.463 106.243,179.610 106.432,179.610 106.246 C 179.608 105.831,178.997 104.459,178.972 104.814 M167.615 105.948 C 167.546 106.174,166.971 108.081,166.335 110.186 C 165.700 112.290,165.042 114.463,164.872 115.015 C 164.702 115.566,164.600 116.054,164.645 116.098 C 164.734 116.188,165.315 114.441,166.238 111.311 C 166.567 110.197,167.091 108.494,167.403 107.527 C 167.715 106.559,167.918 105.716,167.855 105.652 C 167.791 105.589,167.683 105.722,167.615 105.948 M180.086 108.272 C 180.086 108.458,180.184 108.762,180.304 108.948 C 180.498 109.248,180.522 109.248,180.522 108.948 C 180.522 108.762,180.424 108.458,180.304 108.272 C 180.110 107.972,180.086 107.972,180.086 108.272 M180.529 109.530 C 180.529 109.821,181.966 113.888,182.042 113.812 C 182.139 113.715,180.747 109.398,180.618 109.398 C 180.569 109.398,180.529 109.457,180.529 109.530 M129.908 111.124 C 129.894 111.269,129.816 111.572,129.736 111.799 C 129.623 112.119,129.653 112.154,129.870 111.954 C 130.023 111.813,130.101 111.509,130.042 111.279 C 129.982 111.049,129.922 110.979,129.908 111.124 M129.257 113.056 C 128.874 114.116,128.927 114.403,129.334 113.467 C 129.518 113.043,129.638 112.605,129.601 112.494 C 129.564 112.383,129.409 112.636,129.257 113.056 M128.445 115.389 C 128.245 115.974,128.121 116.491,128.169 116.539 C 128.217 116.586,128.419 116.147,128.618 115.562 C 128.817 114.977,128.941 114.460,128.894 114.412 C 128.846 114.365,128.644 114.804,128.445 115.389 M182.555 115.552 C 182.555 115.753,186.385 127.034,186.488 127.137 C 186.714 127.363,186.600 126.981,185.246 122.983 C 184.497 120.773,183.632 118.180,183.323 117.220 C 182.860 115.785,182.555 115.122,182.555 115.552 M164.134 117.426 C 163.982 117.996,163.897 118.502,163.946 118.551 C 163.995 118.600,164.164 118.178,164.322 117.614 C 164.480 117.050,164.565 116.544,164.510 116.489 C 164.456 116.435,164.287 116.857,164.134 117.426 M125.511 123.710 C 124.431 126.757,123.583 129.286,123.626 129.328 C 123.720 129.422,124.195 128.157,126.155 122.596 C 126.979 120.260,127.612 118.308,127.563 118.259 C 127.514 118.210,126.590 120.663,125.511 123.710 M162.519 122.714 C 162.128 123.994,161.665 125.476,161.489 126.007 C 161.073 127.266,161.086 128.000,161.527 128.170 C 162.076 128.380,162.228 128.319,161.790 128.063 C 161.238 127.742,161.277 127.478,162.408 123.818 C 162.960 122.031,163.371 120.527,163.321 120.477 C 163.270 120.426,162.909 121.433,162.519 122.714 M122.693 131.732 C 121.588 134.926,120.462 138.125,119.713 140.197 C 119.340 141.227,119.082 142.117,119.138 142.173 C 119.195 142.230,119.567 141.336,119.965 140.187 C 120.364 139.038,121.348 136.240,122.151 133.969 C 122.955 131.698,123.568 129.796,123.514 129.742 C 123.460 129.687,123.090 130.583,122.693 131.732 M118.852 142.508 C 118.852 142.560,118.546 143.504,118.172 144.604 C 117.797 145.704,117.530 146.643,117.578 146.691 C 117.626 146.739,117.989 145.852,118.384 144.720 C 118.779 143.589,119.046 142.606,118.977 142.537 C 118.908 142.469,118.852 142.455,118.852 142.508 M116.740 148.704 C 116.418 149.662,116.194 150.484,116.241 150.531 C 116.288 150.578,116.590 149.833,116.912 148.876 C 117.234 147.918,117.459 147.097,117.411 147.049 C 117.364 147.002,117.062 147.747,116.740 148.704 M115.268 152.860 C 114.873 153.992,114.595 154.963,114.651 155.018 C 114.706 155.074,115.065 154.183,115.449 153.040 C 115.832 151.897,116.110 150.925,116.066 150.882 C 116.023 150.838,115.664 151.728,115.268 152.860 M114.038 156.357 C 113.839 156.942,113.715 157.459,113.763 157.507 C 113.810 157.554,114.012 157.115,114.212 156.530 C 114.411 155.945,114.535 155.428,114.487 155.380 C 114.440 155.333,114.238 155.772,114.038 156.357 M113.276 158.526 C 112.892 159.586,112.945 159.873,113.352 158.937 C 113.536 158.513,113.656 158.075,113.619 157.964 C 113.582 157.853,113.427 158.106,113.276 158.526 M152.392 159.985 C 151.946 160.161,151.506 160.749,151.505 161.171 C 151.505 161.402,151.582 161.366,151.751 161.058 C 152.325 160.008,151.534 160.045,173.538 160.048 C 185.814 160.050,194.507 160.137,194.700 160.259 C 194.880 160.373,195.456 161.663,195.982 163.125 C 196.507 164.588,196.942 165.669,196.949 165.527 C 196.965 165.194,195.254 160.289,195.051 160.086 C 194.863 159.898,152.865 159.798,152.392 159.985 M111.899 162.434 C 111.610 163.238,111.418 163.941,111.471 163.994 C 111.524 164.047,111.801 163.429,112.087 162.621 C 112.372 161.813,112.564 161.111,112.515 161.061 C 112.465 161.011,112.188 161.629,111.899 162.434 M150.512 164.018 C 150.329 164.619,149.917 165.818,149.597 166.684 C 149.044 168.181,148.887 168.802,149.121 168.568 C 149.340 168.349,151.071 163.151,150.961 163.041 C 150.898 162.978,150.696 163.418,150.512 164.018 M110.887 165.361 C 110.688 165.946,110.564 166.463,110.611 166.511 C 110.659 166.558,110.861 166.119,111.060 165.534 C 111.259 164.949,111.383 164.432,111.336 164.384 C 111.288 164.336,111.086 164.776,110.887 165.361 M197.018 166.179 C 197.076 166.334,197.764 168.408,198.549 170.788 C 199.333 173.168,200.016 175.073,200.067 175.022 C 200.185 174.904,197.189 165.898,197.031 165.898 C 196.966 165.898,196.960 166.024,197.018 166.179 M110.298 166.848 C 110.298 166.917,109.885 168.158,109.381 169.607 C 108.876 171.056,108.514 172.292,108.577 172.355 C 108.640 172.418,108.845 171.979,109.032 171.378 C 109.219 170.778,109.633 169.538,109.952 168.622 C 110.271 167.706,110.479 166.904,110.415 166.840 C 110.351 166.775,110.298 166.779,110.298 166.848 M148.352 170.300 C 148.067 171.108,147.878 171.814,147.933 171.868 C 147.987 171.923,148.261 171.301,148.540 170.487 C 148.819 169.673,149.008 168.967,148.960 168.918 C 148.911 168.870,148.638 169.491,148.352 170.300 M146.785 174.922 C 146.268 176.428,145.885 177.699,145.932 177.746 C 145.979 177.793,146.440 176.599,146.955 175.093 C 147.471 173.586,147.855 172.315,147.808 172.269 C 147.761 172.222,147.301 173.416,146.785 174.922 M107.169 175.937 C 106.523 177.746,106.037 179.269,106.089 179.321 C 106.141 179.373,106.706 177.929,107.344 176.111 C 107.982 174.294,108.468 172.771,108.424 172.727 C 108.380 172.683,107.815 174.128,107.169 175.937 M200.260 175.802 C 200.516 176.816,201.042 178.054,200.892 177.290 C 200.821 176.932,200.618 176.324,200.440 175.939 C 200.197 175.413,200.152 175.379,200.260 175.802 M145.190 179.567 C 144.908 180.406,144.624 181.244,144.559 181.429 C 144.494 181.615,144.509 181.708,144.591 181.635 C 144.803 181.447,145.904 178.243,145.794 178.133 C 145.744 178.083,145.472 178.728,145.190 179.567 M201.013 178.192 C 201.013 178.512,202.004 181.189,202.090 181.102 C 202.199 180.994,201.250 178.053,201.107 178.053 C 201.055 178.053,201.013 178.116,201.013 178.192 M105.041 181.945 C 104.196 184.341,104.061 185.031,104.439 185.031 C 104.559 185.031,104.600 184.883,104.531 184.703 C 104.461 184.522,104.771 183.343,105.219 182.083 C 105.668 180.823,105.995 179.753,105.948 179.705 C 105.900 179.657,105.492 180.665,105.041 181.945 M202.211 181.654 C 202.813 183.998,203.344 185.045,203.911 185.005 C 204.231 184.982,204.229 184.966,203.894 184.878 C 203.672 184.819,203.314 184.238,203.045 183.497 C 202.565 182.178,202.058 181.057,202.211 181.654 M143.977 183.056 C 143.539 184.441,143.395 184.693,142.938 184.867 C 142.665 184.971,142.674 184.999,142.986 185.013 C 143.198 185.023,143.474 184.840,143.598 184.608 C 143.953 183.945,144.556 182.073,144.449 181.966 C 144.396 181.913,144.184 182.403,143.977 183.056 " stroke="none" fill="#05abfb" fill-rule="evenodd"></path></g></svg>