<svg id="svg" version="1.1" xmlns="http://www.w3.org/2000/svg" xmlns:xlink="http://www.w3.org/1999/xlink" width="400" height="245.56616643929058" viewBox="0, 0, 400,245.56616643929058"><g id="svgg"><path id="path0" d="" stroke="none" fill="#fcfcfc" fill-rule="evenodd"></path><path id="path1" d="M176.167 78.366 C 175.964 78.478,175.144 78.691,174.343 78.839 C 168.007 80.009,162.653 86.888,162.654 93.857 C 162.654 96.556,164.073 101.548,165.098 102.457 C 165.174 102.525,165.562 103.022,165.959 103.563 C 167.507 105.666,171.566 108.600,172.929 108.600 C 173.170 108.600,173.471 108.692,173.600 108.806 C 174.680 109.759,182.841 109.763,183.894 108.811 C 184.023 108.694,184.344 108.600,184.608 108.600 C 185.500 108.600,188.282 106.818,189.784 105.284 C 192.297 102.720,193.585 99.425,193.603 95.516 L 193.612 93.612 186.118 93.612 L 178.624 93.612 178.624 95.577 L 178.624 97.543 183.508 97.543 C 189.279 97.543,189.194 97.505,188.210 99.667 C 187.216 101.851,184.283 104.423,182.785 104.423 C 182.539 104.423,182.270 104.533,182.187 104.668 C 182.100 104.809,180.818 104.914,179.179 104.914 C 165.743 104.914,162.643 88.104,175.184 83.256 C 176.317 82.818,181.178 82.799,181.609 83.231 C 181.778 83.400,182.105 83.538,182.336 83.538 C 183.133 83.538,184.895 84.650,186.310 86.045 L 187.731 87.446 189.013 86.779 C 191.295 85.592,191.537 85.359,191.179 84.689 C 189.722 81.967,184.422 78.638,181.526 78.627 C 181.162 78.625,180.796 78.514,180.713 78.378 C 180.531 78.085,176.694 78.074,176.167 78.366 M108.600 93.980 L 108.600 109.091 110.929 109.091 L 113.259 109.091 113.325 102.887 L 113.391 96.683 119.472 96.617 L 125.553 96.552 125.553 94.226 L 125.553 91.900 119.472 91.835 L 113.391 91.769 113.323 87.658 L 113.256 83.546 119.589 83.481 L 125.921 83.415 125.992 81.143 L 126.063 78.870 117.331 78.870 L 108.600 78.870 108.600 93.980 M131.509 93.919 L 131.572 108.968 133.845 109.039 L 136.118 109.109 136.118 93.990 L 136.118 78.870 133.782 78.870 L 131.446 78.870 131.509 93.919 M140.101 81.143 L 140.172 83.415 144.349 83.538 L 148.526 83.661 148.589 96.376 L 148.653 109.091 150.985 109.091 L 153.317 109.091 153.317 96.314 L 153.317 83.538 157.617 83.538 L 161.916 83.538 161.916 81.204 L 161.916 78.870 150.974 78.870 L 140.031 78.870 140.101 81.143 M198.771 93.980 L 198.771 109.091 200.983 109.091 L 203.194 109.091 203.194 93.980 L 203.194 78.870 200.983 78.870 L 198.771 78.870 198.771 93.980 M209.582 93.964 L 209.582 109.091 211.916 109.091 L 214.251 109.091 214.251 103.466 C 214.251 96.931,213.917 97.543,217.477 97.543 C 219.897 97.543,221.130 98.042,221.130 99.022 C 221.130 99.120,221.738 100.214,222.482 101.452 C 223.225 102.691,223.833 103.766,223.833 103.841 C 223.833 103.917,224.038 104.272,224.289 104.630 C 224.540 104.989,225.024 105.780,225.363 106.388 C 225.703 106.996,226.189 107.852,226.443 108.291 L 226.904 109.088 229.423 109.089 C 230.808 109.090,231.941 109.030,231.941 108.956 C 231.941 108.882,231.554 108.217,231.081 107.477 C 230.608 106.738,230.221 106.082,230.221 106.020 C 230.221 105.957,229.834 105.301,229.361 104.562 C 228.888 103.823,228.501 103.149,228.501 103.066 C 228.501 102.982,228.170 102.432,227.764 101.843 C 227.359 101.254,227.027 100.703,227.027 100.620 C 227.027 100.536,226.640 99.863,226.167 99.123 C 225.168 97.562,225.303 96.560,226.512 96.560 C 226.956 96.560,229.219 94.302,229.845 93.235 C 232.693 88.374,230.795 82.218,225.676 79.714 L 224.201 78.993 216.892 78.915 L 209.582 78.837 209.582 93.964 M236.364 93.980 L 236.364 109.091 244.840 109.091 L 253.317 109.091 253.317 106.761 L 253.317 104.431 247.236 104.365 L 241.155 104.300 241.091 91.585 L 241.028 78.870 238.696 78.870 L 236.364 78.870 236.364 93.980 M223.652 83.845 C 227.740 86.130,227.276 92.141,222.918 93.351 C 221.932 93.625,215.295 93.714,214.639 93.463 C 214.235 93.307,214.022 84.094,214.414 83.702 C 214.728 83.388,223.066 83.518,223.652 83.845 M231.327 113.422 C 230.268 113.582,227.928 114.291,227.654 114.535 C 227.525 114.649,227.263 114.742,227.071 114.742 C 226.751 114.742,223.800 116.709,223.216 117.311 C 222.428 118.124,220.639 120.354,220.639 120.523 C 220.639 120.633,220.491 120.898,220.310 121.111 C 219.912 121.580,219.090 123.766,218.707 125.372 C 217.929 128.632,218.818 134.870,220.310 136.629 C 220.491 136.842,220.639 137.107,220.639 137.216 C 220.639 137.386,222.428 139.616,223.216 140.428 C 223.800 141.031,226.751 142.998,227.071 142.998 C 227.263 142.998,227.525 143.091,227.654 143.205 C 228.942 144.348,235.857 144.794,238.575 143.909 C 242.016 142.788,245.383 140.388,246.455 138.291 L 246.915 137.394 246.316 137.002 C 245.987 136.786,245.612 136.609,245.484 136.609 C 245.355 136.609,245.213 136.526,245.168 136.425 C 245.123 136.324,244.639 135.998,244.093 135.701 L 243.099 135.161 242.041 136.389 C 239.843 138.941,237.746 139.803,233.740 139.803 C 232.170 139.803,230.922 139.698,230.835 139.558 C 230.752 139.423,230.479 139.312,230.230 139.312 C 228.049 139.312,224.334 135.348,223.437 132.064 C 221.916 126.494,225.935 118.428,230.230 118.428 C 230.479 118.428,230.752 118.317,230.835 118.182 C 231.045 117.843,236.418 117.868,237.273 118.212 C 239.448 119.086,240.714 119.904,241.881 121.188 L 243.160 122.596 244.316 121.863 C 244.952 121.460,245.551 121.128,245.647 121.125 C 248.318 121.042,245.248 116.841,241.032 114.809 C 238.476 113.578,234.267 112.976,231.327 113.422 M283.047 113.436 C 282.041 113.602,280.098 114.333,280.098 114.545 C 280.098 114.653,279.960 114.743,279.791 114.743 C 279.340 114.745,277.237 116.810,276.773 117.706 C 275.032 121.073,275.569 125.519,277.921 127.217 C 278.159 127.389,278.498 127.670,278.673 127.842 C 279.134 128.292,282.169 129.714,283.042 129.888 C 283.450 129.970,283.784 130.134,283.784 130.252 C 283.784 130.370,283.969 130.467,284.196 130.467 C 284.628 130.467,285.850 130.829,287.101 131.328 C 287.506 131.489,288.225 131.770,288.698 131.951 C 291.465 133.012,292.837 135.278,291.862 137.178 C 291.413 138.055,290.108 139.312,289.647 139.312 C 289.411 139.312,289.150 139.423,289.066 139.558 C 288.755 140.061,283.734 139.853,282.540 139.286 C 281.184 138.644,279.715 137.268,279.090 136.057 C 278.499 134.913,278.511 134.913,276.416 136.167 C 274.491 137.320,274.472 137.365,275.246 138.859 C 277.427 143.071,282.975 145.217,289.107 144.222 C 298.103 142.762,299.652 131.388,291.272 128.320 C 290.870 128.173,289.601 127.702,288.452 127.274 C 287.303 126.846,285.819 126.328,285.153 126.125 C 280.518 124.705,278.883 121.257,281.737 118.919 C 284.412 116.727,290.543 118.288,291.535 121.412 C 291.742 122.066,292.391 121.900,294.192 120.730 C 295.785 119.697,295.835 119.501,294.863 118.103 C 292.262 114.364,287.889 112.637,283.047 113.436 M119.656 128.856 L 119.656 143.980 121.990 143.980 L 124.324 143.980 124.324 138.329 L 124.324 132.678 127.270 132.678 L 130.215 132.678 130.793 133.600 C 131.111 134.106,131.650 135.018,131.991 135.627 C 132.331 136.235,132.845 137.119,133.133 137.592 C 133.421 138.065,133.731 138.618,133.822 138.821 C 133.912 139.023,134.178 139.466,134.411 139.803 C 135.060 140.742,136.374 143.068,136.529 143.550 C 136.648 143.924,137.006 143.980,139.244 143.980 C 142.247 143.980,142.167 144.293,140.059 140.782 C 139.243 139.424,138.575 138.263,138.575 138.203 C 138.575 138.142,138.188 137.488,137.715 136.749 C 137.242 136.009,136.855 135.348,136.855 135.278 C 136.855 135.209,136.523 134.629,136.118 133.990 C 135.142 132.451,135.166 132.339,136.679 131.371 C 142.408 127.706,142.734 120.053,137.346 115.690 C 135.271 114.010,134.644 113.899,126.720 113.810 L 119.656 113.732 119.656 128.856 M146.192 128.870 L 146.192 143.980 155.283 143.980 L 164.373 143.980 164.373 141.650 L 164.373 139.320 157.678 139.255 L 150.983 139.189 150.983 135.135 L 150.983 131.081 157.064 131.015 L 163.145 130.950 163.145 128.624 L 163.145 126.299 157.064 126.233 L 150.983 126.167 150.983 122.359 L 150.983 118.550 157.555 118.485 L 164.128 118.419 164.128 116.089 L 164.128 113.759 155.160 113.759 L 146.192 113.759 146.192 128.870 M169.779 128.870 L 169.779 143.980 172.108 143.980 L 174.437 143.980 174.504 138.882 L 174.570 133.784 178.495 133.716 C 180.654 133.678,182.529 133.540,182.660 133.409 C 182.792 133.277,183.181 133.171,183.526 133.173 C 184.530 133.180,186.666 131.924,187.964 130.564 C 192.464 125.848,191.086 117.475,185.381 114.872 C 183.146 113.852,182.357 113.759,175.954 113.759 L 169.779 113.759 169.779 128.870 M199.807 115.049 C 198.921 117.351,198.505 118.486,197.987 120.006 C 197.707 120.827,197.397 121.609,197.298 121.744 C 197.199 121.880,197.060 122.267,196.990 122.604 C 196.824 123.398,195.416 127.267,195.091 127.822 C 194.953 128.057,194.840 128.449,194.840 128.694 C 194.840 128.940,194.752 129.245,194.645 129.373 C 194.537 129.502,194.309 130.049,194.137 130.590 C 193.965 131.130,193.731 131.794,193.615 132.064 C 193.500 132.334,193.111 133.385,192.751 134.398 C 192.391 135.412,191.894 136.794,191.646 137.469 C 191.399 138.145,190.904 139.527,190.546 140.541 C 190.188 141.554,189.792 142.575,189.665 142.810 C 189.077 143.899,189.285 144.002,191.932 143.928 L 194.429 143.857 194.960 142.324 C 195.252 141.481,195.565 140.716,195.657 140.625 C 195.748 140.533,195.823 140.273,195.823 140.046 C 195.823 139.819,195.998 139.283,196.212 138.854 L 196.600 138.076 203.249 138.141 L 209.899 138.206 210.893 141.093 L 211.887 143.980 214.404 143.980 L 216.921 143.980 216.414 142.445 C 216.134 141.600,215.810 140.804,215.693 140.676 C 215.575 140.547,215.479 140.206,215.479 139.918 C 215.479 139.630,215.404 139.319,215.313 139.227 C 215.159 139.074,214.730 137.916,213.660 134.767 C 213.431 134.091,213.149 133.317,213.034 133.047 C 212.711 132.289,210.979 127.508,210.274 125.430 C 210.137 125.025,209.934 124.472,209.823 124.201 C 209.712 123.931,209.328 122.881,208.968 121.867 C 208.609 120.854,208.220 119.803,208.105 119.533 C 207.869 118.981,206.407 114.854,206.212 114.189 C 206.100 113.811,205.736 113.759,203.194 113.759 L 200.303 113.759 199.807 115.049 M251.597 128.870 L 251.597 143.980 253.931 143.980 L 256.265 143.980 256.265 136.978 C 256.265 128.911,256.200 129.082,258.308 131.634 C 259.062 132.546,261.414 135.393,263.537 137.961 C 265.659 140.528,267.620 142.933,267.896 143.305 C 268.391 143.973,268.429 143.980,271.189 143.980 L 273.981 143.980 273.293 143.059 C 272.914 142.553,272.400 141.917,272.149 141.646 C 271.899 141.376,271.402 140.768,271.045 140.295 C 270.688 139.822,270.336 139.380,270.263 139.312 C 270.190 139.244,269.692 138.637,269.156 137.961 C 268.620 137.286,268.071 136.614,267.936 136.469 C 267.801 136.324,266.640 134.906,265.356 133.318 C 264.072 131.730,262.674 130.028,262.248 129.537 L 261.473 128.643 262.175 127.650 C 262.560 127.105,263.185 126.309,263.563 125.883 C 263.941 125.456,264.416 124.900,264.619 124.647 C 264.822 124.394,265.426 123.638,265.962 122.966 C 266.498 122.294,266.996 121.689,267.068 121.622 C 267.140 121.554,267.749 120.835,268.422 120.025 C 269.095 119.214,269.703 118.495,269.775 118.428 C 269.846 118.360,270.199 117.918,270.560 117.445 C 270.920 116.972,271.614 116.143,272.102 115.602 C 273.804 113.717,273.834 113.759,270.792 113.759 L 268.103 113.759 266.057 116.155 C 264.932 117.472,263.844 118.760,263.639 119.015 C 263.435 119.271,262.826 119.999,262.285 120.632 C 261.744 121.265,260.307 122.960,259.091 124.398 C 256.080 127.958,256.265 128.221,256.265 120.393 L 256.265 113.759 253.931 113.759 L 251.597 113.759 251.597 128.870 M133.784 118.884 C 136.306 120.441,137.174 122.977,136.028 125.440 C 134.802 128.073,133.552 128.557,128.256 128.453 L 124.447 128.378 124.381 123.403 L 124.314 118.428 128.680 118.428 C 132.499 118.429,133.139 118.486,133.784 118.884 M183.309 118.980 C 186.543 120.690,187.040 125.181,184.276 127.713 C 182.989 128.890,182.410 129.011,178.362 128.938 L 174.570 128.870 174.504 123.649 L 174.437 118.428 178.350 118.428 C 181.934 118.428,182.351 118.474,183.309 118.980 M204.569 123.002 C 205.181 124.743,205.844 126.665,206.042 127.273 C 206.241 127.881,206.511 128.570,206.642 128.805 C 206.773 129.040,206.880 129.432,206.880 129.677 C 206.880 129.922,206.971 130.228,207.083 130.356 C 207.448 130.776,207.933 132.632,207.781 133.028 C 207.612 133.468,199.219 133.613,198.546 133.187 C 198.256 133.004,198.324 132.628,198.955 130.919 C 199.371 129.792,199.950 128.151,200.240 127.273 C 200.531 126.394,200.864 125.455,200.979 125.184 C 201.388 124.228,202.457 121.240,202.457 121.055 C 202.457 120.775,203.245 119.625,203.359 119.739 C 203.413 119.793,203.958 121.262,204.569 123.002 " stroke="none" fill="#fc6efc" fill-rule="evenodd"></path><path id="path2" d="M176.044 78.032 C 174.940 78.296,172.951 78.929,173.021 78.993 C 173.148 79.110,175.773 78.585,176.225 78.352 C 176.809 78.052,180.524 78.074,180.713 78.378 C 180.796 78.514,181.173 78.624,181.550 78.624 C 181.928 78.624,182.590 78.747,183.023 78.898 C 183.455 79.049,183.863 79.118,183.929 79.052 C 184.486 78.495,177.750 77.623,176.044 78.032 M108.413 93.919 L 108.477 109.214 110.934 109.214 L 113.391 109.214 113.456 103.010 L 113.522 96.806 119.476 96.802 C 126.590 96.798,126.083 97.009,125.993 94.083 L 125.921 91.769 119.706 91.703 L 113.491 91.638 113.564 87.588 C 113.604 85.360,113.551 83.538,113.446 83.538 C 113.342 83.538,113.286 85.390,113.323 87.654 L 113.391 91.769 119.472 91.835 L 125.553 91.900 125.553 94.226 L 125.553 96.552 119.472 96.617 L 113.391 96.683 113.325 102.887 L 113.259 109.091 110.929 109.091 L 108.600 109.091 108.600 93.980 L 108.600 78.870 117.339 78.870 L 126.078 78.870 126.000 81.204 C 125.957 82.489,126.004 83.539,126.106 83.539 C 126.207 83.538,126.290 82.432,126.290 81.081 L 126.290 78.624 117.320 78.624 L 108.350 78.624 108.413 93.919 M131.317 78.931 C 131.252 79.100,131.228 85.983,131.263 94.226 L 131.327 109.214 133.784 109.214 L 136.241 109.214 136.304 93.919 L 136.367 78.624 133.901 78.624 C 132.154 78.624,131.400 78.714,131.317 78.931 M139.803 81.081 C 139.803 82.432,139.886 83.538,139.988 83.539 C 140.089 83.539,140.137 82.489,140.094 81.204 L 140.015 78.870 150.957 78.870 L 161.899 78.870 161.979 81.265 L 162.059 83.661 162.111 81.143 L 162.162 78.624 150.983 78.624 L 139.803 78.624 139.803 81.081 M198.396 78.923 C 198.330 79.096,198.304 85.983,198.339 94.226 L 198.403 109.214 200.761 109.284 C 202.547 109.337,203.189 109.270,203.405 109.010 C 203.615 108.757,203.673 104.768,203.626 93.707 L 203.563 78.747 201.040 78.677 C 199.159 78.625,198.486 78.687,198.396 78.923 M209.396 93.919 L 209.459 109.214 211.916 109.214 L 214.373 109.214 214.496 103.563 L 214.619 97.912 217.322 97.912 L 220.025 97.912 221.445 100.246 C 222.226 101.529,223.138 103.077,223.470 103.686 C 223.802 104.294,224.410 105.344,224.819 106.020 C 225.229 106.695,225.635 107.414,225.721 107.617 C 226.406 109.223,226.648 109.337,229.363 109.337 C 232.292 109.337,232.490 109.205,231.596 107.853 C 231.245 107.324,230.958 106.837,230.958 106.772 C 230.958 106.706,230.350 105.640,229.607 104.401 C 228.864 103.162,228.256 102.110,228.256 102.062 C 228.256 102.014,227.869 101.370,227.396 100.631 C 226.923 99.891,226.536 99.215,226.536 99.128 C 226.536 99.041,226.302 98.643,226.017 98.242 C 225.732 97.842,225.539 97.484,225.587 97.446 C 225.636 97.408,226.313 96.960,227.092 96.451 C 231.415 93.625,232.702 88.352,230.235 83.577 C 229.264 81.696,226.156 79.115,224.862 79.115 C 224.648 79.115,225.076 79.414,225.812 79.778 C 230.804 82.250,232.658 88.434,229.845 93.235 C 229.219 94.302,226.956 96.560,226.512 96.560 C 225.303 96.560,225.168 97.562,226.167 99.123 C 226.640 99.863,227.027 100.536,227.027 100.620 C 227.027 100.703,227.359 101.254,227.764 101.843 C 228.170 102.432,228.501 102.982,228.501 103.066 C 228.501 103.149,228.888 103.823,229.361 104.562 C 229.834 105.301,230.221 105.957,230.221 106.020 C 230.221 106.082,230.608 106.738,231.081 107.477 C 231.554 108.217,231.941 108.882,231.941 108.956 C 231.941 109.030,230.808 109.090,229.423 109.089 L 226.904 109.088 226.443 108.291 C 226.189 107.852,225.703 106.996,225.363 106.388 C 225.024 105.780,224.540 104.989,224.289 104.630 C 224.038 104.272,223.833 103.917,223.833 103.841 C 223.833 103.766,223.225 102.691,222.482 101.452 C 221.738 100.214,221.130 99.120,221.130 99.022 C 221.130 98.042,219.897 97.543,217.477 97.543 C 213.917 97.543,214.251 96.931,214.251 103.466 L 214.251 109.091 211.916 109.091 L 209.582 109.091 209.582 93.964 L 209.582 78.837 216.946 78.915 C 220.996 78.958,224.119 78.917,223.887 78.826 C 223.654 78.734,220.285 78.651,216.399 78.641 L 209.333 78.624 209.396 93.919 M236.177 93.910 L 236.241 109.214 244.688 109.278 C 254.519 109.354,253.808 109.549,253.808 106.776 C 253.808 104.013,254.222 104.177,247.250 104.177 L 241.282 104.177 241.218 91.462 L 241.155 78.747 238.635 78.677 L 236.114 78.607 236.177 93.910 M136.118 93.990 L 136.118 109.109 133.845 109.039 L 131.572 108.968 131.509 93.919 L 131.446 78.870 133.782 78.870 L 136.118 78.870 136.118 93.990 M203.194 93.980 L 203.194 109.091 200.983 109.091 L 198.771 109.091 198.771 93.980 L 198.771 78.870 200.983 78.870 L 203.194 78.870 203.194 93.980 M241.091 91.585 L 241.155 104.300 247.236 104.365 L 253.317 104.431 253.317 106.761 L 253.317 109.091 244.840 109.091 L 236.364 109.091 236.364 93.980 L 236.364 78.870 238.696 78.870 L 241.028 78.870 241.091 91.585 M170.393 80.032 C 167.368 81.834,163.097 87.113,163.156 88.978 C 163.161 89.162,163.672 88.284,164.291 87.028 C 165.764 84.040,168.302 81.402,171.018 80.037 C 172.025 79.530,172.629 79.125,172.359 79.135 C 172.088 79.146,171.204 79.549,170.393 80.032 M185.362 79.741 C 186.027 80.071,186.606 80.306,186.649 80.264 C 186.768 80.145,184.758 79.114,184.436 79.128 C 184.280 79.136,184.697 79.411,185.362 79.741 M187.822 81.134 C 189.233 82.311,190.779 83.941,191.159 84.652 C 191.541 85.365,191.329 85.575,189.013 86.779 L 187.731 87.446 186.310 86.045 C 184.904 84.658,183.133 83.538,182.348 83.538 C 182.124 83.538,182.627 83.863,183.466 84.260 C 184.834 84.907,187.224 86.976,187.224 87.513 C 187.224 87.943,188.049 87.674,189.809 86.671 C 191.240 85.855,191.642 85.504,191.644 85.069 C 191.646 84.449,188.517 81.112,187.469 80.617 C 187.057 80.423,187.173 80.593,187.822 81.134 M176.290 82.951 C 174.107 83.499,172.267 84.489,170.734 85.939 C 169.385 87.215,167.935 89.433,168.109 89.955 C 168.157 90.099,168.449 89.660,168.756 88.979 C 170.707 84.663,176.578 82.071,181.327 83.429 C 181.817 83.570,181.882 83.542,181.650 83.292 C 181.350 82.972,177.248 82.710,176.290 82.951 M148.403 96.399 L 148.526 109.214 150.983 109.214 L 153.440 109.214 153.503 96.573 C 153.553 86.836,153.637 83.888,153.872 83.739 C 154.088 83.602,154.051 83.545,153.747 83.542 C 153.343 83.538,153.317 84.309,153.317 96.314 L 153.317 109.091 150.983 109.091 L 148.649 109.091 148.649 96.452 C 148.649 89.500,148.566 83.761,148.464 83.699 C 148.363 83.636,148.335 89.351,148.403 96.399 M214.414 83.702 C 214.022 84.094,214.235 93.307,214.639 93.463 C 214.853 93.545,216.705 93.588,218.755 93.560 L 222.482 93.508 218.550 93.376 L 214.619 93.243 214.619 88.391 C 214.619 85.722,214.610 83.538,214.599 83.538 C 214.587 83.538,214.505 83.612,214.414 83.702 M223.408 84.128 C 227.140 85.957,227.217 91.271,223.533 92.745 C 222.530 93.146,222.372 93.551,223.339 93.244 C 224.962 92.729,226.536 90.370,226.536 88.452 C 226.536 86.238,224.390 83.515,222.669 83.546 C 222.431 83.550,222.763 83.812,223.408 84.128 M162.831 89.926 C 162.737 90.264,162.669 90.817,162.679 91.155 C 162.695 91.684,162.731 91.655,162.935 90.946 C 163.065 90.494,163.134 89.941,163.087 89.718 C 163.027 89.431,162.952 89.492,162.831 89.926 M167.736 90.757 C 167.643 90.998,167.579 91.545,167.592 91.973 C 167.616 92.732,167.623 92.727,167.843 91.786 C 168.087 90.747,168.012 90.036,167.736 90.757 M162.492 93.980 C 162.493 95.061,162.536 95.473,162.588 94.895 C 162.640 94.317,162.639 93.433,162.586 92.930 C 162.534 92.426,162.491 92.899,162.492 93.980 M167.384 93.980 C 167.387 94.521,167.437 94.713,167.496 94.407 C 167.554 94.102,167.552 93.660,167.491 93.425 C 167.429 93.190,167.381 93.440,167.384 93.980 M178.378 95.577 L 178.378 97.789 183.415 97.789 C 189.082 97.789,188.845 97.691,187.949 99.657 C 186.165 103.572,181.132 105.562,175.921 104.412 C 174.857 104.177,174.501 104.049,173.043 103.378 C 171.900 102.853,169.422 100.201,168.736 98.771 C 168.380 98.028,168.082 97.592,168.074 97.803 C 168.031 98.905,170.565 102.108,172.390 103.258 C 174.670 104.694,181.558 105.686,182.187 104.668 C 182.270 104.533,182.539 104.423,182.785 104.423 C 184.283 104.423,187.216 101.851,188.210 99.667 C 189.194 97.505,189.279 97.543,183.508 97.543 L 178.624 97.543 178.624 95.577 L 178.624 93.612 186.118 93.612 L 193.612 93.612 193.610 95.516 C 193.610 96.563,193.497 97.862,193.360 98.403 C 192.875 100.314,192.538 101.355,192.304 101.664 C 192.174 101.837,192.137 102.047,192.222 102.132 C 192.754 102.664,193.838 98.258,193.849 95.516 L 193.857 93.366 186.118 93.366 L 178.378 93.366 178.378 95.577 M167.596 95.946 C 167.584 96.351,167.682 96.849,167.813 97.052 C 168.114 97.517,168.114 96.763,167.813 95.823 C 167.620 95.221,167.616 95.224,167.596 95.946 M162.695 96.683 C 162.691 97.088,162.783 97.641,162.899 97.912 C 163.188 98.583,163.188 97.461,162.899 96.560 C 162.707 95.961,162.702 95.964,162.695 96.683 M163.164 98.840 C 163.071 100.943,167.324 106.142,170.543 107.857 C 174.235 109.825,182.236 110.555,184.152 109.100 C 184.287 108.997,184.700 108.841,185.069 108.753 C 187.223 108.238,192.798 103.281,192.057 102.540 C 191.986 102.469,191.748 102.759,191.528 103.184 C 190.545 105.086,186.055 108.600,184.608 108.600 C 184.344 108.600,184.023 108.694,183.894 108.811 C 182.841 109.763,174.680 109.759,173.600 108.806 C 173.471 108.692,173.170 108.600,172.929 108.600 C 171.566 108.600,167.507 105.666,165.959 103.563 C 165.562 103.022,165.174 102.525,165.098 102.457 C 164.959 102.334,163.573 99.463,163.319 98.771 C 163.213 98.483,163.180 98.498,163.164 98.840 M230.194 113.392 C 226.451 114.138,223.359 116.253,220.794 119.824 C 219.857 121.128,219.650 121.645,220.270 121.130 C 220.473 120.962,220.639 120.712,220.639 120.574 C 220.639 120.365,222.328 118.227,223.216 117.311 C 223.800 116.709,226.751 114.742,227.071 114.742 C 227.263 114.742,227.525 114.649,227.654 114.535 C 228.933 113.399,236.134 112.950,238.698 113.847 C 243.408 115.494,247.896 119.501,246.367 120.695 C 246.068 120.928,245.744 121.122,245.647 121.125 C 245.551 121.128,244.952 121.460,244.316 121.863 L 243.160 122.596 241.881 121.188 C 240.724 119.914,238.030 118.154,237.717 118.467 C 237.650 118.533,238.137 118.832,238.798 119.131 C 240.009 119.678,241.827 121.224,242.590 122.355 C 242.966 122.913,243.050 122.936,243.553 122.620 C 243.855 122.430,244.767 121.914,245.577 121.473 C 247.309 120.532,247.446 120.181,246.543 118.997 C 242.894 114.213,236.711 112.093,230.194 113.392 M282.678 113.264 C 282.391 113.385,283.073 113.414,284.320 113.334 C 288.953 113.037,292.434 114.611,294.863 118.103 C 295.835 119.501,295.785 119.697,294.192 120.730 C 292.434 121.872,291.742 122.062,291.548 121.458 C 291.392 120.972,290.172 119.464,290.172 119.757 C 290.172 119.855,290.448 120.297,290.786 120.740 C 291.124 121.183,291.400 121.673,291.400 121.829 C 291.400 122.391,292.464 122.094,294.126 121.069 C 296.095 119.854,296.184 119.549,295.068 117.863 C 292.673 114.247,286.118 111.814,282.678 113.264 M119.277 113.821 C 119.213 113.990,119.189 120.872,119.224 129.115 L 119.287 144.103 121.867 144.103 L 124.447 144.103 124.570 138.390 C 124.638 135.248,124.610 132.678,124.509 132.678 C 124.407 132.678,124.324 135.221,124.324 138.329 L 124.324 143.980 121.990 143.980 L 119.656 143.980 119.656 128.870 L 119.656 113.759 126.229 113.762 C 132.586 113.765,133.689 113.865,135.749 114.622 L 136.241 114.802 135.749 114.442 C 134.489 113.517,119.608 112.956,119.277 113.821 M146.059 113.821 C 145.994 113.990,145.970 120.872,146.005 129.115 L 146.069 144.103 155.405 144.103 L 164.742 144.103 164.814 141.914 C 164.856 140.626,164.780 139.620,164.629 139.470 C 164.452 139.292,164.373 139.945,164.373 141.597 L 164.373 143.980 155.283 143.980 L 146.192 143.980 146.192 128.870 L 146.192 113.759 155.160 113.759 L 164.128 113.759 164.128 116.089 L 164.128 118.419 157.555 118.485 L 150.983 118.550 150.983 122.359 L 150.983 126.167 157.064 126.233 L 163.145 126.299 163.145 128.624 L 163.145 130.950 157.064 131.015 L 150.983 131.081 150.983 135.135 L 150.983 139.189 157.555 139.195 L 164.128 139.201 157.617 139.130 L 151.106 139.058 151.106 135.135 L 151.106 131.213 157.187 131.147 L 163.268 131.081 163.268 128.624 L 163.268 126.167 157.248 126.044 L 151.229 125.921 151.161 122.301 L 151.093 118.681 157.672 118.616 L 164.251 118.550 164.321 116.032 L 164.391 113.514 155.283 113.514 C 148.224 113.514,146.150 113.583,146.059 113.821 M169.533 128.878 L 169.533 144.243 172.052 144.173 L 174.570 144.103 174.636 139.005 L 174.703 133.907 178.568 133.888 C 182.012 133.871,186.301 133.286,183.649 133.195 C 183.236 133.181,182.792 133.277,182.660 133.409 C 182.529 133.540,180.654 133.678,178.495 133.716 L 174.570 133.784 174.504 138.882 L 174.437 143.980 172.108 143.980 L 169.779 143.980 169.779 128.870 L 169.779 113.759 175.954 113.759 C 182.346 113.759,183.133 113.852,185.381 114.866 C 186.516 115.378,188.841 117.546,189.605 118.805 C 189.766 119.070,189.903 119.177,189.911 119.042 C 189.936 118.565,188.057 116.340,186.875 115.447 C 184.592 113.721,183.429 113.514,176.039 113.514 L 169.533 113.514 169.533 128.878 M200.076 113.821 C 199.870 114.096,198.894 116.601,198.234 118.550 C 197.970 119.331,197.781 119.832,197.319 120.978 C 197.162 121.367,197.090 121.741,197.158 121.810 C 197.288 121.940,197.467 121.533,198.104 119.656 C 198.488 118.524,198.932 117.324,199.807 115.049 L 200.303 113.759 203.194 113.759 C 205.736 113.759,206.100 113.811,206.212 114.189 C 206.407 114.854,207.869 118.981,208.105 119.533 C 208.220 119.803,208.609 120.854,208.968 121.867 C 209.328 122.881,209.712 123.931,209.823 124.201 C 209.934 124.472,210.137 125.025,210.274 125.430 C 210.979 127.508,212.711 132.289,213.034 133.047 C 213.149 133.317,213.420 134.082,213.635 134.747 C 213.851 135.412,214.130 136.131,214.255 136.344 C 214.648 137.018,214.515 136.231,214.024 134.984 C 213.764 134.324,213.257 132.955,212.898 131.941 C 212.538 130.928,212.038 129.545,211.788 128.870 C 211.538 128.194,210.933 126.480,210.444 125.061 C 209.954 123.643,209.460 122.260,209.345 121.990 C 208.947 121.053,208.293 119.276,207.454 116.854 C 206.187 113.198,206.588 113.514,203.216 113.514 C 201.174 113.514,200.237 113.605,200.076 113.821 M251.351 128.870 L 251.351 144.243 253.870 144.173 L 256.388 144.103 256.453 137.162 C 256.489 133.345,256.600 130.226,256.699 130.231 C 256.798 130.236,257.304 130.779,257.823 131.436 C 258.341 132.094,258.951 132.836,259.178 133.085 C 259.404 133.334,260.030 134.091,260.569 134.767 C 261.107 135.442,261.607 136.050,261.679 136.118 C 261.751 136.186,262.249 136.794,262.785 137.469 C 263.321 138.145,263.817 138.753,263.887 138.821 C 263.957 138.888,264.786 139.882,265.729 141.029 C 266.673 142.176,267.658 143.365,267.919 143.671 C 268.362 144.189,268.585 144.226,271.297 144.226 C 274.455 144.226,274.665 144.116,273.644 142.995 C 273.030 142.322,270.081 138.730,268.919 137.240 C 268.514 136.721,268.071 136.172,267.936 136.022 C 267.801 135.872,267.252 135.196,266.716 134.521 C 266.180 133.845,265.675 133.237,265.594 133.170 C 265.212 132.851,261.916 128.634,261.916 128.464 C 261.916 128.309,270.018 118.388,270.513 117.936 C 271.220 117.292,273.905 113.791,273.785 113.670 C 273.699 113.584,272.344 113.514,270.775 113.514 L 267.921 113.514 266.332 115.407 C 265.457 116.449,263.415 118.858,261.794 120.761 C 260.172 122.664,258.413 124.742,257.885 125.379 C 256.502 127.046,256.525 127.134,256.454 120.086 L 256.388 113.636 253.870 113.566 L 251.351 113.496 251.351 128.870 M280.221 114.088 C 274.128 117.381,273.806 125.788,279.659 128.773 C 281.225 129.572,283.784 130.488,283.784 130.250 C 283.784 130.133,283.450 129.970,283.042 129.888 C 282.169 129.714,279.134 128.292,278.673 127.842 C 278.498 127.670,278.159 127.389,277.921 127.217 C 275.569 125.519,275.032 121.073,276.773 117.706 C 277.226 116.830,279.336 114.745,279.771 114.743 C 279.928 114.743,280.094 114.652,280.139 114.542 C 280.184 114.432,280.663 114.161,281.204 113.940 C 281.759 113.714,281.973 113.543,281.695 113.548 C 281.425 113.553,280.762 113.796,280.221 114.088 M256.265 120.393 C 256.265 128.221,256.080 127.958,259.091 124.398 C 260.307 122.960,261.744 121.265,262.285 120.632 C 262.826 119.999,263.435 119.271,263.639 119.015 C 263.844 118.760,264.932 117.472,266.057 116.155 L 268.103 113.759 270.792 113.759 C 273.834 113.759,273.804 113.717,272.102 115.602 C 271.614 116.143,270.920 116.972,270.560 117.445 C 270.199 117.918,269.846 118.360,269.775 118.428 C 269.703 118.495,269.095 119.214,268.422 120.025 C 267.749 120.835,267.140 121.554,267.068 121.622 C 266.996 121.689,266.498 122.294,265.962 122.966 C 265.426 123.638,264.822 124.394,264.619 124.647 C 264.416 124.900,263.941 125.456,263.563 125.883 C 263.185 126.309,262.560 127.105,262.175 127.650 L 261.473 128.643 262.248 129.537 C 262.674 130.028,264.072 131.730,265.356 133.318 C 266.640 134.906,267.801 136.324,267.936 136.469 C 268.071 136.614,268.620 137.286,269.156 137.961 C 269.692 138.637,270.190 139.244,270.263 139.312 C 270.336 139.380,270.688 139.822,271.045 140.295 C 271.402 140.768,271.899 141.376,272.149 141.646 C 272.400 141.917,272.914 142.553,273.293 143.059 L 273.981 143.980 271.189 143.980 C 268.429 143.980,268.391 143.973,267.896 143.305 C 267.620 142.933,265.659 140.528,263.537 137.961 C 261.414 135.393,259.062 132.546,258.308 131.634 C 256.200 129.082,256.265 128.911,256.265 136.978 L 256.265 143.980 253.931 143.980 L 251.597 143.980 251.597 128.870 L 251.597 113.759 253.931 113.759 L 256.265 113.759 256.265 120.393 M136.855 115.232 C 142.735 120.185,142.655 127.549,136.679 131.371 C 135.166 132.339,135.142 132.451,136.118 133.990 C 136.523 134.629,136.855 135.209,136.855 135.278 C 136.855 135.348,137.242 136.009,137.715 136.749 C 138.188 137.488,138.575 138.142,138.575 138.203 C 138.575 138.263,139.243 139.424,140.059 140.782 C 142.167 144.293,142.247 143.980,139.244 143.980 C 137.006 143.980,136.648 143.924,136.529 143.550 C 136.363 143.033,135.018 140.675,134.371 139.766 C 134.116 139.407,133.907 139.006,133.907 138.874 C 133.907 138.743,133.721 138.483,133.495 138.298 C 133.115 137.988,133.998 139.793,134.969 141.314 C 135.171 141.632,135.612 142.389,135.949 142.998 L 136.560 144.103 139.287 144.173 C 142.532 144.255,142.489 144.325,140.869 141.605 C 140.239 140.547,139.341 139.017,138.873 138.206 C 137.504 135.831,137.212 135.329,136.398 133.957 C 135.434 132.331,135.418 132.442,136.716 131.622 C 142.824 127.763,142.899 117.973,136.845 115.010 L 136.241 114.714 136.855 115.232 M230.835 118.182 C 230.752 118.317,230.479 118.428,230.230 118.428 C 228.699 118.428,223.692 122.792,224.405 123.504 C 224.476 123.575,224.699 123.319,224.902 122.934 C 225.888 121.061,228.614 119.098,231.181 118.413 C 232.617 118.029,232.698 117.978,231.894 117.958 C 231.395 117.946,230.919 118.047,230.835 118.182 M235.995 118.182 C 236.722 118.494,237.584 118.494,237.101 118.182 C 236.898 118.051,236.456 117.950,236.118 117.957 C 235.555 117.970,235.545 117.988,235.995 118.182 M282.801 118.259 C 278.636 120.225,279.922 124.523,285.153 126.124 C 285.819 126.328,287.131 126.778,288.068 127.124 C 289.006 127.470,289.815 127.712,289.866 127.660 C 289.976 127.550,286.606 126.237,285.012 125.768 C 279.858 124.253,279.043 119.734,283.661 118.279 C 284.397 118.047,284.489 117.969,284.029 117.969 C 283.692 117.969,283.139 118.100,282.801 118.259 M287.266 118.296 C 287.897 118.470,288.753 118.854,289.168 119.150 C 289.691 119.522,289.880 119.574,289.782 119.321 C 289.592 118.824,287.634 117.931,286.796 117.958 C 286.266 117.975,286.369 118.049,287.266 118.296 M124.381 123.403 L 124.447 128.378 128.256 128.453 C 133.552 128.557,134.802 128.073,136.028 125.440 C 137.174 122.977,136.306 120.441,133.784 118.884 C 133.139 118.486,132.499 118.429,128.680 118.428 L 124.314 118.428 124.381 123.403 M174.504 123.649 L 174.570 128.870 178.362 128.938 C 182.410 129.011,182.989 128.890,184.276 127.713 C 187.040 125.181,186.543 120.690,183.309 118.980 C 182.351 118.474,181.934 118.428,178.350 118.428 L 174.437 118.428 174.504 123.649 M133.342 118.971 C 135.866 120.064,136.979 123.690,135.491 125.972 C 134.217 127.927,133.206 128.256,128.471 128.256 L 124.570 128.256 124.570 123.464 L 124.570 118.673 128.613 118.673 C 131.236 118.673,132.896 118.778,133.342 118.971 M183.111 119.169 C 185.924 120.510,186.640 124.684,184.478 127.140 C 183.938 127.754,183.291 128.256,183.040 128.256 C 182.789 128.256,182.516 128.366,182.432 128.501 C 182.342 128.648,180.751 128.747,178.487 128.747 L 174.693 128.747 174.693 123.710 L 174.693 118.673 178.381 118.673 C 181.573 118.673,182.209 118.740,183.111 119.169 M190.040 119.800 C 191.873 124.180,189.698 130.373,185.611 132.414 C 184.994 132.722,184.549 133.033,184.621 133.106 C 185.256 133.741,188.991 130.233,190.112 127.950 C 191.140 125.855,191.142 120.132,190.114 119.497 C 189.930 119.383,189.906 119.480,190.040 119.800 M202.859 120.254 C 202.638 120.591,202.457 120.952,202.457 121.055 C 202.457 121.240,201.388 124.228,200.979 125.184 C 200.484 126.345,199.718 128.793,199.820 128.894 C 199.880 128.955,200.173 128.311,200.471 127.463 C 200.769 126.615,201.105 125.700,201.218 125.430 C 201.331 125.160,201.728 124.054,202.100 122.973 C 203.078 120.127,203.232 119.863,203.458 120.639 C 203.557 120.977,204.242 122.967,204.980 125.061 C 206.186 128.482,207.217 131.463,207.519 132.406 C 207.579 132.594,207.691 132.686,207.768 132.609 C 207.920 132.456,207.390 130.732,207.075 130.356 C 206.968 130.228,206.880 129.922,206.880 129.677 C 206.880 129.432,206.773 129.040,206.642 128.805 C 206.511 128.570,206.241 127.881,206.042 127.273 C 205.345 125.138,203.456 119.836,203.359 119.739 C 203.305 119.685,203.080 119.917,202.859 120.254 M219.273 122.516 C 217.916 125.639,217.916 132.101,219.273 135.223 C 219.859 136.573,219.998 136.187,219.444 134.744 C 218.034 131.063,218.034 126.677,219.444 122.996 C 219.998 121.553,219.859 121.167,219.273 122.516 M196.375 123.535 C 196.071 124.318,195.823 125.129,195.823 125.337 C 195.823 125.546,195.747 125.792,195.655 125.885 C 195.409 126.131,194.844 127.850,194.968 127.974 C 195.027 128.032,195.131 127.926,195.200 127.738 C 195.269 127.550,195.671 126.456,196.094 125.307 C 197.251 122.162,197.488 120.665,196.375 123.535 M223.952 124.084 C 222.820 125.916,222.898 132.579,224.066 133.747 C 224.386 134.067,224.401 133.797,224.095 133.228 C 223.112 131.399,223.122 126.308,224.112 124.485 C 224.381 123.988,224.236 123.624,223.952 124.084 M290.663 128.070 C 291.001 128.220,291.720 128.538,292.260 128.777 C 299.249 131.865,297.944 141.412,290.172 144.062 C 289.893 144.157,289.912 144.192,290.249 144.207 C 290.904 144.235,293.236 143.033,294.310 142.114 C 296.870 139.923,297.864 134.883,296.270 132.173 C 295.104 130.188,291.753 127.703,290.349 127.781 C 290.184 127.790,290.326 127.920,290.663 128.070 M194.538 128.630 C 194.345 129.290,193.135 132.684,192.877 133.292 C 192.762 133.563,192.376 134.613,192.019 135.627 C 191.662 136.640,191.266 137.661,191.140 137.896 C 191.013 138.131,190.909 138.491,190.909 138.698 C 190.909 138.904,190.805 139.265,190.678 139.500 C 190.215 140.356,189.004 143.863,189.109 144.042 C 189.307 144.376,194.600 144.260,194.704 143.919 C 195.011 142.916,196.136 139.859,196.330 139.500 C 196.457 139.265,196.560 138.904,196.560 138.697 C 196.560 138.367,197.366 138.329,203.105 138.387 L 209.649 138.452 210.473 140.786 C 211.823 144.612,211.372 144.226,214.491 144.226 C 215.980 144.226,217.199 144.150,217.199 144.058 C 217.199 143.856,216.271 141.108,215.969 140.418 C 215.851 140.147,215.511 139.233,215.213 138.385 C 214.915 137.537,214.622 136.893,214.562 136.954 C 214.431 137.084,215.001 138.840,215.284 139.177 C 215.391 139.305,215.479 139.643,215.479 139.926 C 215.479 140.210,215.575 140.547,215.693 140.676 C 215.810 140.804,216.134 141.600,216.414 142.445 L 216.921 143.980 214.404 143.980 L 211.887 143.980 210.893 141.093 L 209.899 138.206 203.249 138.141 L 196.600 138.076 196.212 138.854 C 195.998 139.283,195.823 139.819,195.823 140.046 C 195.823 140.273,195.748 140.533,195.657 140.625 C 195.565 140.716,195.252 141.481,194.960 142.324 L 194.429 143.857 191.932 143.928 C 189.285 144.002,189.077 143.899,189.665 142.810 C 189.792 142.575,190.188 141.554,190.546 140.541 C 190.904 139.527,191.399 138.145,191.646 137.469 C 191.894 136.794,192.391 135.412,192.751 134.398 C 193.111 133.385,193.496 132.334,193.607 132.064 C 193.717 131.794,193.941 131.186,194.103 130.713 C 194.266 130.240,194.511 129.615,194.648 129.324 C 194.785 129.033,194.849 128.649,194.789 128.470 C 194.718 128.258,194.631 128.314,194.538 128.630 M198.900 131.087 C 198.527 132.110,198.285 133.010,198.362 133.087 C 198.439 133.164,198.578 132.910,198.671 132.523 C 198.763 132.135,198.912 131.708,199.000 131.572 C 199.283 131.139,199.803 129.451,199.689 129.337 C 199.628 129.276,199.273 130.064,198.900 131.087 M286.532 131.430 C 292.196 133.454,293.684 136.504,290.121 138.786 C 289.668 139.076,289.480 139.306,289.694 139.308 C 290.115 139.312,291.431 138.020,291.862 137.178 C 292.837 135.278,291.465 133.012,288.698 131.951 C 288.225 131.770,287.506 131.489,287.101 131.328 C 285.867 130.836,284.628 130.466,284.258 130.480 C 284.065 130.487,285.088 130.914,286.532 131.430 M130.162 133.177 C 130.397 133.452,130.814 134.087,131.087 134.590 C 132.179 136.595,132.990 137.854,133.112 137.732 C 133.182 137.662,133.125 137.463,132.985 137.291 C 132.844 137.119,132.424 136.425,132.051 135.749 C 130.917 133.699,130.227 132.678,129.975 132.678 C 129.843 132.678,129.927 132.903,130.162 133.177 M200.921 133.353 C 202.171 133.397,204.217 133.397,205.467 133.353 C 206.717 133.308,205.694 133.272,203.194 133.272 C 200.694 133.272,199.671 133.308,200.921 133.353 M224.339 134.231 C 224.250 135.468,228.707 139.312,230.230 139.312 C 230.479 139.312,230.752 139.423,230.835 139.558 C 230.919 139.693,231.395 139.793,231.894 139.781 C 232.706 139.761,232.634 139.714,231.204 139.326 C 228.517 138.597,226.006 136.753,224.646 134.512 C 224.485 134.247,224.347 134.120,224.339 134.231 M242.184 135.877 C 241.369 137.028,240.304 137.880,238.662 138.695 C 238.006 139.020,237.635 139.291,237.838 139.297 C 238.574 139.318,240.770 137.822,241.926 136.510 L 243.110 135.167 244.098 135.704 C 244.641 135.999,245.123 136.324,245.168 136.425 C 245.213 136.526,245.355 136.609,245.484 136.609 C 245.612 136.609,245.987 136.786,246.316 137.002 L 246.915 137.394 246.455 138.291 C 245.383 140.388,242.016 142.788,238.575 143.909 C 235.857 144.794,228.942 144.348,227.654 143.205 C 227.525 143.091,227.263 142.998,227.071 142.998 C 226.751 142.998,223.800 141.031,223.216 140.428 C 222.328 139.512,220.639 137.374,220.639 137.166 C 220.639 137.028,220.473 136.778,220.270 136.609 C 219.235 135.750,220.933 138.339,222.576 140.124 C 228.087 146.114,239.176 146.299,244.897 140.497 C 247.795 137.558,247.798 137.506,245.177 136.021 C 242.785 134.666,243.032 134.678,242.184 135.877 M277.027 135.518 C 276.486 135.845,275.683 136.293,275.242 136.514 C 274.109 137.080,274.088 137.196,274.844 138.689 C 277.120 143.183,284.209 146.043,289.189 144.475 C 289.527 144.369,288.693 144.340,287.336 144.411 C 281.694 144.706,277.206 142.645,275.246 138.859 C 274.472 137.365,274.491 137.320,276.416 136.167 C 278.511 134.913,278.499 134.913,279.090 136.057 C 280.065 137.947,282.741 139.830,284.383 139.781 C 284.998 139.763,284.896 139.694,283.826 139.403 C 281.655 138.814,280.162 137.593,279.130 135.565 C 278.715 134.748,278.314 134.739,277.027 135.518 M235.995 139.558 C 235.545 139.751,235.555 139.770,236.118 139.782 C 236.456 139.790,236.898 139.689,237.101 139.558 C 237.584 139.245,236.722 139.245,235.995 139.558 M287.961 139.558 C 287.374 139.746,287.382 139.756,288.130 139.779 C 288.562 139.792,288.983 139.693,289.066 139.558 C 289.241 139.275,288.843 139.275,287.961 139.558 " stroke="none" fill="#fcc7fc" fill-rule="evenodd"></path><path id="path3" d="M112.945 78.562 C 115.267 78.603,119.137 78.603,121.544 78.562 C 123.952 78.522,122.052 78.489,117.322 78.489 C 112.592 78.489,110.622 78.522,112.945 78.562 M132.747 78.559 C 133.393 78.610,134.388 78.609,134.958 78.558 C 135.529 78.506,135.000 78.465,133.784 78.466 C 132.568 78.466,132.101 78.509,132.747 78.559 M145.639 78.562 C 148.646 78.601,153.566 78.601,156.572 78.562 C 159.579 78.523,157.119 78.491,151.106 78.491 C 145.092 78.491,142.632 78.523,145.639 78.562 M199.823 78.559 C 200.469 78.610,201.464 78.609,202.034 78.558 C 202.605 78.506,202.076 78.465,200.860 78.466 C 199.644 78.466,199.177 78.509,199.823 78.559 M213.084 78.562 C 214.942 78.604,217.982 78.604,219.840 78.562 C 221.698 78.520,220.178 78.486,216.462 78.486 C 212.746 78.486,211.225 78.520,213.084 78.562 M237.531 78.558 C 238.105 78.610,239.045 78.610,239.619 78.558 C 240.193 78.507,239.724 78.464,238.575 78.464 C 237.426 78.464,236.956 78.507,237.531 78.558 M131.071 78.931 C 131.006 79.100,130.982 85.983,131.017 94.226 L 131.081 109.214 131.204 93.919 C 131.272 85.507,131.296 78.624,131.258 78.624 C 131.220 78.624,131.136 78.762,131.071 78.931 M235.929 93.782 C 235.898 102.186,235.955 109.113,236.057 109.176 C 236.224 109.279,236.221 98.359,236.051 84.029 C 236.015 80.989,235.960 85.377,235.929 93.782 M108.165 93.904 C 108.134 102.241,108.191 109.113,108.292 109.176 C 108.460 109.279,108.457 98.127,108.287 84.152 C 108.251 81.179,108.196 85.568,108.165 93.904 M126.380 81.204 C 126.380 82.555,126.422 83.077,126.471 82.363 C 126.521 81.649,126.521 80.543,126.470 79.906 C 126.420 79.268,126.379 79.853,126.380 81.204 M136.364 94.030 C 136.296 102.435,136.325 109.228,136.427 109.126 C 136.529 109.023,136.585 102.146,136.550 93.843 L 136.486 78.747 136.364 94.030 M139.647 81.204 C 139.648 82.555,139.689 83.077,139.739 82.363 C 139.789 81.649,139.788 80.543,139.738 79.906 C 139.688 79.268,139.647 79.853,139.647 81.204 M209.147 93.904 C 209.116 102.241,209.174 109.113,209.275 109.176 C 209.442 109.279,209.440 98.127,209.270 84.152 C 209.233 81.179,209.178 85.568,209.147 93.904 M166.938 82.617 L 166.216 83.415 167.015 82.694 C 167.454 82.297,167.813 81.937,167.813 81.895 C 167.813 81.705,167.611 81.872,166.938 82.617 M116.769 83.722 C 118.492 83.764,121.311 83.764,123.034 83.722 C 124.757 83.679,123.348 83.645,119.902 83.645 C 116.456 83.645,115.046 83.679,116.769 83.722 M142.088 83.721 C 143.277 83.766,145.157 83.766,146.265 83.721 C 147.373 83.675,146.400 83.638,144.103 83.639 C 141.806 83.639,140.899 83.676,142.088 83.721 M155.958 83.721 C 157.073 83.766,158.897 83.766,160.012 83.721 C 161.127 83.675,160.215 83.638,157.985 83.638 C 155.756 83.638,154.843 83.675,155.958 83.721 M216.658 83.721 C 217.779 83.767,219.548 83.766,220.589 83.721 C 221.630 83.675,220.713 83.637,218.550 83.638 C 216.388 83.638,215.537 83.675,216.658 83.721 M167.644 93.980 C 167.645 94.791,167.691 95.093,167.746 94.652 C 167.800 94.210,167.799 93.547,167.743 93.177 C 167.687 92.808,167.642 93.170,167.644 93.980 M182.386 93.304 C 184.523 93.345,187.951 93.345,190.003 93.304 C 192.055 93.263,190.307 93.230,186.118 93.230 C 181.929 93.230,180.250 93.263,182.386 93.304 M216.646 93.303 C 217.761 93.349,219.585 93.349,220.700 93.303 C 221.815 93.258,220.903 93.220,218.673 93.220 C 216.443 93.220,215.531 93.258,216.646 93.303 M189.792 105.713 L 188.821 106.757 189.865 105.786 C 190.836 104.882,191.022 104.668,190.836 104.668 C 190.796 104.668,190.326 105.138,189.792 105.713 M233.108 112.956 C 233.682 113.008,234.622 113.008,235.197 112.956 C 235.771 112.905,235.301 112.862,234.152 112.862 C 233.004 112.862,232.534 112.905,233.108 112.956 M284.454 112.954 C 284.890 113.008,285.664 113.009,286.174 112.956 C 286.684 112.903,286.327 112.858,285.381 112.857 C 284.435 112.856,284.018 112.899,284.454 112.954 M236.609 113.117 C 236.609 113.169,236.935 113.260,237.333 113.318 C 237.732 113.377,238.002 113.334,237.933 113.223 C 237.811 113.026,236.609 112.930,236.609 113.117 M145.864 113.677 C 145.637 113.905,145.657 143.925,145.885 144.065 C 145.986 144.128,146.069 137.279,146.069 128.846 C 146.069 120.413,146.060 113.514,146.048 113.514 C 146.037 113.514,145.954 113.587,145.864 113.677 M164.372 116.144 C 164.305 117.523,164.338 118.563,164.445 118.456 C 164.551 118.348,164.606 117.220,164.566 115.948 L 164.493 113.636 164.372 116.144 M169.403 128.870 C 169.403 137.248,169.434 140.711,169.472 136.566 C 169.509 132.420,169.509 125.565,169.472 121.332 C 169.434 117.099,169.403 120.491,169.403 128.870 M251.221 128.870 C 251.221 137.248,251.252 140.711,251.290 136.566 C 251.328 132.420,251.328 125.565,251.290 121.332 C 251.252 117.099,251.221 120.491,251.221 128.870 M233.354 118.114 C 233.793 118.168,234.512 118.168,234.951 118.114 C 235.390 118.059,235.031 118.015,234.152 118.015 C 233.274 118.015,232.915 118.059,233.354 118.114 M284.954 118.110 C 285.259 118.169,285.702 118.166,285.937 118.105 C 286.171 118.043,285.921 117.995,285.381 117.998 C 284.840 118.001,284.648 118.051,284.954 118.110 M151.204 122.236 C 151.204 124.263,151.242 125.059,151.288 124.006 C 151.335 122.952,151.334 121.294,151.288 120.320 C 151.241 119.347,151.204 120.209,151.204 122.236 M190.990 123.710 C 190.991 124.656,191.035 125.013,191.088 124.503 C 191.142 123.993,191.141 123.219,191.086 122.783 C 191.032 122.347,190.989 122.764,190.990 123.710 M151.206 135.135 C 151.206 137.365,151.243 138.277,151.288 137.162 C 151.334 136.047,151.334 134.223,151.288 133.108 C 151.243 131.993,151.206 132.905,151.206 135.135 M125.983 132.859 C 126.692 132.909,127.853 132.909,128.563 132.859 C 129.272 132.810,128.692 132.769,127.273 132.769 C 125.854 132.769,125.273 132.810,125.983 132.859 M291.574 135.394 C 291.651 135.995,291.754 136.533,291.803 136.589 C 292.003 136.819,291.867 134.985,291.659 134.657 C 291.514 134.426,291.484 134.687,291.574 135.394 M241.139 136.916 L 240.418 137.715 241.216 136.993 C 241.655 136.596,242.015 136.237,242.015 136.195 C 242.015 136.005,241.812 136.172,241.139 136.916 M233.354 139.735 C 233.793 139.790,234.512 139.790,234.951 139.735 C 235.390 139.681,235.031 139.636,234.152 139.636 C 233.274 139.636,232.915 139.681,233.354 139.735 M285.565 139.734 C 285.937 139.790,286.545 139.790,286.916 139.734 C 287.288 139.677,286.984 139.631,286.241 139.631 C 285.498 139.631,285.193 139.677,285.565 139.734 M237.224 144.472 L 236.486 144.659 237.148 144.688 C 237.511 144.704,237.877 144.607,237.961 144.472 C 238.044 144.337,238.078 144.239,238.037 144.255 C 237.995 144.271,237.629 144.369,237.224 144.472 M232.993 144.898 C 233.639 144.949,234.634 144.949,235.204 144.897 C 235.774 144.845,235.246 144.804,234.029 144.805 C 232.813 144.805,232.347 144.848,232.993 144.898 M284.951 144.897 C 285.525 144.949,286.465 144.949,287.039 144.897 C 287.614 144.846,287.144 144.803,285.995 144.803 C 284.846 144.803,284.377 144.846,284.951 144.897 " stroke="none" fill="#fcd8fc" fill-rule="evenodd"></path><path id="path4" d="M174.598 78.088 C 174.529 78.199,174.799 78.242,175.197 78.183 C 175.596 78.125,175.921 78.034,175.921 77.982 C 175.921 77.795,174.719 77.891,174.598 78.088 M126.627 81.081 C 126.627 82.500,126.667 83.080,126.717 82.371 C 126.766 81.662,126.766 80.501,126.717 79.791 C 126.667 79.082,126.627 79.662,126.627 81.081 M107.919 93.904 C 107.888 102.241,107.945 109.113,108.047 109.176 C 108.214 109.279,108.211 98.127,108.041 84.152 C 108.005 81.179,107.950 85.568,107.919 93.904 M162.251 81.081 C 162.251 82.365,162.292 82.890,162.343 82.248 C 162.393 81.606,162.393 80.556,162.343 79.914 C 162.292 79.272,162.251 79.797,162.251 81.081 M208.902 93.904 C 208.871 102.241,208.928 109.113,209.029 109.176 C 209.197 109.279,209.194 98.127,209.024 84.152 C 208.988 81.179,208.933 85.568,208.902 93.904 M241.392 91.400 C 241.392 98.360,241.423 101.207,241.462 97.727 C 241.500 94.248,241.500 88.553,241.462 85.074 C 241.423 81.594,241.392 84.441,241.392 91.400 M153.923 96.314 C 153.923 103.274,153.954 106.121,153.992 102.641 C 154.031 99.162,154.031 93.467,153.992 89.988 C 153.954 86.508,153.923 89.355,153.923 96.314 M225.865 88.452 C 225.865 89.060,225.913 89.309,225.972 89.005 C 226.030 88.701,226.030 88.203,225.972 87.899 C 225.913 87.595,225.865 87.844,225.865 88.452 M116.646 91.584 C 118.302 91.627,121.010 91.627,122.666 91.584 C 124.321 91.542,122.967 91.507,119.656 91.507 C 116.345 91.507,114.991 91.542,116.646 91.584 M178.219 95.577 C 178.219 96.726,178.261 97.196,178.313 96.622 C 178.364 96.047,178.364 95.107,178.313 94.533 C 178.261 93.959,178.219 94.429,178.219 95.577 M253.896 106.757 C 253.895 107.973,253.936 108.501,253.988 107.931 C 254.039 107.361,254.040 106.366,253.989 105.720 C 253.938 105.074,253.896 105.541,253.896 106.757 M177.703 110.009 C 178.345 110.059,179.395 110.059,180.037 110.009 C 180.679 109.958,180.154 109.917,178.870 109.917 C 177.586 109.917,177.061 109.958,177.703 110.009 M230.774 112.946 C 231.010 113.008,231.397 113.008,231.634 112.946 C 231.870 112.884,231.677 112.833,231.204 112.833 C 230.731 112.833,230.537 112.884,230.774 112.946 M123.049 113.452 C 124.983 113.493,128.079 113.493,129.929 113.451 C 131.779 113.410,130.197 113.376,126.413 113.376 C 122.629 113.376,121.115 113.410,123.049 113.452 M150.799 113.452 C 153.265 113.492,157.300 113.492,159.767 113.452 C 162.233 113.412,160.215 113.379,155.283 113.379 C 150.350 113.379,148.332 113.412,150.799 113.452 M172.774 113.451 C 174.489 113.493,177.364 113.494,179.162 113.452 C 180.961 113.410,179.558 113.375,176.044 113.375 C 172.531 113.375,171.059 113.409,172.774 113.451 M201.658 113.450 C 202.503 113.498,203.885 113.498,204.730 113.450 C 205.574 113.402,204.883 113.362,203.194 113.362 C 201.505 113.362,200.814 113.402,201.658 113.450 M252.641 113.448 C 253.283 113.499,254.334 113.499,254.975 113.448 C 255.617 113.398,255.092 113.356,253.808 113.356 C 252.525 113.356,251.999 113.398,252.641 113.448 M269.349 113.449 C 270.126 113.498,271.397 113.498,272.174 113.449 C 272.951 113.401,272.316 113.361,270.762 113.361 C 269.208 113.361,268.572 113.401,269.349 113.449 M164.618 116.144 C 164.551 117.523,164.584 118.563,164.690 118.456 C 164.797 118.348,164.852 117.220,164.812 115.948 L 164.739 113.636 164.618 116.144 M169.157 128.870 C 169.157 137.248,169.188 140.711,169.226 136.566 C 169.264 132.420,169.264 125.565,169.226 121.332 C 169.188 117.099,169.157 120.491,169.157 128.870 M250.975 128.870 C 250.975 137.248,251.006 140.711,251.044 136.566 C 251.082 132.420,251.082 125.565,251.044 121.332 C 251.006 117.099,250.976 120.491,250.975 128.870 M174.797 123.587 C 174.797 126.357,174.832 127.491,174.876 126.106 C 174.920 124.721,174.920 122.454,174.876 121.069 C 174.832 119.684,174.797 120.817,174.797 123.587 M154.238 125.982 C 155.894 126.025,158.603 126.025,160.258 125.982 C 161.913 125.940,160.559 125.905,157.248 125.905 C 153.937 125.905,152.583 125.940,154.238 125.982 M128.624 128.010 L 124.693 128.152 128.548 128.204 C 130.911 128.235,132.462 128.160,132.555 128.010 C 132.639 127.875,132.673 127.787,132.631 127.816 C 132.589 127.845,130.786 127.932,128.624 128.010 M203.071 132.924 L 198.649 133.064 202.995 133.117 C 205.687 133.149,207.400 133.076,207.494 132.924 C 207.577 132.789,207.612 132.702,207.570 132.731 C 207.528 132.760,205.504 132.847,203.071 132.924 M174.797 139.066 C 174.797 141.837,174.832 142.970,174.876 141.585 C 174.920 140.200,174.920 137.933,174.876 136.548 C 174.832 135.163,174.797 136.296,174.797 139.066 M240.894 136.916 L 240.172 137.715 240.971 136.993 C 241.410 136.596,241.769 136.237,241.769 136.195 C 241.769 136.005,241.566 136.172,240.894 136.916 M164.953 141.769 C 164.953 143.053,164.995 143.578,165.045 142.936 C 165.096 142.294,165.096 141.244,165.045 140.602 C 164.995 139.960,164.953 140.485,164.953 141.769 M120.831 144.407 C 121.545 144.457,122.651 144.457,123.288 144.406 C 123.926 144.356,123.342 144.315,121.990 144.316 C 120.639 144.316,120.117 144.358,120.831 144.407 M138.022 144.407 C 138.732 144.457,139.893 144.457,140.602 144.407 C 141.311 144.358,140.731 144.317,139.312 144.317 C 137.893 144.317,137.313 144.358,138.022 144.407 M150.937 144.410 C 153.480 144.450,157.571 144.450,160.028 144.410 C 162.486 144.370,160.405 144.337,155.405 144.337 C 150.405 144.337,148.395 144.370,150.937 144.410 M170.823 144.407 C 171.465 144.457,172.515 144.457,173.157 144.407 C 173.799 144.356,173.274 144.315,171.990 144.315 C 170.706 144.315,170.181 144.356,170.823 144.407 M190.602 144.407 C 191.311 144.457,192.472 144.457,193.182 144.407 C 193.891 144.358,193.311 144.317,191.892 144.317 C 190.473 144.317,189.893 144.358,190.602 144.407 M213.093 144.408 C 213.874 144.457,215.091 144.456,215.795 144.407 C 216.500 144.357,215.860 144.317,214.373 144.318 C 212.887 144.319,212.311 144.359,213.093 144.408 M252.641 144.407 C 253.283 144.457,254.334 144.457,254.975 144.407 C 255.617 144.356,255.092 144.315,253.808 144.315 C 252.525 144.315,251.999 144.356,252.641 144.407 M269.840 144.408 C 270.617 144.456,271.889 144.456,272.666 144.408 C 273.443 144.359,272.807 144.319,271.253 144.319 C 269.699 144.319,269.063 144.359,269.840 144.408 " stroke="none" fill="#fcecfc" fill-rule="evenodd"></path><path id="path5" d="M130.825 78.686 C 130.761 78.854,130.737 85.792,130.772 94.103 L 130.836 109.214 130.958 93.796 C 131.026 85.316,131.050 78.378,131.012 78.378 C 130.974 78.378,130.890 78.517,130.825 78.686 M162.074 92.926 C 161.991 93.236,161.934 93.765,161.947 94.103 C 161.961 94.465,162.058 94.270,162.184 93.627 C 162.410 92.477,162.330 91.970,162.074 92.926 M194.177 94.840 C 194.177 95.584,194.223 95.888,194.279 95.516 C 194.335 95.144,194.335 94.536,194.279 94.165 C 194.223 93.793,194.177 94.097,194.177 94.840 M193.914 97.052 C 193.914 97.525,193.965 97.718,194.027 97.482 C 194.089 97.245,194.089 96.858,194.027 96.622 C 193.965 96.385,193.914 96.579,193.914 97.052 M170.516 101.060 C 170.516 101.102,170.875 101.461,171.314 101.858 L 172.113 102.580 171.391 101.781 C 170.719 101.037,170.516 100.870,170.516 101.060 M244.410 104.115 C 246.066 104.157,248.775 104.157,250.430 104.115 C 252.085 104.072,250.731 104.037,247.420 104.037 C 244.109 104.037,242.755 104.072,244.410 104.115 M109.644 109.517 C 110.286 109.568,111.336 109.568,111.978 109.517 C 112.620 109.467,112.095 109.425,110.811 109.425 C 109.527 109.425,109.002 109.467,109.644 109.517 M132.740 109.517 C 133.381 109.568,134.432 109.568,135.074 109.517 C 135.716 109.467,135.190 109.425,133.907 109.425 C 132.623 109.425,132.098 109.467,132.740 109.517 M149.824 109.518 C 150.538 109.568,151.644 109.567,152.281 109.517 C 152.918 109.466,152.334 109.426,150.983 109.426 C 149.631 109.427,149.110 109.468,149.824 109.518 M199.816 109.517 C 200.458 109.568,201.508 109.568,202.150 109.517 C 202.792 109.467,202.267 109.425,200.983 109.425 C 199.699 109.425,199.174 109.467,199.816 109.517 M210.758 109.518 C 211.472 109.568,212.577 109.567,213.215 109.517 C 213.852 109.466,213.268 109.426,211.916 109.426 C 210.565 109.427,210.044 109.468,210.758 109.518 M228.194 109.518 C 228.904 109.567,230.064 109.567,230.774 109.518 C 231.483 109.468,230.903 109.428,229.484 109.428 C 228.065 109.428,227.485 109.468,228.194 109.518 M240.463 109.520 C 242.786 109.561,246.655 109.561,249.063 109.521 C 251.470 109.480,249.570 109.447,244.840 109.447 C 240.111 109.447,238.141 109.480,240.463 109.520 M175.491 109.997 C 175.728 110.059,176.115 110.059,176.351 109.997 C 176.588 109.936,176.394 109.885,175.921 109.885 C 175.448 109.885,175.255 109.936,175.491 109.997 M181.388 109.997 C 181.625 110.059,182.012 110.059,182.248 109.997 C 182.485 109.936,182.291 109.885,181.818 109.885 C 181.345 109.885,181.152 109.936,181.388 109.997 M145.570 128.870 C 145.570 137.383,145.601 140.830,145.639 136.530 C 145.676 132.230,145.676 125.264,145.639 121.051 C 145.601 116.838,145.570 120.356,145.570 128.870 M118.789 128.870 C 118.789 137.248,118.820 140.711,118.857 136.566 C 118.895 132.420,118.895 125.565,118.857 121.332 C 118.820 117.099,118.789 120.491,118.789 128.870 M124.673 123.342 C 124.673 125.977,124.709 127.055,124.753 125.737 C 124.797 124.420,124.797 122.264,124.753 120.946 C 124.709 119.628,124.673 120.706,124.673 123.342 M135.697 123.464 C 135.699 124.140,135.746 124.387,135.803 124.014 C 135.859 123.640,135.858 123.088,135.799 122.785 C 135.741 122.483,135.695 122.789,135.697 123.464 M185.328 123.710 C 185.330 124.386,185.378 124.633,185.434 124.260 C 185.491 123.886,185.489 123.333,185.431 123.031 C 185.373 122.729,185.326 123.034,185.328 123.710 M163.389 128.451 L 163.511 131.081 163.583 128.646 C 163.623 127.306,163.568 126.123,163.461 126.016 C 163.355 125.909,163.322 127.005,163.389 128.451 M223.412 128.870 C 223.414 129.545,223.461 129.793,223.518 129.419 C 223.574 129.046,223.573 128.493,223.514 128.191 C 223.456 127.889,223.410 128.194,223.412 128.870 M176.463 128.683 C 177.370 128.730,178.918 128.731,179.903 128.684 C 180.889 128.637,180.147 128.599,178.256 128.598 C 176.364 128.598,175.557 128.636,176.463 128.683 M124.675 138.452 C 124.676 141.560,124.711 142.798,124.754 141.202 C 124.796 139.607,124.796 137.064,124.753 135.551 C 124.710 134.039,124.675 135.344,124.675 138.452 M176.720 134.089 C 177.767 134.135,179.481 134.135,180.528 134.089 C 181.576 134.043,180.719 134.006,178.624 134.006 C 176.529 134.006,175.673 134.043,176.720 134.089 " stroke="none" fill="#fcf4fc" fill-rule="evenodd"></path><path id="path6" d="M198.091 93.904 C 198.060 102.241,198.117 109.113,198.219 109.176 C 198.386 109.279,198.383 98.127,198.213 84.152 C 198.177 81.179,198.122 85.568,198.091 93.904 M235.683 93.904 C 235.652 102.241,235.709 109.113,235.811 109.176 C 235.978 109.279,235.976 98.127,235.805 84.152 C 235.769 81.179,235.714 85.568,235.683 93.904 M177.580 83.224 C 178.019 83.279,178.738 83.279,179.177 83.224 C 179.616 83.170,179.257 83.125,178.378 83.125 C 177.500 83.125,177.141 83.170,177.580 83.224 M113.613 87.592 C 113.613 89.754,113.651 90.606,113.696 89.485 C 113.742 88.363,113.742 86.594,113.696 85.553 C 113.650 84.513,113.613 85.430,113.613 87.592 M148.272 96.437 C 148.272 103.464,148.303 106.304,148.341 102.747 C 148.380 99.190,148.380 93.441,148.341 89.970 C 148.303 86.500,148.271 89.410,148.272 96.437 M153.677 96.437 C 153.677 103.464,153.708 106.304,153.747 102.747 C 153.785 99.190,153.785 93.441,153.747 89.970 C 153.708 86.500,153.677 89.410,153.677 96.437 M214.599 88.452 C 214.599 91.087,214.635 92.165,214.679 90.848 C 214.724 89.530,214.724 87.374,214.679 86.057 C 214.635 84.739,214.599 85.817,214.599 88.452 M231.517 88.452 C 231.517 89.060,231.564 89.309,231.623 89.005 C 231.682 88.701,231.682 88.203,231.623 87.899 C 231.564 87.595,231.517 87.844,231.517 88.452 M126.133 94.103 C 126.133 95.387,126.174 95.912,126.225 95.270 C 126.275 94.628,126.275 93.578,126.225 92.936 C 126.174 92.294,126.133 92.819,126.133 94.103 M193.928 94.717 C 193.930 95.393,193.977 95.640,194.034 95.267 C 194.090 94.893,194.089 94.341,194.030 94.038 C 193.972 93.736,193.926 94.042,193.928 94.717 M113.620 102.948 C 113.620 106.394,113.655 107.804,113.697 106.081 C 113.739 104.358,113.739 101.539,113.697 99.816 C 113.655 98.093,113.620 99.502,113.620 102.948 M180.221 97.958 C 184.461 98.134,188.397 98.142,188.292 97.973 C 188.229 97.872,186.000 97.811,183.339 97.838 C 180.678 97.864,179.275 97.919,180.221 97.958 M214.607 98.102 C 214.540 98.274,214.519 100.844,214.558 103.814 L 214.629 109.214 214.686 103.633 L 214.742 98.052 217.260 97.972 L 219.779 97.892 217.253 97.841 C 215.394 97.802,214.695 97.871,214.607 98.102 M119.034 128.870 C 119.034 137.248,119.065 140.711,119.103 136.566 C 119.141 132.420,119.141 125.565,119.103 121.332 C 119.065 117.099,119.034 120.491,119.034 128.870 M256.618 120.147 C 256.618 123.729,256.653 125.193,256.695 123.403 C 256.737 121.612,256.737 118.682,256.695 116.892 C 256.653 115.101,256.618 116.566,256.618 120.147 M256.568 137.285 L 256.626 144.103 256.695 137.381 C 256.761 131.044,256.789 130.678,257.191 130.993 C 257.576 131.295,257.584 131.286,257.279 130.897 C 256.581 130.006,256.512 130.620,256.568 137.285 " stroke="none" fill="#fce4fc" fill-rule="evenodd"></path><path id="path7" d="" stroke="none" fill="#100fcfc" fill-rule="evenodd"></path><path id="path8" d="" stroke="none" fill="#100fcfc" fill-rule="evenodd"></path></g></svg>