<svg id="svg" version="1.1" xmlns="http://www.w3.org/2000/svg" xmlns:xlink="http://www.w3.org/1999/xlink" width="400" height="69.33333333333333" viewBox="0, 0, 400,69.33333333333333"><g id="svgg"><path id="path0" d="M37.083 3.106 C 28.302 4.046,23.905 5.190,20.860 7.329 C 19.350 8.390,19.292 8.592,20.256 9.464 C 21.592 10.673,22.525 11.065,23.291 10.738 C 25.631 9.738,28.132 9.111,32.917 8.326 C 37.043 7.648,47.512 7.649,50.417 8.326 C 50.783 8.412,51.496 8.527,52.000 8.583 C 52.504 8.638,53.179 8.748,53.500 8.827 C 53.821 8.906,54.646 9.098,55.333 9.253 C 56.588 9.537,58.793 10.213,59.417 10.504 C 60.701 11.104,61.412 10.919,62.958 9.585 C 63.860 8.807,63.848 8.522,62.877 7.667 C 60.739 5.784,56.030 4.310,49.250 3.401 C 47.480 3.164,38.565 2.947,37.083 3.106 M59.250 21.749 C 58.700 21.961,57.087 22.561,55.667 23.084 C 51.747 24.524,51.948 24.330,53.333 25.333 C 54.571 26.230,54.604 25.988,52.910 28.395 C 51.430 30.498,50.177 32.301,47.917 35.577 C 47.183 36.640,45.968 38.389,45.216 39.463 C 44.463 40.538,43.652 41.698,43.413 42.042 C 42.872 42.820,42.724 42.819,41.723 42.033 C 40.880 41.370,35.291 37.128,32.000 34.653 C 29.736 32.950,30.045 32.908,28.532 35.129 C 26.726 37.780,25.842 39.053,25.614 39.333 C 25.502 39.471,25.176 39.967,24.888 40.435 C 24.600 40.904,23.833 42.029,23.184 42.935 C 22.534 43.842,21.929 44.696,21.838 44.833 C 21.748 44.971,20.978 46.075,20.129 47.288 C 19.279 48.501,18.192 50.056,17.714 50.745 L 16.844 51.997 16.833 55.790 C 16.827 57.876,16.824 59.644,16.828 59.719 C 16.831 59.793,17.182 59.343,17.609 58.719 C 18.036 58.094,18.875 56.871,19.475 56.000 C 20.587 54.384,21.114 53.618,23.284 50.452 C 23.962 49.464,25.095 47.851,25.800 46.869 C 26.506 45.887,27.444 44.558,27.885 43.917 C 29.504 41.558,30.626 39.974,30.798 39.802 C 30.978 39.622,31.899 40.261,36.433 43.714 C 41.193 47.339,43.660 49.167,43.793 49.167 C 43.871 49.167,44.381 48.523,44.926 47.737 C 45.471 46.951,46.315 45.743,46.802 45.053 C 48.022 43.326,50.624 39.576,51.234 38.667 C 51.511 38.254,51.816 37.827,51.911 37.717 C 52.006 37.607,52.496 36.907,53.000 36.163 C 53.504 35.418,54.482 34.008,55.173 33.029 C 55.864 32.051,56.764 30.745,57.173 30.127 C 58.053 28.798,57.987 28.810,59.231 29.750 C 59.771 30.158,60.265 30.459,60.328 30.420 C 60.494 30.318,60.551 21.330,60.387 21.349 C 60.311 21.358,59.800 21.538,59.250 21.749 " stroke="none" fill="#f2f7fb" fill-rule="evenodd"></path><path id="path1" d="M35.938 8.261 C 30.261 8.755,22.127 10.696,23.254 11.287 C 30.645 15.167,52.684 15.169,60.075 11.290 C 60.356 11.142,60.236 11.055,59.205 10.659 C 53.640 8.522,44.164 7.545,35.938 8.261 M82.500 34.504 L 82.500 52.342 85.042 52.296 L 87.583 52.250 87.668 39.083 C 87.715 31.842,87.771 26.048,87.793 26.208 C 87.815 26.369,87.907 26.500,87.997 26.500 C 88.087 26.500,88.207 26.688,88.265 26.917 C 88.322 27.146,88.436 27.333,88.518 27.333 C 88.600 27.333,88.667 27.446,88.667 27.583 C 88.667 27.721,88.742 27.833,88.833 27.833 C 88.925 27.833,89.000 27.940,89.000 28.071 C 89.000 28.202,89.103 28.412,89.228 28.538 C 89.353 28.663,89.514 28.950,89.585 29.174 C 89.656 29.399,89.849 29.700,90.013 29.843 C 90.177 29.986,90.362 30.305,90.424 30.552 C 90.485 30.798,90.595 31.000,90.667 31.000 C 90.738 31.000,90.844 31.188,90.902 31.417 C 90.959 31.646,91.080 31.833,91.170 31.833 C 91.260 31.833,91.333 31.946,91.333 32.083 C 91.333 32.221,91.408 32.333,91.500 32.333 C 91.592 32.333,91.667 32.473,91.667 32.644 C 91.667 32.815,91.800 33.134,91.963 33.353 C 92.126 33.571,92.369 33.975,92.504 34.250 C 92.639 34.525,92.844 34.849,92.958 34.970 C 93.073 35.091,93.167 35.298,93.167 35.429 C 93.167 35.560,93.234 35.667,93.315 35.667 C 93.397 35.667,93.507 35.837,93.559 36.045 C 93.611 36.253,93.804 36.584,93.987 36.781 C 94.170 36.977,94.369 37.332,94.428 37.569 C 94.487 37.806,94.595 38.000,94.667 38.000 C 94.738 38.000,94.844 38.188,94.902 38.417 C 94.959 38.646,95.080 38.833,95.170 38.833 C 95.260 38.833,95.333 38.946,95.333 39.083 C 95.333 39.221,95.390 39.335,95.458 39.337 C 95.527 39.339,95.771 39.750,96.000 40.250 C 96.229 40.750,96.473 41.161,96.542 41.163 C 96.610 41.165,96.667 41.279,96.667 41.417 C 96.667 41.554,96.740 41.667,96.830 41.667 C 96.920 41.667,97.041 41.854,97.098 42.083 C 97.156 42.313,97.264 42.500,97.338 42.500 C 97.413 42.500,97.523 42.728,97.585 43.006 C 97.768 43.840,99.333 44.340,99.333 43.564 C 99.333 43.437,99.408 43.333,99.500 43.333 C 99.592 43.333,99.667 43.226,99.667 43.095 C 99.667 42.964,99.769 42.755,99.895 42.629 C 100.020 42.504,100.179 42.223,100.248 42.005 C 100.318 41.787,100.518 41.455,100.694 41.266 C 100.869 41.078,101.056 40.753,101.108 40.545 C 101.160 40.337,101.270 40.167,101.351 40.167 C 101.433 40.167,101.500 40.060,101.500 39.929 C 101.500 39.798,101.594 39.590,101.708 39.467 C 102.033 39.119,102.500 38.225,102.500 37.950 C 102.500 37.814,102.612 37.659,102.750 37.606 C 102.888 37.554,103.000 37.396,103.000 37.255 C 103.000 37.115,103.075 37.000,103.167 37.000 C 103.258 37.000,103.333 36.850,103.333 36.667 C 103.333 36.483,103.408 36.333,103.500 36.333 C 103.592 36.333,103.667 36.230,103.667 36.104 C 103.667 35.977,103.774 35.785,103.906 35.676 C 104.038 35.566,104.194 35.257,104.253 34.988 C 104.312 34.720,104.429 34.500,104.513 34.500 C 104.598 34.500,104.667 34.387,104.667 34.250 C 104.667 34.112,104.740 34.000,104.830 34.000 C 104.920 34.000,105.041 33.813,105.098 33.583 C 105.156 33.354,105.262 33.167,105.333 33.167 C 105.405 33.167,105.511 32.979,105.568 32.750 C 105.626 32.521,105.747 32.333,105.837 32.333 C 105.926 32.333,106.000 32.221,106.000 32.083 C 106.000 31.946,106.069 31.833,106.153 31.833 C 106.238 31.833,106.356 31.608,106.417 31.333 C 106.477 31.058,106.594 30.833,106.677 30.833 C 106.759 30.833,106.874 30.646,106.932 30.417 C 106.989 30.188,107.103 30.000,107.185 30.000 C 107.266 30.000,107.333 29.887,107.333 29.750 C 107.333 29.613,107.400 29.500,107.482 29.500 C 107.564 29.500,107.678 29.313,107.735 29.083 C 107.793 28.854,107.907 28.667,107.990 28.667 C 108.073 28.667,108.190 28.442,108.250 28.167 C 108.310 27.892,108.429 27.667,108.513 27.667 C 108.598 27.667,108.667 27.525,108.667 27.351 C 108.667 27.178,108.779 26.992,108.917 26.940 C 109.054 26.887,109.167 26.729,109.167 26.589 C 109.167 26.448,109.236 26.333,109.322 26.333 C 109.407 26.333,109.509 26.165,109.549 25.958 C 109.589 25.752,109.631 31.602,109.644 38.958 L 109.667 52.333 112.083 52.333 L 114.500 52.333 114.500 34.500 L 114.500 16.667 111.750 16.667 C 109.417 16.667,109.000 16.705,109.000 16.917 C 109.000 17.054,108.934 17.167,108.853 17.167 C 108.772 17.167,108.661 17.298,108.608 17.458 C 108.497 17.788,108.140 18.374,107.972 18.502 C 107.910 18.548,107.807 18.798,107.742 19.057 C 107.677 19.316,107.446 19.706,107.228 19.923 C 107.011 20.140,106.833 20.472,106.833 20.659 C 106.833 20.847,106.770 21.000,106.693 21.000 C 106.617 21.000,106.410 21.299,106.235 21.665 C 106.060 22.030,105.869 22.330,105.810 22.331 C 105.751 22.332,105.656 22.521,105.598 22.750 C 105.541 22.979,105.426 23.167,105.343 23.167 C 105.261 23.167,105.144 23.392,105.083 23.667 C 105.023 23.942,104.904 24.167,104.820 24.167 C 104.736 24.167,104.667 24.279,104.667 24.417 C 104.667 24.554,104.593 24.667,104.503 24.667 C 104.413 24.667,104.293 24.854,104.235 25.083 C 104.178 25.313,104.072 25.500,104.000 25.500 C 103.928 25.500,103.821 25.694,103.761 25.931 C 103.702 26.168,103.503 26.523,103.320 26.719 C 103.137 26.916,102.944 27.247,102.892 27.455 C 102.840 27.663,102.738 27.833,102.667 27.833 C 102.595 27.833,102.489 28.021,102.432 28.250 C 102.374 28.479,102.253 28.667,102.163 28.667 C 102.074 28.667,102.000 28.779,102.000 28.917 C 102.000 29.054,101.928 29.167,101.841 29.167 C 101.753 29.167,101.634 29.424,101.575 29.738 C 101.516 30.053,101.362 30.351,101.234 30.400 C 101.105 30.449,101.000 30.604,101.000 30.745 C 101.000 30.885,100.925 31.000,100.833 31.000 C 100.742 31.000,100.667 31.150,100.667 31.333 C 100.667 31.517,100.605 31.667,100.530 31.667 C 100.399 31.667,99.667 32.996,99.667 33.234 C 99.667 33.296,99.514 33.511,99.327 33.712 C 99.140 33.913,98.944 34.247,98.892 34.455 C 98.767 34.954,98.532 34.936,98.402 34.417 C 98.344 34.188,98.230 34.000,98.149 34.000 C 98.067 34.000,98.000 33.887,98.000 33.750 C 98.000 33.612,97.925 33.500,97.833 33.500 C 97.742 33.500,97.667 33.393,97.667 33.262 C 97.667 33.131,97.564 32.921,97.439 32.796 C 97.313 32.670,97.153 32.384,97.081 32.159 C 97.010 31.934,96.818 31.633,96.654 31.490 C 96.490 31.347,96.305 31.028,96.243 30.782 C 96.181 30.535,96.072 30.333,96.000 30.333 C 95.928 30.333,95.822 30.146,95.765 29.917 C 95.707 29.688,95.587 29.500,95.497 29.500 C 95.407 29.500,95.333 29.387,95.333 29.250 C 95.333 29.113,95.258 29.000,95.167 29.000 C 95.075 29.000,95.000 28.860,95.000 28.689 C 95.000 28.518,94.867 28.199,94.704 27.981 C 94.541 27.762,94.297 27.358,94.162 27.083 C 94.027 26.808,93.823 26.484,93.708 26.363 C 93.594 26.242,93.500 26.036,93.500 25.905 C 93.500 25.774,93.433 25.667,93.351 25.667 C 93.270 25.667,93.160 25.496,93.108 25.288 C 93.056 25.080,92.863 24.749,92.680 24.553 C 92.497 24.356,92.298 24.001,92.239 23.764 C 92.179 23.527,92.072 23.333,92.000 23.333 C 91.928 23.333,91.822 23.146,91.765 22.917 C 91.707 22.688,91.587 22.500,91.497 22.500 C 91.407 22.500,91.333 22.387,91.333 22.250 C 91.333 22.113,91.277 21.998,91.208 21.997 C 91.140 21.995,90.896 21.584,90.667 21.083 C 90.438 20.583,90.194 20.172,90.125 20.170 C 90.056 20.168,90.000 20.054,90.000 19.917 C 90.000 19.779,89.926 19.667,89.837 19.667 C 89.747 19.667,89.626 19.479,89.568 19.250 C 89.511 19.021,89.403 18.833,89.329 18.833 C 89.254 18.833,89.144 18.608,89.083 18.334 C 89.023 18.059,88.840 17.740,88.677 17.625 C 88.514 17.511,88.328 17.248,88.263 17.042 C 88.146 16.672,88.103 16.667,85.322 16.667 L 82.500 16.667 82.500 34.504 M132.333 20.500 C 132.196 20.589,131.690 20.663,131.208 20.664 C 130.727 20.666,130.333 20.732,130.333 20.812 C 130.333 20.892,129.883 21.008,129.333 21.070 C 128.783 21.132,128.333 21.254,128.333 21.342 C 128.333 21.429,128.221 21.500,128.084 21.500 C 127.753 21.500,126.500 22.048,126.500 22.193 C 126.500 22.255,126.275 22.356,126.000 22.417 C 125.725 22.477,125.500 22.590,125.500 22.669 C 125.500 22.747,125.331 22.864,125.125 22.929 C 124.919 22.994,124.629 23.187,124.480 23.357 C 124.332 23.527,124.152 23.667,124.081 23.667 C 123.881 23.667,121.241 26.378,121.119 26.708 C 121.059 26.869,120.933 27.000,120.839 27.000 C 120.744 27.000,120.667 27.142,120.667 27.316 C 120.667 27.489,120.554 27.674,120.417 27.727 C 120.279 27.780,120.167 27.938,120.167 28.078 C 120.167 28.218,120.100 28.333,120.019 28.333 C 119.937 28.333,119.821 28.596,119.761 28.917 C 119.701 29.238,119.580 29.500,119.492 29.500 C 119.405 29.500,119.333 29.613,119.333 29.750 C 119.333 29.887,119.258 30.000,119.167 30.000 C 119.075 30.000,119.000 30.134,119.000 30.297 C 119.000 30.461,118.850 31.022,118.667 31.543 C 118.483 32.065,118.333 32.752,118.333 33.069 C 118.333 33.387,118.258 33.693,118.167 33.750 C 117.961 33.877,117.938 39.667,118.143 39.667 C 118.222 39.667,118.334 40.128,118.393 40.691 C 118.452 41.255,118.568 41.799,118.652 41.900 C 118.735 42.001,118.856 42.365,118.920 42.708 C 118.985 43.052,119.104 43.333,119.185 43.333 C 119.267 43.333,119.333 43.446,119.333 43.583 C 119.333 43.721,119.405 43.833,119.492 43.833 C 119.580 43.833,119.701 44.096,119.761 44.417 C 119.821 44.737,119.928 45.000,119.999 45.000 C 120.070 45.000,120.172 45.131,120.226 45.292 C 120.365 45.707,120.714 46.227,120.958 46.383 C 121.073 46.457,121.167 46.598,121.167 46.697 C 121.167 46.845,121.834 47.587,123.105 48.852 C 123.879 49.623,124.333 50.000,124.487 50.000 C 124.586 50.000,124.667 50.070,124.667 50.155 C 124.667 50.241,124.832 50.363,125.034 50.427 C 125.236 50.492,125.504 50.647,125.629 50.772 C 125.755 50.897,125.964 51.000,126.095 51.000 C 126.226 51.000,126.333 51.075,126.333 51.167 C 126.333 51.258,126.446 51.333,126.583 51.333 C 126.721 51.333,126.833 51.402,126.833 51.485 C 126.833 51.569,127.133 51.688,127.500 51.750 C 127.867 51.812,128.167 51.926,128.167 52.003 C 128.167 52.080,128.579 52.194,129.083 52.257 C 129.587 52.320,130.000 52.438,130.000 52.519 C 130.000 52.600,130.360 52.667,130.800 52.667 C 131.240 52.667,131.680 52.747,131.779 52.845 C 132.068 53.134,136.323 52.836,136.750 52.497 C 136.842 52.424,137.273 52.311,137.708 52.247 C 138.144 52.182,138.500 52.072,138.500 52.002 C 138.500 51.933,138.800 51.828,139.167 51.769 C 139.533 51.711,139.833 51.589,139.833 51.498 C 139.833 51.407,139.946 51.333,140.083 51.333 C 140.221 51.333,140.333 51.267,140.333 51.185 C 140.333 51.104,140.589 50.989,140.901 50.931 C 141.213 50.872,141.510 50.714,141.562 50.579 C 141.614 50.444,141.767 50.333,141.902 50.333 C 142.037 50.333,142.246 50.201,142.366 50.039 C 142.485 49.877,142.808 49.602,143.083 49.427 C 143.668 49.057,145.167 47.530,145.167 47.305 C 145.167 47.220,145.354 46.977,145.583 46.765 C 145.813 46.552,146.000 46.293,146.000 46.189 C 146.000 46.085,146.074 46.000,146.163 46.000 C 146.253 46.000,146.374 45.813,146.432 45.583 C 146.489 45.354,146.597 45.167,146.671 45.167 C 146.746 45.167,146.856 44.942,146.917 44.667 C 146.977 44.392,147.078 44.167,147.141 44.167 C 147.285 44.167,147.833 42.913,147.833 42.582 C 147.833 42.445,147.905 42.333,147.992 42.333 C 148.079 42.333,148.201 41.883,148.263 41.333 C 148.325 40.783,148.442 40.333,148.522 40.333 C 148.601 40.333,148.667 40.000,148.667 39.593 C 148.667 39.186,148.742 38.807,148.833 38.750 C 148.929 38.691,149.000 37.807,149.000 36.667 C 149.000 35.526,148.929 34.643,148.833 34.583 C 148.742 34.527,148.667 34.147,148.667 33.740 C 148.667 33.333,148.602 33.000,148.523 33.000 C 148.444 33.000,148.334 32.612,148.278 32.138 C 148.221 31.664,148.099 31.199,148.004 31.104 C 147.910 31.010,147.833 30.836,147.833 30.718 C 147.833 30.412,147.277 29.167,147.141 29.167 C 147.078 29.167,146.977 28.942,146.917 28.667 C 146.856 28.392,146.738 28.167,146.653 28.167 C 146.569 28.167,146.500 28.070,146.500 27.953 C 146.500 27.739,146.081 27.149,145.375 26.367 C 145.169 26.138,145.000 25.896,145.000 25.829 C 145.000 25.662,143.661 24.333,143.493 24.333 C 143.419 24.333,143.134 24.108,142.859 23.833 C 142.584 23.558,142.278 23.333,142.179 23.333 C 142.081 23.333,142.000 23.260,142.000 23.170 C 142.000 23.080,141.818 22.961,141.595 22.905 C 141.373 22.849,141.150 22.698,141.101 22.568 C 141.051 22.439,140.858 22.333,140.672 22.333 C 140.486 22.333,140.333 22.277,140.333 22.207 C 140.333 22.062,139.624 21.735,138.958 21.575 C 138.706 21.514,138.500 21.401,138.500 21.324 C 138.500 21.246,138.048 21.132,137.496 21.070 C 136.944 21.007,136.452 20.891,136.403 20.811 C 136.354 20.732,135.910 20.667,135.417 20.667 C 134.923 20.667,134.473 20.592,134.417 20.500 C 134.285 20.287,132.663 20.287,132.333 20.500 M255.833 20.492 C 255.696 20.585,255.189 20.663,254.706 20.664 C 254.224 20.666,253.699 20.738,253.539 20.825 C 253.380 20.912,252.894 21.029,252.458 21.085 C 252.023 21.141,251.667 21.248,251.667 21.322 C 251.667 21.397,251.367 21.505,251.000 21.564 C 250.633 21.623,250.333 21.745,250.333 21.835 C 250.333 21.926,250.183 22.000,250.000 22.000 C 249.817 22.000,249.667 22.067,249.667 22.149 C 249.667 22.230,249.473 22.346,249.236 22.405 C 248.792 22.517,248.596 22.646,247.893 23.292 C 247.669 23.498,247.414 23.667,247.328 23.667 C 247.152 23.667,244.667 26.069,244.667 26.239 C 244.667 26.299,244.479 26.550,244.250 26.797 C 244.021 27.044,243.833 27.309,243.833 27.384 C 243.833 27.460,243.652 27.761,243.430 28.053 C 243.208 28.345,242.974 28.790,242.912 29.042 C 242.849 29.294,242.731 29.500,242.651 29.500 C 242.570 29.500,242.456 29.800,242.397 30.167 C 242.339 30.533,242.225 30.833,242.145 30.833 C 242.065 30.833,242.000 31.021,242.000 31.250 C 242.000 31.479,241.930 31.667,241.843 31.667 C 241.757 31.667,241.635 32.192,241.572 32.833 C 241.509 33.475,241.392 34.000,241.312 34.000 C 241.232 34.000,241.167 35.200,241.167 36.667 C 241.167 38.133,241.232 39.333,241.312 39.333 C 241.392 39.333,241.509 39.858,241.572 40.500 C 241.635 41.142,241.757 41.667,241.843 41.667 C 241.930 41.667,242.000 41.854,242.000 42.083 C 242.000 42.313,242.065 42.500,242.145 42.500 C 242.225 42.500,242.339 42.800,242.397 43.167 C 242.456 43.533,242.578 43.833,242.669 43.833 C 242.759 43.833,242.833 43.916,242.833 44.016 C 242.833 44.326,243.386 45.409,243.616 45.550 C 243.736 45.623,243.833 45.760,243.833 45.853 C 243.833 46.337,246.936 49.667,247.388 49.667 C 247.529 49.667,247.691 49.813,247.747 49.991 C 247.804 50.170,248.015 50.368,248.217 50.431 C 248.418 50.493,248.621 50.591,248.667 50.647 C 248.820 50.836,249.857 51.333,250.097 51.333 C 250.227 51.333,250.333 51.405,250.333 51.492 C 250.333 51.580,250.615 51.703,250.958 51.766 C 251.302 51.830,251.626 51.948,251.679 52.028 C 251.732 52.109,252.163 52.221,252.638 52.278 C 253.112 52.334,253.500 52.444,253.500 52.523 C 253.500 52.602,253.860 52.667,254.300 52.667 C 254.740 52.667,255.180 52.747,255.278 52.845 C 255.555 53.122,260.667 52.798,260.667 52.504 C 260.667 52.431,261.079 52.320,261.583 52.257 C 262.087 52.194,262.500 52.083,262.500 52.009 C 262.500 51.936,262.800 51.828,263.167 51.769 C 263.533 51.711,263.833 51.589,263.833 51.498 C 263.833 51.407,263.946 51.333,264.083 51.333 C 264.221 51.333,264.333 51.258,264.333 51.167 C 264.333 51.075,264.469 51.000,264.634 51.000 C 265.042 51.000,266.509 49.924,267.540 48.868 C 267.655 48.750,268.031 48.375,268.375 48.035 C 268.718 47.695,269.000 47.321,269.000 47.203 C 269.000 47.086,269.112 46.946,269.250 46.894 C 269.387 46.841,269.500 46.699,269.500 46.577 C 269.500 46.456,269.597 46.258,269.715 46.137 C 270.004 45.840,270.500 44.764,270.500 44.433 C 270.500 44.287,270.568 44.167,270.651 44.167 C 270.734 44.167,270.854 43.792,270.917 43.333 C 270.980 42.875,271.092 42.500,271.166 42.500 C 271.469 42.500,271.825 36.925,271.540 36.640 C 271.380 36.480,256.746 36.431,256.490 36.590 C 256.239 36.744,256.289 40.665,256.542 40.675 C 256.656 40.680,259.065 40.677,261.895 40.667 L 267.040 40.650 266.921 41.450 C 266.855 41.890,266.739 42.288,266.664 42.335 C 266.588 42.382,266.475 42.626,266.412 42.877 C 266.349 43.128,266.249 43.333,266.189 43.333 C 266.130 43.333,265.978 43.567,265.851 43.853 C 265.467 44.721,263.469 46.628,262.625 46.933 C 262.465 46.991,262.333 47.105,262.333 47.186 C 262.333 47.267,262.152 47.333,261.931 47.333 C 261.709 47.333,261.501 47.413,261.469 47.511 C 261.436 47.608,261.074 47.732,260.663 47.786 C 260.253 47.839,259.865 47.962,259.803 48.058 C 259.631 48.323,254.572 48.306,254.307 48.040 C 254.193 47.926,253.909 47.833,253.675 47.832 C 253.441 47.832,253.035 47.719,252.773 47.582 C 252.510 47.445,252.191 47.333,252.064 47.333 C 251.937 47.333,251.833 47.264,251.833 47.180 C 251.833 47.096,251.608 46.977,251.333 46.917 C 251.058 46.856,250.833 46.743,250.833 46.665 C 250.833 46.586,250.678 46.473,250.489 46.413 C 250.046 46.273,247.892 44.116,247.751 43.671 C 247.692 43.485,247.574 43.333,247.489 43.333 C 247.403 43.333,247.333 43.221,247.333 43.083 C 247.333 42.946,247.258 42.833,247.167 42.833 C 247.075 42.833,246.997 42.740,246.994 42.625 C 246.991 42.510,246.844 42.117,246.667 41.750 C 246.490 41.383,246.342 40.957,246.339 40.802 C 246.336 40.646,246.258 40.473,246.167 40.417 C 246.075 40.360,246.000 40.099,246.000 39.837 C 246.000 39.575,245.922 39.335,245.827 39.303 C 245.593 39.225,245.596 34.107,245.830 34.029 C 245.923 33.998,246.000 33.758,246.000 33.496 C 246.000 33.234,246.075 32.973,246.167 32.917 C 246.258 32.860,246.336 32.687,246.339 32.532 C 246.342 32.377,246.490 31.950,246.667 31.583 C 246.844 31.217,246.991 30.823,246.994 30.708 C 246.997 30.594,247.075 30.500,247.167 30.500 C 247.258 30.500,247.333 30.387,247.333 30.250 C 247.333 30.113,247.403 30.000,247.489 30.000 C 247.574 30.000,247.694 29.842,247.756 29.649 C 247.892 29.220,250.083 27.049,250.519 26.911 C 250.692 26.856,250.833 26.747,250.833 26.669 C 250.833 26.590,251.058 26.477,251.333 26.417 C 251.608 26.356,251.833 26.238,251.833 26.153 C 251.833 26.069,251.946 26.000,252.083 26.000 C 252.221 26.000,252.333 25.932,252.333 25.849 C 252.333 25.766,252.727 25.645,253.208 25.580 C 253.690 25.516,254.182 25.383,254.303 25.285 C 254.595 25.048,259.161 25.055,259.309 25.293 C 259.368 25.389,259.773 25.521,260.208 25.586 C 260.644 25.651,261.000 25.771,261.000 25.852 C 261.000 25.934,261.112 26.000,261.250 26.000 C 261.387 26.000,261.500 26.069,261.500 26.153 C 261.500 26.238,261.725 26.356,262.000 26.417 C 262.275 26.477,262.500 26.590,262.500 26.669 C 262.500 26.747,262.658 26.861,262.851 26.922 C 263.300 27.065,265.167 28.953,265.167 29.265 C 265.167 29.394,265.238 29.500,265.324 29.500 C 265.411 29.500,265.583 29.706,265.707 29.958 C 265.928 30.410,266.724 30.570,266.986 30.215 C 267.122 30.031,267.694 29.676,268.042 29.559 C 268.202 29.505,268.333 29.403,268.333 29.332 C 268.333 29.261,268.521 29.156,268.750 29.098 C 268.979 29.041,269.167 28.920,269.167 28.830 C 269.167 28.740,269.279 28.667,269.417 28.667 C 269.920 28.667,269.658 27.392,269.016 26.715 C 268.824 26.513,268.667 26.300,268.667 26.242 C 268.667 25.908,265.251 22.833,264.880 22.833 C 264.763 22.833,264.667 22.758,264.667 22.667 C 264.667 22.575,264.560 22.500,264.429 22.500 C 264.298 22.500,264.091 22.401,263.970 22.280 C 263.849 22.158,263.375 21.921,262.917 21.751 C 262.458 21.581,262.003 21.383,261.906 21.310 C 261.808 21.237,261.302 21.127,260.781 21.065 C 260.260 21.004,259.833 20.896,259.833 20.825 C 259.833 20.754,259.402 20.654,258.875 20.601 C 258.348 20.549,257.504 20.465,257.000 20.415 C 256.490 20.364,255.972 20.398,255.833 20.492 M152.333 36.755 L 152.333 52.343 154.625 52.296 L 156.917 52.250 156.960 46.458 L 157.004 40.667 159.752 40.667 C 161.263 40.667,162.500 40.734,162.500 40.815 C 162.500 40.897,162.688 41.011,162.917 41.068 C 163.146 41.126,163.333 41.247,163.333 41.337 C 163.333 41.426,163.432 41.500,163.553 41.500 C 163.673 41.500,163.944 41.805,164.153 42.179 C 164.363 42.552,164.632 42.894,164.751 42.940 C 164.870 42.986,165.016 43.280,165.075 43.595 C 165.134 43.909,165.245 44.167,165.323 44.167 C 165.400 44.167,165.507 44.337,165.559 44.545 C 165.611 44.753,165.797 45.078,165.973 45.266 C 166.149 45.455,166.349 45.791,166.419 46.013 C 166.488 46.235,166.591 46.454,166.647 46.500 C 166.704 46.546,166.893 46.865,167.068 47.208 C 167.243 47.552,167.449 47.833,167.526 47.833 C 167.603 47.833,167.667 47.912,167.667 48.009 C 167.667 48.334,168.340 49.667,168.504 49.667 C 168.594 49.667,168.667 49.817,168.667 50.000 C 168.667 50.183,168.736 50.333,168.820 50.333 C 168.904 50.333,169.023 50.558,169.083 50.833 C 169.144 51.108,169.262 51.333,169.347 51.333 C 169.431 51.333,169.500 51.440,169.500 51.571 C 169.500 52.219,169.941 52.333,172.429 52.333 C 174.722 52.333,174.833 52.318,174.833 52.000 C 174.833 51.817,174.760 51.667,174.670 51.667 C 174.580 51.667,174.459 51.479,174.402 51.250 C 174.344 51.021,174.230 50.833,174.149 50.833 C 174.067 50.833,174.000 50.721,174.000 50.583 C 174.000 50.446,173.925 50.333,173.833 50.333 C 173.742 50.333,173.667 50.226,173.667 50.095 C 173.667 49.964,173.564 49.755,173.439 49.629 C 173.313 49.504,173.155 49.217,173.086 48.992 C 173.017 48.767,172.783 48.345,172.564 48.053 C 172.345 47.761,172.167 47.405,172.167 47.261 C 172.167 47.118,172.100 47.000,172.018 47.000 C 171.936 47.000,171.827 46.830,171.775 46.622 C 171.722 46.414,171.530 46.083,171.347 45.886 C 171.163 45.689,170.965 45.335,170.905 45.098 C 170.846 44.861,170.738 44.667,170.667 44.667 C 170.595 44.667,170.493 44.496,170.441 44.288 C 170.389 44.080,170.196 43.749,170.013 43.553 C 169.830 43.356,169.631 43.001,169.572 42.764 C 169.513 42.527,169.405 42.333,169.333 42.333 C 169.262 42.333,169.156 42.146,169.098 41.917 C 169.041 41.688,168.920 41.500,168.830 41.500 C 168.740 41.500,168.667 41.387,168.667 41.250 C 168.667 41.112,168.610 41.000,168.541 41.000 C 167.944 41.000,168.103 39.852,168.739 39.576 C 169.112 39.413,169.477 39.180,169.550 39.057 C 169.623 38.934,169.758 38.833,169.849 38.833 C 170.020 38.833,170.368 38.578,170.716 38.198 C 170.827 38.078,171.123 37.784,171.375 37.545 C 171.627 37.307,171.833 37.011,171.833 36.889 C 171.833 36.767,171.903 36.667,171.989 36.667 C 172.074 36.667,172.196 36.504,172.259 36.304 C 172.322 36.105,172.515 35.791,172.687 35.606 C 172.859 35.422,173.000 35.191,173.001 35.094 C 173.002 34.996,173.122 34.692,173.269 34.417 C 173.415 34.142,173.575 33.448,173.624 32.875 C 173.673 32.302,173.777 31.833,173.856 31.833 C 173.935 31.833,174.000 31.383,174.000 30.833 C 174.000 30.283,173.936 29.833,173.857 29.833 C 173.779 29.833,173.664 29.293,173.603 28.632 C 173.541 27.971,173.424 27.389,173.342 27.339 C 173.260 27.288,173.142 27.041,173.078 26.790 C 173.015 26.539,172.897 26.333,172.815 26.333 C 172.734 26.333,172.667 26.183,172.667 26.000 C 172.667 25.817,172.592 25.667,172.500 25.667 C 172.408 25.667,172.333 25.558,172.333 25.425 C 172.333 25.292,172.238 25.123,172.121 25.050 C 172.004 24.977,171.774 24.705,171.610 24.447 C 171.284 23.935,170.723 23.333,170.571 23.333 C 170.519 23.333,170.372 23.240,170.244 23.125 C 169.698 22.635,169.505 22.500,169.352 22.500 C 169.263 22.500,169.091 22.403,168.970 22.285 C 168.646 21.969,167.584 21.500,167.193 21.500 C 167.006 21.500,166.807 21.425,166.750 21.333 C 166.684 21.226,164.082 21.167,159.490 21.167 L 152.333 21.167 152.333 36.755 M177.500 36.750 L 177.500 52.333 179.750 52.333 L 182.000 52.333 182.000 41.417 C 182.000 31.232,182.061 29.714,182.426 30.862 C 182.548 31.247,182.691 31.453,183.292 32.107 C 183.498 32.331,183.667 32.627,183.667 32.763 C 183.667 32.899,183.772 33.051,183.902 33.101 C 184.031 33.150,184.182 33.373,184.238 33.595 C 184.294 33.818,184.413 34.000,184.503 34.000 C 184.593 34.000,184.667 34.112,184.667 34.250 C 184.667 34.387,184.737 34.500,184.822 34.500 C 184.908 34.500,185.030 34.665,185.094 34.867 C 185.158 35.069,185.313 35.337,185.439 35.462 C 185.564 35.588,185.667 35.793,185.667 35.917 C 185.667 36.042,185.817 36.192,186.000 36.250 C 186.184 36.308,186.333 36.502,186.333 36.683 C 186.333 36.863,186.439 37.051,186.568 37.101 C 186.698 37.150,186.849 37.373,186.905 37.595 C 186.961 37.818,187.080 38.000,187.170 38.000 C 187.260 38.000,187.333 38.112,187.333 38.250 C 187.333 38.387,187.408 38.500,187.500 38.500 C 187.592 38.500,187.667 38.607,187.667 38.738 C 187.667 38.869,187.769 39.079,187.895 39.204 C 188.020 39.330,188.175 39.597,188.239 39.799 C 188.303 40.001,188.426 40.167,188.511 40.167 C 188.597 40.167,188.667 40.273,188.667 40.403 C 188.667 40.533,188.723 40.664,188.792 40.694 C 188.977 40.777,189.667 41.794,189.667 41.984 C 189.667 42.074,189.806 42.246,189.976 42.366 C 190.146 42.485,190.339 42.752,190.404 42.958 C 190.469 43.165,190.584 43.333,190.660 43.333 C 190.735 43.333,190.844 43.521,190.902 43.750 C 190.959 43.979,191.080 44.167,191.170 44.167 C 191.260 44.167,191.333 44.279,191.333 44.417 C 191.333 44.554,191.407 44.667,191.497 44.667 C 191.587 44.667,191.706 44.849,191.762 45.071 C 191.818 45.294,191.969 45.516,192.098 45.566 C 192.228 45.616,192.333 45.767,192.333 45.902 C 192.333 46.037,192.473 46.246,192.643 46.366 C 192.813 46.485,193.005 46.752,193.071 46.958 C 193.136 47.165,193.251 47.333,193.326 47.333 C 193.402 47.333,193.511 47.521,193.568 47.750 C 193.626 47.979,193.747 48.167,193.837 48.167 C 193.926 48.167,194.000 48.279,194.000 48.417 C 194.000 48.554,194.074 48.667,194.163 48.667 C 194.253 48.667,194.373 48.849,194.429 49.071 C 194.484 49.294,194.636 49.516,194.765 49.566 C 194.894 49.616,195.000 49.767,195.000 49.902 C 195.000 50.037,195.139 50.246,195.309 50.366 C 195.480 50.485,195.672 50.752,195.737 50.958 C 195.802 51.165,195.926 51.333,196.011 51.333 C 196.097 51.333,196.167 51.440,196.167 51.571 C 196.167 52.173,196.643 52.333,198.429 52.333 L 200.167 52.333 200.167 36.750 L 200.167 21.167 197.917 21.167 L 195.667 21.167 195.667 32.000 C 195.667 37.958,195.624 42.833,195.571 42.833 C 195.392 42.833,195.044 42.401,194.927 42.034 C 194.863 41.832,194.741 41.667,194.655 41.667 C 194.570 41.667,194.500 41.552,194.500 41.411 C 194.500 41.271,194.387 41.113,194.250 41.060 C 194.112 41.008,194.000 40.830,194.000 40.667 C 194.000 40.503,193.887 40.326,193.750 40.273 C 193.612 40.220,193.500 40.062,193.500 39.922 C 193.500 39.782,193.430 39.667,193.345 39.667 C 193.259 39.667,193.136 39.498,193.071 39.292 C 193.006 39.085,192.813 38.795,192.643 38.647 C 192.473 38.499,192.333 38.318,192.333 38.245 C 192.333 38.065,191.288 36.430,191.128 36.361 C 191.058 36.331,191.000 36.197,191.000 36.064 C 191.000 35.931,190.894 35.782,190.765 35.733 C 190.636 35.683,190.484 35.460,190.429 35.238 C 190.373 35.015,190.253 34.833,190.163 34.833 C 190.074 34.833,190.000 34.721,190.000 34.583 C 190.000 34.446,189.926 34.333,189.837 34.333 C 189.747 34.333,189.626 34.146,189.568 33.917 C 189.511 33.688,189.414 33.500,189.353 33.500 C 189.292 33.500,189.101 33.237,188.928 32.917 C 188.756 32.596,188.551 32.333,188.474 32.333 C 188.397 32.333,188.333 32.218,188.333 32.078 C 188.333 31.938,188.221 31.780,188.083 31.727 C 187.946 31.674,187.833 31.487,187.833 31.310 C 187.833 31.134,187.721 30.946,187.583 30.894 C 187.446 30.841,187.333 30.693,187.333 30.566 C 187.333 30.438,187.260 30.333,187.170 30.333 C 187.080 30.333,186.959 30.146,186.902 29.917 C 186.844 29.688,186.735 29.500,186.660 29.500 C 186.584 29.500,186.469 29.331,186.404 29.125 C 186.339 28.919,186.160 28.637,186.006 28.500 C 185.853 28.363,185.678 28.119,185.619 27.958 C 185.559 27.798,185.433 27.667,185.339 27.667 C 185.244 27.667,185.167 27.514,185.167 27.328 C 185.167 27.142,185.054 26.946,184.917 26.894 C 184.779 26.841,184.667 26.693,184.667 26.566 C 184.667 26.438,184.593 26.333,184.503 26.333 C 184.413 26.333,184.293 26.146,184.235 25.917 C 184.178 25.688,184.069 25.500,183.993 25.500 C 183.918 25.500,183.803 25.331,183.737 25.125 C 183.672 24.919,183.480 24.629,183.309 24.480 C 183.139 24.332,183.000 24.124,183.000 24.017 C 183.000 23.910,182.887 23.780,182.750 23.727 C 182.612 23.674,182.500 23.487,182.500 23.310 C 182.500 23.134,182.387 22.946,182.250 22.894 C 182.112 22.841,182.000 22.693,182.000 22.566 C 182.000 22.438,181.930 22.333,181.845 22.333 C 181.759 22.333,181.637 22.168,181.573 21.966 C 181.345 21.248,181.110 21.167,179.262 21.167 L 177.500 21.167 177.500 36.750 M205.167 36.750 L 205.167 52.333 207.417 52.333 L 209.667 52.333 209.667 36.750 L 209.667 21.167 207.417 21.167 L 205.167 21.167 205.167 36.750 M214.833 36.750 L 214.833 52.333 217.083 52.333 L 219.333 52.333 219.333 41.333 C 219.333 34.111,219.391 30.333,219.500 30.333 C 219.592 30.333,219.667 30.448,219.667 30.589 C 219.667 30.729,219.779 30.887,219.917 30.940 C 220.054 30.992,220.167 31.180,220.167 31.356 C 220.167 31.533,220.279 31.720,220.417 31.773 C 220.554 31.826,220.667 31.973,220.667 32.101 C 220.667 32.229,220.740 32.333,220.830 32.333 C 220.920 32.333,221.041 32.521,221.098 32.750 C 221.156 32.979,221.265 33.167,221.340 33.167 C 221.416 33.167,221.531 33.335,221.596 33.542 C 221.661 33.748,221.840 34.029,221.994 34.167 C 222.147 34.304,222.322 34.548,222.381 34.708 C 222.441 34.869,222.567 35.000,222.661 35.000 C 222.756 35.000,222.833 35.152,222.833 35.339 C 222.833 35.525,222.946 35.720,223.083 35.773 C 223.221 35.826,223.333 35.973,223.333 36.101 C 223.333 36.229,223.407 36.333,223.497 36.333 C 223.587 36.333,223.707 36.521,223.765 36.750 C 223.822 36.979,223.931 37.167,224.007 37.167 C 224.082 37.167,224.197 37.335,224.261 37.542 C 224.326 37.748,224.432 37.954,224.497 38.000 C 224.563 38.046,224.934 38.590,225.323 39.208 C 225.712 39.827,226.098 40.333,226.182 40.333 C 226.265 40.333,226.333 40.440,226.333 40.571 C 226.333 40.702,226.436 40.912,226.561 41.038 C 226.687 41.163,226.842 41.431,226.906 41.633 C 226.970 41.835,227.092 42.000,227.178 42.000 C 227.263 42.000,227.333 42.112,227.333 42.250 C 227.333 42.387,227.403 42.500,227.489 42.500 C 227.574 42.500,227.696 42.663,227.759 42.862 C 227.881 43.247,228.025 43.453,228.625 44.107 C 228.831 44.331,229.000 44.627,229.000 44.763 C 229.000 44.899,229.106 45.051,229.235 45.101 C 229.364 45.150,229.516 45.373,229.571 45.595 C 229.627 45.818,229.747 46.000,229.837 46.000 C 229.926 46.000,230.000 46.112,230.000 46.250 C 230.000 46.387,230.070 46.500,230.155 46.500 C 230.241 46.500,230.363 46.663,230.426 46.862 C 230.548 47.247,230.691 47.453,231.292 48.107 C 231.498 48.331,231.667 48.627,231.667 48.763 C 231.667 48.899,231.772 49.051,231.902 49.101 C 232.031 49.150,232.182 49.373,232.238 49.595 C 232.294 49.818,232.413 50.000,232.503 50.000 C 232.593 50.000,232.667 50.112,232.667 50.250 C 232.667 50.387,232.740 50.500,232.830 50.500 C 232.920 50.500,233.041 50.688,233.098 50.917 C 233.156 51.146,233.270 51.333,233.351 51.333 C 233.433 51.333,233.500 51.440,233.500 51.571 C 233.500 52.180,233.972 52.333,235.845 52.333 L 237.667 52.333 237.667 36.750 L 237.667 21.167 235.417 21.167 L 233.167 21.167 233.167 32.078 C 233.167 41.709,233.137 42.978,232.917 42.894 C 232.779 42.841,232.667 42.693,232.667 42.566 C 232.667 42.438,232.593 42.333,232.503 42.333 C 232.413 42.333,232.293 42.146,232.235 41.917 C 232.178 41.688,232.069 41.500,231.993 41.500 C 231.918 41.500,231.803 41.331,231.737 41.125 C 231.672 40.919,231.493 40.637,231.340 40.500 C 231.186 40.362,231.012 40.119,230.952 39.958 C 230.892 39.798,230.766 39.667,230.672 39.667 C 230.577 39.667,230.500 39.514,230.500 39.328 C 230.500 39.142,230.387 38.946,230.250 38.894 C 230.112 38.841,230.000 38.693,230.000 38.566 C 230.000 38.438,229.926 38.333,229.837 38.333 C 229.747 38.333,229.626 38.146,229.568 37.917 C 229.511 37.688,229.402 37.500,229.326 37.500 C 229.251 37.500,229.136 37.331,229.072 37.125 C 229.008 36.919,228.902 36.712,228.836 36.667 C 228.771 36.621,228.399 36.077,228.010 35.458 C 227.622 34.840,227.235 34.333,227.152 34.333 C 227.068 34.333,227.000 34.226,227.000 34.095 C 227.000 33.964,226.897 33.755,226.772 33.629 C 226.647 33.504,226.492 33.236,226.427 33.034 C 226.363 32.832,226.241 32.667,226.155 32.667 C 226.070 32.667,226.000 32.554,226.000 32.417 C 226.000 32.279,225.930 32.167,225.845 32.167 C 225.759 32.167,225.637 32.004,225.574 31.804 C 225.452 31.420,225.309 31.214,224.708 30.560 C 224.502 30.335,224.333 30.040,224.333 29.904 C 224.333 29.768,224.228 29.616,224.098 29.566 C 223.969 29.516,223.818 29.294,223.762 29.071 C 223.706 28.849,223.587 28.667,223.497 28.667 C 223.407 28.667,223.333 28.554,223.333 28.417 C 223.333 28.279,223.263 28.167,223.178 28.167 C 223.092 28.167,222.971 28.004,222.908 27.804 C 222.785 27.420,222.642 27.214,222.042 26.560 C 221.835 26.335,221.667 26.040,221.667 25.904 C 221.667 25.768,221.561 25.616,221.432 25.566 C 221.302 25.516,221.151 25.294,221.095 25.071 C 221.039 24.849,220.920 24.667,220.830 24.667 C 220.740 24.667,220.667 24.554,220.667 24.417 C 220.667 24.279,220.597 24.167,220.511 24.167 C 220.426 24.167,220.303 24.001,220.239 23.799 C 220.175 23.597,220.020 23.330,219.895 23.204 C 219.769 23.079,219.667 22.874,219.667 22.749 C 219.667 22.625,219.517 22.475,219.333 22.417 C 219.150 22.358,219.000 22.183,219.000 22.026 C 219.000 21.371,218.425 21.167,216.581 21.167 L 214.833 21.167 214.833 36.750 M135.833 25.326 C 135.879 25.396,136.273 25.506,136.708 25.570 C 137.144 25.635,137.501 25.739,137.502 25.802 C 137.502 25.865,137.840 26.065,138.252 26.246 C 138.663 26.427,139.000 26.633,139.000 26.704 C 139.000 26.775,139.123 26.833,139.274 26.833 C 139.424 26.833,139.762 27.058,140.025 27.333 C 140.288 27.608,140.577 27.833,140.668 27.833 C 140.879 27.833,141.500 28.450,141.500 28.659 C 141.500 28.747,141.688 29.006,141.917 29.235 C 142.146 29.464,142.333 29.725,142.333 29.814 C 142.333 29.903,142.428 30.075,142.543 30.196 C 142.658 30.318,142.902 30.735,143.085 31.123 C 143.267 31.512,143.464 31.830,143.523 31.831 C 143.581 31.832,143.682 32.190,143.747 32.625 C 143.813 33.060,143.952 33.470,144.058 33.536 C 144.324 33.700,144.326 39.521,144.061 39.849 C 143.956 39.978,143.818 40.402,143.754 40.792 C 143.690 41.181,143.586 41.500,143.523 41.500 C 143.460 41.500,143.260 41.837,143.079 42.248 C 142.898 42.660,142.694 42.998,142.625 42.998 C 142.556 42.999,142.500 43.123,142.500 43.274 C 142.500 43.424,142.275 43.762,142.000 44.025 C 141.725 44.288,141.500 44.577,141.500 44.668 C 141.500 44.897,140.980 45.394,140.356 45.763 C 140.069 45.933,139.833 46.129,139.833 46.198 C 139.833 46.268,139.496 46.479,139.083 46.667 C 138.671 46.855,138.333 47.081,138.333 47.171 C 138.333 47.260,138.146 47.333,137.917 47.333 C 137.688 47.333,137.500 47.405,137.500 47.492 C 137.500 47.580,137.219 47.698,136.875 47.754 C 136.531 47.811,136.072 47.945,135.854 48.052 C 135.332 48.307,131.022 48.305,130.863 48.049 C 130.801 47.948,130.394 47.813,129.958 47.747 C 129.523 47.682,129.167 47.562,129.167 47.481 C 129.167 47.400,129.054 47.333,128.917 47.333 C 128.779 47.333,128.667 47.264,128.667 47.180 C 128.667 47.096,128.442 46.977,128.167 46.917 C 127.892 46.856,127.667 46.743,127.667 46.665 C 127.667 46.586,127.509 46.472,127.315 46.411 C 126.922 46.286,124.667 44.090,124.667 43.832 C 124.667 43.741,124.597 43.667,124.511 43.667 C 124.426 43.667,124.303 43.501,124.239 43.299 C 124.175 43.097,124.020 42.830,123.895 42.704 C 123.769 42.579,123.667 42.369,123.667 42.238 C 123.667 42.107,123.592 42.000,123.500 42.000 C 123.408 42.000,123.333 41.813,123.333 41.583 C 123.333 41.354,123.265 41.167,123.181 41.167 C 123.098 41.167,122.976 40.848,122.911 40.458 C 122.846 40.069,122.712 39.699,122.614 39.637 C 122.356 39.473,122.362 34.117,122.622 33.804 C 122.730 33.674,122.869 33.252,122.931 32.867 C 122.992 32.482,123.108 32.167,123.188 32.167 C 123.268 32.167,123.333 32.060,123.333 31.930 C 123.333 31.691,123.831 30.654,124.019 30.500 C 124.076 30.454,124.174 30.248,124.239 30.042 C 124.303 29.835,124.426 29.667,124.511 29.667 C 124.597 29.667,124.667 29.592,124.667 29.501 C 124.667 29.243,126.922 27.047,127.315 26.922 C 127.509 26.861,127.667 26.747,127.667 26.669 C 127.667 26.590,127.892 26.477,128.167 26.417 C 128.442 26.356,128.667 26.238,128.667 26.153 C 128.667 26.069,128.779 26.000,128.917 26.000 C 129.054 26.000,129.167 25.932,129.167 25.849 C 129.167 25.766,129.542 25.646,130.000 25.583 C 130.458 25.520,130.833 25.405,130.833 25.326 C 130.833 25.017,135.632 25.017,135.833 25.326 M166.292 25.792 C 166.330 25.906,166.467 26.000,166.597 26.000 C 166.727 26.000,166.833 26.070,166.833 26.155 C 166.833 26.241,166.995 26.362,167.193 26.425 C 167.627 26.563,168.333 27.295,168.333 27.608 C 168.333 27.732,168.408 27.833,168.500 27.833 C 168.592 27.833,168.667 27.946,168.667 28.083 C 168.667 28.221,168.739 28.333,168.828 28.333 C 168.916 28.333,169.038 28.708,169.099 29.167 C 169.160 29.625,169.275 30.000,169.355 30.000 C 169.435 30.000,169.500 30.412,169.500 30.917 C 169.500 31.421,169.435 31.833,169.355 31.833 C 169.275 31.833,169.170 32.187,169.121 32.620 C 169.073 33.052,168.950 33.433,168.850 33.467 C 168.749 33.500,168.667 33.603,168.667 33.695 C 168.667 33.969,166.920 35.617,166.486 35.753 C 166.264 35.822,166.030 35.962,165.965 36.064 C 165.884 36.191,164.437 36.268,161.423 36.306 L 157.000 36.362 157.000 30.919 L 157.000 25.476 161.611 25.530 C 165.113 25.570,166.239 25.633,166.292 25.792 " stroke="none" fill="#231c23" fill-rule="evenodd"></path><path id="path2" d="M34.417 0.179 C 30.472 0.608,29.934 0.683,29.833 0.822 C 29.787 0.885,29.225 1.021,28.583 1.125 C 26.859 1.404,26.333 1.526,26.333 1.644 C 26.333 1.702,26.165 1.764,25.958 1.782 C 25.247 1.842,24.500 2.038,24.500 2.164 C 24.500 2.234,24.197 2.339,23.826 2.398 C 23.152 2.506,22.511 2.788,22.310 3.063 C 22.252 3.144,22.126 3.161,22.030 3.102 C 21.935 3.043,21.809 3.071,21.752 3.164 C 21.694 3.257,21.501 3.333,21.323 3.333 C 21.146 3.333,21.000 3.400,21.000 3.482 C 21.000 3.564,20.813 3.678,20.583 3.735 C 20.354 3.793,20.167 3.913,20.167 4.003 C 20.167 4.093,20.054 4.167,19.917 4.167 C 19.779 4.167,19.667 4.242,19.667 4.333 C 19.667 4.425,19.555 4.500,19.418 4.500 C 19.105 4.500,17.000 6.619,17.000 6.934 C 17.000 7.062,16.932 7.167,16.848 7.167 C 16.508 7.167,16.309 9.504,16.362 12.871 C 16.422 16.658,16.443 16.579,15.430 16.305 C 15.127 16.223,14.859 16.243,14.721 16.357 C 14.558 16.493,14.500 16.488,14.500 16.338 C 14.500 16.191,14.241 16.165,13.542 16.242 C 13.015 16.300,12.321 16.371,12.000 16.400 C 11.148 16.475,10.108 16.692,9.917 16.833 C 9.825 16.901,9.469 17.007,9.125 17.069 C 8.781 17.131,8.500 17.236,8.500 17.302 C 8.500 17.410,7.293 18.000,7.070 18.000 C 7.019 18.000,6.874 18.094,6.748 18.208 C 6.623 18.323,6.246 18.604,5.911 18.833 C 4.696 19.664,2.333 22.190,2.333 22.657 C 2.333 22.754,2.271 22.833,2.195 22.833 C 2.013 22.833,1.000 24.855,1.000 25.218 C 1.000 25.373,0.933 25.500,0.852 25.500 C 0.770 25.500,0.645 25.781,0.573 26.125 C 0.420 26.859,0.430 26.824,0.236 27.250 C 0.038 27.682,0.037 35.813,0.234 36.250 C 0.317 36.433,0.369 36.708,0.351 36.860 C 0.332 37.013,0.396 37.186,0.492 37.245 C 0.588 37.304,0.667 37.574,0.667 37.843 C 0.667 38.113,0.733 38.333,0.815 38.333 C 0.896 38.333,1.014 38.605,1.076 38.937 C 1.138 39.269,1.254 39.663,1.333 39.812 C 1.412 39.961,1.726 40.594,2.030 41.218 C 2.873 42.947,2.903 43.000,3.040 43.000 C 3.109 43.000,3.167 43.107,3.167 43.238 C 3.167 43.369,3.260 43.577,3.375 43.701 C 3.490 43.824,3.843 44.261,4.160 44.671 C 4.478 45.081,4.797 45.442,4.869 45.472 C 4.941 45.503,5.000 45.589,5.000 45.664 C 5.000 45.813,6.145 47.000,6.290 47.000 C 6.339 47.000,6.696 47.281,7.084 47.625 C 7.970 48.411,8.532 48.833,8.693 48.833 C 8.762 48.833,9.006 49.021,9.235 49.250 C 9.464 49.479,9.805 49.667,9.992 49.667 C 10.180 49.667,10.333 49.742,10.333 49.833 C 10.333 49.925,10.446 50.000,10.583 50.000 C 10.721 50.000,10.833 50.075,10.833 50.167 C 10.833 50.258,10.946 50.333,11.084 50.333 C 11.222 50.333,11.614 50.483,11.956 50.667 C 12.299 50.850,12.711 51.000,12.873 51.000 C 13.034 51.000,13.167 51.075,13.167 51.167 C 13.167 51.258,13.298 51.334,13.458 51.334 C 13.619 51.335,13.965 51.447,14.227 51.584 C 14.490 51.721,14.921 51.833,15.186 51.833 C 15.450 51.833,15.667 51.908,15.667 52.000 C 15.667 52.092,15.779 52.167,15.917 52.167 C 16.054 52.167,16.167 52.088,16.167 51.993 C 16.167 51.861,17.118 50.447,17.610 49.847 C 17.641 49.809,17.715 49.826,17.774 49.885 C 17.833 49.944,17.786 50.106,17.670 50.246 C 17.554 50.386,17.501 50.500,17.552 50.500 C 17.602 50.500,17.815 50.256,18.024 49.958 C 18.276 49.599,18.308 49.494,18.118 49.645 C 17.678 49.999,17.767 49.590,18.292 48.852 C 18.862 48.048,19.134 47.654,19.340 47.333 C 19.473 47.126,19.525 47.122,19.646 47.309 C 19.748 47.467,19.826 47.480,19.906 47.351 C 19.968 47.250,19.940 47.167,19.843 47.167 C 19.505 47.167,19.672 46.808,20.583 45.576 C 21.087 44.894,21.500 44.293,21.500 44.240 C 21.500 44.186,21.606 44.037,21.735 43.908 C 21.864 43.778,22.004 43.578,22.046 43.461 C 22.087 43.345,22.175 43.300,22.240 43.361 C 22.306 43.421,22.233 43.665,22.077 43.902 C 21.922 44.139,21.838 44.333,21.891 44.333 C 21.944 44.333,22.296 43.865,22.673 43.292 C 23.214 42.471,23.251 42.374,22.851 42.833 C 22.571 43.154,22.340 43.320,22.338 43.201 C 22.335 43.083,22.412 42.895,22.509 42.785 C 22.896 42.342,24.442 40.064,24.552 39.774 C 24.620 39.595,24.770 39.504,24.909 39.557 C 25.152 39.650,25.669 38.971,28.500 34.839 C 29.188 33.836,29.844 33.012,29.958 33.008 C 30.072 33.003,31.460 33.985,33.041 35.189 C 34.623 36.394,36.779 38.022,37.833 38.809 C 38.887 39.595,39.787 40.283,39.833 40.338 C 39.925 40.448,42.297 42.195,42.614 42.387 C 42.782 42.488,43.943 41.021,45.211 39.105 C 45.324 38.934,45.610 38.522,45.845 38.189 C 46.081 37.856,46.977 36.571,47.836 35.333 C 48.696 34.096,49.998 32.221,50.731 31.167 C 51.464 30.113,52.289 28.912,52.565 28.500 C 52.840 28.087,53.108 27.712,53.160 27.667 C 53.211 27.621,53.457 27.269,53.706 26.885 L 54.158 26.187 53.079 25.395 C 51.506 24.240,51.201 24.482,56.750 22.471 C 57.758 22.106,58.976 21.654,59.456 21.468 C 60.858 20.924,60.794 20.705,60.714 25.777 C 60.630 31.028,60.597 31.199,59.799 30.458 C 59.028 29.742,58.117 29.144,58.024 29.292 C 57.965 29.386,57.354 30.263,56.667 31.241 C 55.187 33.345,53.261 36.106,51.417 38.765 C 49.329 41.776,48.180 43.424,46.667 45.583 C 45.896 46.683,44.978 48.015,44.627 48.542 C 44.276 49.069,43.925 49.500,43.846 49.500 C 43.723 49.500,37.444 44.784,32.722 41.144 C 31.881 40.496,31.131 39.961,31.055 39.956 C 30.914 39.946,29.920 41.309,27.250 45.177 C 26.425 46.372,25.483 47.702,25.158 48.133 C 24.484 49.024,24.128 49.630,24.648 49.000 C 24.838 48.771,24.993 48.621,24.994 48.667 C 24.996 48.824,24.515 50.084,24.507 49.940 C 24.503 49.861,24.352 49.973,24.172 50.190 C 23.987 50.413,23.842 50.489,23.839 50.365 C 23.836 50.245,23.750 50.198,23.649 50.261 C 23.518 50.342,23.524 50.412,23.671 50.503 C 23.882 50.633,22.585 52.833,22.298 52.833 C 22.096 52.833,22.139 52.675,22.473 52.192 C 22.892 51.587,23.032 51.333,22.950 51.333 C 22.912 51.333,22.595 51.765,22.246 52.292 C 21.896 52.819,21.736 53.147,21.889 53.021 C 22.388 52.611,22.187 53.116,21.388 54.281 C 20.960 54.906,20.049 56.242,19.363 57.250 C 17.366 60.186,17.107 60.507,16.750 60.484 C 16.658 60.478,16.678 60.436,16.794 60.389 C 16.909 60.342,17.088 60.142,17.190 59.944 C 17.346 59.643,17.294 59.661,16.880 60.049 C 16.389 60.509,16.370 62.167,16.855 62.167 C 16.935 62.167,17.000 62.287,17.000 62.435 C 17.000 62.702,18.914 64.667,19.174 64.667 C 19.248 64.667,19.409 64.763,19.530 64.881 C 19.842 65.186,22.461 66.500,22.755 66.500 C 22.890 66.500,23.000 66.570,23.000 66.656 C 23.000 66.743,23.337 66.864,23.750 66.925 C 24.162 66.987,24.500 67.092,24.500 67.158 C 24.500 67.224,25.081 67.411,25.792 67.574 C 26.502 67.737,27.209 67.935,27.363 68.013 C 27.517 68.091,28.136 68.205,28.738 68.267 C 29.341 68.329,29.833 68.444,29.833 68.523 C 29.833 68.602,30.196 68.667,30.639 68.667 C 31.082 68.667,31.497 68.719,31.560 68.783 C 32.209 69.431,48.995 69.523,51.506 68.891 C 51.732 68.835,52.273 68.754,52.708 68.711 C 53.144 68.669,53.500 68.576,53.500 68.503 C 53.500 68.431,54.062 68.320,54.749 68.255 C 55.436 68.191,56.036 68.077,56.082 68.001 C 56.129 67.926,56.542 67.813,57.000 67.750 C 57.458 67.687,57.875 67.567,57.926 67.484 C 57.978 67.401,58.198 67.333,58.417 67.333 C 58.635 67.333,58.856 67.265,58.908 67.181 C 58.959 67.097,59.301 66.978,59.668 66.917 C 60.034 66.855,60.333 66.736,60.333 66.652 C 60.333 66.568,60.481 66.500,60.663 66.500 C 61.103 66.500,63.844 65.071,64.193 64.660 C 64.346 64.480,64.546 64.333,64.640 64.333 C 64.878 64.333,66.000 63.251,66.000 63.022 C 66.000 62.918,66.074 62.833,66.163 62.833 C 66.253 62.833,66.374 62.646,66.432 62.417 C 66.489 62.188,66.603 62.000,66.685 62.000 C 66.771 62.000,66.833 50.634,66.833 34.839 L 66.833 7.678 66.399 6.901 C 65.748 5.735,64.392 4.568,62.714 3.731 C 62.184 3.466,61.725 3.194,61.694 3.125 C 61.664 3.056,61.345 2.953,60.986 2.895 C 60.627 2.838,60.333 2.726,60.333 2.647 C 60.333 2.568,60.033 2.456,59.667 2.397 C 59.300 2.339,59.000 2.234,59.000 2.164 C 59.000 2.095,58.794 2.002,58.542 1.959 C 57.816 1.833,56.441 1.473,56.160 1.334 C 56.019 1.264,55.419 1.152,54.827 1.085 C 54.234 1.018,53.675 0.906,53.583 0.837 C 53.407 0.705,51.816 0.479,50.833 0.447 C 50.512 0.436,50.199 0.355,50.137 0.265 C 49.992 0.056,36.243 -0.019,34.417 0.179 M46.417 2.509 C 51.019 2.902,55.747 3.716,57.006 4.333 C 57.147 4.402,57.578 4.512,57.964 4.577 C 58.349 4.642,58.707 4.764,58.759 4.848 C 58.811 4.932,58.969 5.000,59.111 5.000 C 59.541 5.000,61.883 6.179,62.986 6.951 C 63.304 7.174,62.754 7.126,62.389 6.899 C 61.775 6.517,62.068 6.804,62.917 7.415 C 63.424 7.781,63.508 7.808,63.266 7.531 C 62.780 6.973,63.163 7.098,63.784 7.699 C 64.492 8.386,64.320 9.889,63.567 9.600 C 63.442 9.552,63.384 9.605,63.431 9.726 C 63.511 9.936,62.189 11.000,61.848 11.000 C 61.748 11.000,61.667 11.067,61.667 11.149 C 61.667 11.307,61.018 11.517,60.333 11.581 C 60.104 11.602,59.129 11.887,58.167 12.214 C 54.843 13.343,53.482 13.621,47.825 14.323 C 45.979 14.552,37.354 14.552,35.509 14.323 C 29.846 13.620,28.619 13.369,25.167 12.208 C 24.204 11.884,23.192 11.598,22.917 11.571 C 22.206 11.502,21.667 11.319,21.667 11.147 C 21.667 11.066,21.580 11.000,21.473 11.000 C 21.110 11.000,19.548 9.692,19.193 9.090 L 18.838 8.488 19.724 7.619 C 20.903 6.462,23.408 5.000,24.211 5.000 C 24.359 5.000,24.523 4.932,24.574 4.848 C 24.626 4.764,24.984 4.642,25.369 4.577 C 25.755 4.512,26.186 4.402,26.327 4.333 C 27.546 3.736,32.256 2.915,36.750 2.517 C 38.874 2.328,44.249 2.324,46.417 2.509 M40.042 2.791 C 40.935 2.821,42.398 2.821,43.292 2.791 C 44.185 2.761,43.454 2.736,41.667 2.736 C 39.879 2.736,39.148 2.761,40.042 2.791 M34.833 3.003 C 34.664 3.114,34.988 3.133,35.833 3.061 C 36.521 3.002,37.115 2.927,37.153 2.894 C 37.320 2.748,35.058 2.855,34.833 3.003 M46.181 2.894 C 46.219 2.928,46.850 2.998,47.583 3.050 C 48.384 3.107,48.750 3.089,48.500 3.005 C 48.095 2.871,46.041 2.772,46.181 2.894 M32.875 3.282 C 33.035 3.323,33.298 3.323,33.458 3.282 C 33.619 3.240,33.487 3.205,33.167 3.205 C 32.846 3.205,32.715 3.240,32.875 3.282 M49.875 3.282 C 50.035 3.323,50.298 3.323,50.458 3.282 C 50.619 3.240,50.487 3.205,50.167 3.205 C 49.846 3.205,49.715 3.240,49.875 3.282 M31.083 3.508 C 30.859 3.611,31.022 3.627,31.583 3.559 C 32.042 3.503,32.448 3.429,32.486 3.395 C 32.632 3.265,31.400 3.364,31.083 3.508 M50.847 3.393 C 50.885 3.427,51.254 3.503,51.667 3.563 C 52.191 3.639,52.341 3.621,52.167 3.505 C 51.942 3.355,50.680 3.249,50.847 3.393 M29.333 3.833 C 29.015 4.039,29.358 4.039,30.000 3.833 L 30.417 3.700 30.000 3.686 C 29.771 3.678,29.471 3.744,29.333 3.833 M53.333 3.833 C 53.903 4.016,54.341 4.016,53.917 3.833 C 53.733 3.755,53.433 3.692,53.250 3.695 C 52.982 3.699,52.998 3.726,53.333 3.833 M27.250 4.333 C 27.128 4.530,27.291 4.530,27.750 4.333 C 28.071 4.195,28.070 4.190,27.718 4.178 C 27.517 4.172,27.307 4.242,27.250 4.333 M55.583 4.333 C 56.042 4.530,56.205 4.530,56.083 4.333 C 56.027 4.242,55.816 4.172,55.615 4.178 C 55.263 4.190,55.262 4.195,55.583 4.333 M66.285 9.540 C 66.245 9.747,66.211 9.617,66.209 9.250 C 66.207 8.883,66.239 8.714,66.281 8.873 C 66.323 9.032,66.324 9.332,66.285 9.540 M65.686 10.708 C 65.499 11.006,65.136 11.412,64.881 11.611 C 64.626 11.809,64.236 12.128,64.016 12.319 C 63.796 12.510,63.521 12.667,63.405 12.667 C 63.289 12.667,63.169 12.723,63.139 12.792 C 63.044 13.005,61.838 13.560,61.721 13.443 C 61.661 13.383,61.736 13.333,61.889 13.333 C 62.042 13.333,62.167 13.258,62.167 13.167 C 62.167 13.075,62.267 13.000,62.391 13.000 C 63.077 13.000,65.808 10.605,65.846 9.969 C 65.857 9.802,65.880 9.799,65.944 9.958 C 65.990 10.072,65.874 10.410,65.686 10.708 M61.500 13.653 C 61.500 13.834,60.522 14.077,60.377 13.933 C 60.322 13.878,60.436 13.833,60.629 13.833 C 60.822 13.833,61.027 13.758,61.083 13.667 C 61.213 13.457,61.500 13.448,61.500 13.653 M57.833 15.000 C 57.833 15.092,57.679 15.167,57.490 15.167 C 57.301 15.167,57.193 15.092,57.250 15.000 C 57.307 14.908,57.461 14.833,57.593 14.833 C 57.725 14.833,57.833 14.908,57.833 15.000 M55.792 15.615 C 55.631 15.657,55.369 15.657,55.208 15.615 C 55.048 15.573,55.179 15.539,55.500 15.539 C 55.821 15.539,55.952 15.573,55.792 15.615 M54.500 15.833 C 54.174 16.044,53.833 16.044,53.833 15.833 C 53.833 15.742,54.040 15.668,54.292 15.669 C 54.649 15.671,54.695 15.707,54.500 15.833 M53.042 16.118 C 52.835 16.157,52.498 16.157,52.292 16.118 C 52.085 16.078,52.254 16.045,52.667 16.045 C 53.079 16.045,53.248 16.078,53.042 16.118 M51.583 16.333 C 51.646 16.435,51.405 16.499,50.968 16.497 C 50.443 16.496,50.317 16.451,50.500 16.333 C 50.827 16.122,51.453 16.122,51.583 16.333 M49.375 16.621 C 49.077 16.658,48.590 16.658,48.292 16.621 C 47.994 16.584,48.237 16.553,48.833 16.553 C 49.429 16.553,49.673 16.584,49.375 16.621 M287.104 17.188 C 286.878 18.316,286.987 51.752,287.218 52.067 C 287.498 52.450,304.164 52.425,304.292 52.042 C 304.330 51.927,304.550 51.833,304.780 51.833 C 305.186 51.833,306.330 51.383,306.500 51.156 C 306.546 51.095,306.768 50.987,306.993 50.917 C 307.218 50.846,307.668 50.536,307.993 50.228 C 308.318 49.920,308.704 49.628,308.851 49.580 C 308.998 49.532,309.258 49.232,309.430 48.913 C 309.602 48.594,309.789 48.333,309.846 48.333 C 310.007 48.333,311.000 46.674,311.000 46.406 C 311.000 46.274,311.059 46.167,311.130 46.167 C 311.677 46.167,312.045 40.000,311.559 38.983 C 311.453 38.763,311.235 38.283,311.074 37.917 C 310.456 36.512,308.906 34.651,308.156 34.413 C 307.979 34.357,307.833 34.241,307.833 34.155 C 307.833 34.070,307.721 34.000,307.583 34.000 C 307.193 34.000,307.289 33.597,307.792 33.126 C 308.189 32.754,308.865 31.992,309.320 31.404 C 309.397 31.305,309.515 31.043,309.583 30.821 C 309.652 30.598,309.761 30.342,309.826 30.250 C 310.506 29.297,310.737 24.720,310.170 23.417 C 309.586 22.072,309.500 21.858,309.500 21.755 C 309.500 21.693,309.406 21.540,309.292 21.415 C 309.177 21.289,308.896 20.914,308.667 20.581 C 308.144 19.820,307.712 19.364,307.017 18.833 C 306.717 18.604,306.371 18.323,306.248 18.208 C 306.124 18.094,305.943 18.000,305.845 18.000 C 305.747 18.000,305.667 17.931,305.667 17.847 C 305.667 17.762,305.442 17.644,305.167 17.583 C 304.892 17.523,304.667 17.410,304.667 17.332 C 304.667 17.254,304.253 17.139,303.748 17.076 C 303.242 17.013,302.788 16.895,302.738 16.814 C 302.687 16.732,299.213 16.667,294.928 16.667 L 287.208 16.667 287.104 17.188 M34.625 16.953 C 34.373 16.991,33.960 16.991,33.708 16.953 C 33.456 16.915,33.662 16.883,34.167 16.883 C 34.671 16.883,34.877 16.915,34.625 16.953 M44.386 16.958 C 42.902 16.986,40.427 16.986,38.886 16.958 C 37.344 16.931,38.558 16.908,41.583 16.908 C 44.608 16.908,45.869 16.930,44.386 16.958 M33.000 17.167 C 32.677 17.375,32.500 17.375,32.500 17.167 C 32.500 17.075,32.669 17.001,32.875 17.003 C 33.178 17.005,33.202 17.036,33.000 17.167 M31.495 17.625 C 31.488 17.765,30.301 18.356,30.209 18.265 C 30.145 18.200,31.176 17.536,31.375 17.514 C 31.444 17.506,31.498 17.556,31.495 17.625 M29.500 18.846 C 27.547 20.543,26.742 21.509,26.075 22.954 C 25.821 23.504,25.298 24.064,25.528 23.540 C 26.250 21.893,27.494 20.272,28.912 19.129 C 30.007 18.247,30.415 18.051,29.500 18.846 M359.876 21.294 C 359.790 21.521,359.825 21.709,360.249 23.250 C 360.400 23.800,360.564 24.456,360.614 24.708 C 360.664 24.960,360.764 25.167,360.836 25.167 C 360.908 25.167,361.020 25.617,361.083 26.167 C 361.147 26.717,361.267 27.209,361.350 27.260 C 361.432 27.311,361.500 27.490,361.500 27.657 C 361.500 27.996,361.955 29.602,362.168 30.017 C 362.244 30.164,362.359 30.652,362.424 31.101 C 362.489 31.549,362.601 31.992,362.672 32.083 C 362.744 32.175,362.855 32.607,362.920 33.044 C 362.985 33.480,363.105 33.878,363.186 33.929 C 363.267 33.979,363.333 34.240,363.333 34.510 C 363.333 34.779,363.403 35.000,363.488 35.000 C 363.573 35.000,363.694 35.412,363.757 35.917 C 363.820 36.421,363.929 36.833,364.000 36.833 C 364.071 36.833,364.180 37.245,364.242 37.747 C 364.305 38.250,364.426 38.705,364.512 38.757 C 364.597 38.810,364.667 39.032,364.667 39.250 C 364.667 39.468,364.733 39.688,364.814 39.738 C 364.895 39.788,365.013 40.242,365.076 40.748 C 365.139 41.253,365.244 41.667,365.309 41.667 C 365.418 41.667,365.702 42.773,365.941 44.125 C 365.993 44.423,366.095 44.667,366.166 44.667 C 366.237 44.667,366.346 45.079,366.409 45.583 C 366.472 46.087,366.585 46.500,366.659 46.500 C 366.734 46.500,366.846 46.911,366.909 47.414 C 366.972 47.917,367.093 48.371,367.178 48.424 C 367.264 48.477,367.333 48.740,367.333 49.010 C 367.333 49.279,367.399 49.500,367.479 49.500 C 367.558 49.500,367.674 49.882,367.736 50.348 C 367.798 50.814,367.915 51.320,367.996 51.473 C 368.076 51.625,368.183 51.881,368.233 52.042 C 368.313 52.302,368.582 52.333,370.705 52.333 C 373.406 52.333,373.378 52.347,373.589 50.939 C 373.653 50.512,373.771 50.122,373.853 50.071 C 373.934 50.021,374.000 49.802,374.000 49.583 C 374.000 49.365,374.068 49.144,374.151 49.093 C 374.234 49.042,374.354 48.625,374.417 48.167 C 374.480 47.709,374.591 47.297,374.663 47.252 C 374.736 47.207,374.847 46.821,374.911 46.394 C 374.975 45.967,375.090 45.497,375.165 45.351 C 375.379 44.935,375.833 43.330,375.833 42.991 C 375.833 42.823,375.900 42.645,375.981 42.595 C 376.062 42.545,376.181 42.155,376.245 41.728 C 376.309 41.300,376.423 40.831,376.499 40.684 C 376.712 40.269,377.167 38.663,377.167 38.324 C 377.167 38.157,377.235 37.978,377.318 37.926 C 377.401 37.875,377.520 37.458,377.583 37.000 C 377.646 36.542,377.766 36.125,377.849 36.074 C 377.932 36.022,378.000 35.764,378.000 35.500 C 378.000 35.236,378.073 34.975,378.162 34.920 C 378.251 34.865,378.373 34.448,378.433 33.993 C 378.494 33.539,378.603 33.167,378.676 33.167 C 378.749 33.167,378.861 32.754,378.924 32.250 C 378.987 31.746,379.096 31.333,379.167 31.333 C 379.238 31.333,379.338 31.127,379.391 30.875 C 379.715 29.318,379.971 28.450,380.041 28.667 C 380.238 29.278,380.535 30.462,380.615 30.958 C 380.664 31.256,380.763 31.500,380.836 31.500 C 380.909 31.500,381.022 31.894,381.086 32.375 C 381.151 32.856,381.262 33.325,381.333 33.417 C 381.452 33.571,381.734 34.622,381.948 35.708 C 381.997 35.960,382.095 36.167,382.164 36.167 C 382.234 36.167,382.340 36.539,382.400 36.993 C 382.460 37.448,382.573 37.859,382.650 37.906 C 382.726 37.954,382.839 38.366,382.900 38.823 C 382.960 39.279,383.082 39.698,383.171 39.753 C 383.261 39.808,383.333 40.074,383.333 40.343 C 383.333 40.613,383.403 40.833,383.488 40.833 C 383.573 40.833,383.694 41.247,383.757 41.752 C 383.821 42.258,383.939 42.712,384.019 42.762 C 384.100 42.812,384.167 42.990,384.167 43.157 C 384.167 43.496,384.621 45.102,384.835 45.517 C 384.910 45.664,385.025 46.134,385.089 46.561 C 385.153 46.988,385.264 47.374,385.337 47.419 C 385.409 47.464,385.520 47.875,385.583 48.333 C 385.646 48.791,385.766 49.208,385.849 49.260 C 385.932 49.311,386.000 49.536,386.000 49.760 C 386.000 49.984,386.065 50.167,386.145 50.167 C 386.225 50.167,386.342 50.559,386.406 51.038 C 386.578 52.338,386.570 52.333,389.090 52.333 C 391.603 52.333,391.833 52.284,391.833 51.742 C 391.833 51.528,391.900 51.312,391.981 51.262 C 392.061 51.212,392.179 50.758,392.243 50.252 C 392.306 49.747,392.427 49.333,392.512 49.333 C 392.597 49.333,392.667 49.113,392.667 48.843 C 392.667 48.574,392.735 48.311,392.818 48.260 C 392.901 48.208,393.020 47.791,393.083 47.333 C 393.146 46.875,393.259 46.463,393.333 46.417 C 393.408 46.371,393.520 45.958,393.583 45.500 C 393.646 45.042,393.766 44.625,393.849 44.574 C 393.932 44.522,394.000 44.264,394.000 44.000 C 394.000 43.736,394.068 43.478,394.151 43.426 C 394.234 43.375,394.354 42.958,394.417 42.500 C 394.480 42.042,394.592 41.629,394.667 41.583 C 394.741 41.537,394.855 41.106,394.920 40.625 C 394.985 40.144,395.085 39.675,395.143 39.583 C 395.350 39.253,395.660 38.236,395.765 37.540 C 395.824 37.149,395.933 36.791,396.008 36.745 C 396.082 36.699,396.195 36.250,396.258 35.747 C 396.320 35.245,396.438 34.833,396.519 34.833 C 396.600 34.833,396.667 34.613,396.667 34.343 C 396.667 34.074,396.736 33.810,396.822 33.757 C 396.907 33.705,397.028 33.250,397.091 32.747 C 397.154 32.245,397.266 31.833,397.341 31.833 C 397.415 31.833,397.528 31.421,397.591 30.917 C 397.654 30.412,397.771 30.000,397.853 30.000 C 397.934 30.000,398.000 29.738,398.000 29.417 C 398.000 29.096,398.070 28.833,398.155 28.833 C 398.240 28.833,398.361 28.421,398.424 27.917 C 398.487 27.412,398.599 27.000,398.674 27.000 C 398.748 27.000,398.861 26.587,398.924 26.081 C 398.987 25.576,399.105 25.121,399.186 25.071 C 399.267 25.021,399.333 24.812,399.333 24.607 C 399.333 24.401,399.400 24.162,399.481 24.075 C 399.629 23.917,400.000 22.007,400.000 21.403 C 400.000 21.102,399.879 21.087,397.891 21.139 C 395.624 21.199,395.333 21.304,395.333 22.062 C 395.333 22.292,395.267 22.521,395.186 22.571 C 395.105 22.621,394.987 23.075,394.924 23.579 C 394.862 24.082,394.746 24.535,394.667 24.583 C 394.588 24.632,394.472 25.084,394.409 25.588 C 394.346 26.092,394.228 26.545,394.147 26.595 C 394.066 26.645,394.000 26.865,394.000 27.083 C 394.000 27.302,393.930 27.523,393.845 27.576 C 393.760 27.629,393.639 28.083,393.576 28.586 C 393.513 29.089,393.404 29.500,393.333 29.500 C 393.263 29.500,393.152 29.925,393.087 30.443 C 393.022 30.962,392.908 31.506,392.833 31.652 C 392.598 32.111,392.167 33.689,392.167 34.093 C 392.167 34.306,392.102 34.521,392.022 34.570 C 391.942 34.619,391.826 35.042,391.764 35.511 C 391.702 35.979,391.587 36.487,391.508 36.640 C 391.244 37.148,390.833 38.699,390.833 39.186 C 390.833 39.450,390.764 39.667,390.679 39.667 C 390.594 39.667,390.472 40.079,390.409 40.583 C 390.346 41.087,390.237 41.500,390.166 41.500 C 390.095 41.500,389.997 41.744,389.949 42.042 C 389.785 43.053,389.487 44.249,389.327 44.539 C 389.239 44.699,389.162 44.999,389.156 45.206 C 389.150 45.422,389.036 45.228,388.888 44.750 C 388.746 44.292,388.588 43.804,388.536 43.667 C 388.485 43.529,388.350 43.042,388.238 42.583 C 388.125 42.125,387.908 41.300,387.755 40.750 C 387.602 40.200,387.436 39.544,387.386 39.292 C 387.336 39.040,387.238 38.833,387.167 38.833 C 387.096 38.833,386.987 38.421,386.924 37.917 C 386.861 37.412,386.749 37.000,386.676 37.000 C 386.603 37.000,386.494 36.628,386.433 36.174 C 386.373 35.719,386.251 35.302,386.162 35.247 C 386.073 35.192,386.000 34.931,386.000 34.667 C 386.000 34.402,385.932 34.144,385.849 34.093 C 385.766 34.042,385.646 33.625,385.583 33.167 C 385.520 32.709,385.408 32.296,385.333 32.250 C 385.259 32.204,385.146 31.791,385.083 31.333 C 385.020 30.875,384.901 30.458,384.818 30.407 C 384.735 30.356,384.667 30.135,384.667 29.917 C 384.667 29.698,384.600 29.479,384.519 29.429 C 384.438 29.378,384.319 28.980,384.254 28.544 C 384.189 28.107,384.077 27.675,384.005 27.583 C 383.934 27.492,383.824 27.062,383.761 26.629 C 383.699 26.196,383.577 25.797,383.490 25.744 C 383.404 25.691,383.333 25.426,383.333 25.157 C 383.333 24.887,383.267 24.667,383.186 24.667 C 383.104 24.667,382.986 24.318,382.922 23.892 C 382.858 23.466,382.744 22.997,382.669 22.851 C 382.594 22.704,382.469 22.283,382.391 21.917 L 382.250 21.250 380.000 21.250 L 377.750 21.250 377.583 21.917 C 377.492 22.283,377.369 22.658,377.311 22.750 C 377.253 22.842,377.150 23.251,377.082 23.660 C 377.014 24.069,376.900 24.519,376.828 24.660 C 376.619 25.071,376.167 26.677,376.167 27.009 C 376.167 27.177,376.099 27.356,376.016 27.407 C 375.933 27.458,375.813 27.875,375.750 28.333 C 375.687 28.791,375.567 29.208,375.484 29.260 C 375.401 29.311,375.333 29.574,375.333 29.843 C 375.333 30.113,375.264 30.333,375.179 30.333 C 375.094 30.333,374.972 30.746,374.909 31.250 C 374.846 31.754,374.734 32.167,374.659 32.167 C 374.585 32.167,374.472 32.579,374.409 33.083 C 374.346 33.587,374.237 34.000,374.166 34.000 C 374.096 34.000,373.997 34.206,373.948 34.458 C 373.736 35.535,373.452 36.595,373.335 36.750 C 373.266 36.842,373.156 37.284,373.090 37.733 C 373.025 38.182,372.910 38.669,372.835 38.816 C 372.621 39.231,372.167 40.837,372.167 41.176 C 372.167 41.343,372.099 41.522,372.016 41.574 C 371.933 41.625,371.813 42.042,371.750 42.500 C 371.687 42.958,371.567 43.333,371.484 43.333 C 371.401 43.333,371.332 43.502,371.331 43.708 C 371.327 44.237,370.850 45.535,370.841 45.042 C 370.837 44.835,370.767 44.667,370.686 44.667 C 370.605 44.667,370.487 44.255,370.424 43.753 C 370.361 43.250,370.240 42.795,370.155 42.743 C 370.070 42.690,370.000 42.468,370.000 42.250 C 370.000 42.032,369.932 41.811,369.850 41.760 C 369.767 41.709,369.647 41.217,369.583 40.667 C 369.520 40.117,369.408 39.667,369.336 39.667 C 369.264 39.667,369.154 39.255,369.091 38.753 C 369.028 38.250,368.907 37.795,368.822 37.743 C 368.736 37.690,368.667 37.426,368.667 37.157 C 368.667 36.887,368.600 36.667,368.519 36.667 C 368.438 36.667,368.320 36.255,368.258 35.753 C 368.195 35.250,368.082 34.801,368.008 34.755 C 367.933 34.709,367.821 34.259,367.758 33.755 C 367.695 33.251,367.574 32.795,367.488 32.743 C 367.403 32.690,367.333 32.426,367.333 32.157 C 367.333 31.887,367.267 31.667,367.186 31.667 C 367.105 31.667,366.987 31.255,366.924 30.753 C 366.861 30.250,366.750 29.802,366.677 29.756 C 366.604 29.711,366.493 29.291,366.431 28.823 C 366.369 28.354,366.256 27.846,366.179 27.694 C 365.974 27.283,365.702 26.339,365.572 25.583 C 365.508 25.217,365.410 24.842,365.354 24.750 C 365.242 24.569,364.872 23.077,364.723 22.208 C 364.672 21.910,364.563 21.667,364.482 21.667 C 364.400 21.667,364.333 21.558,364.333 21.426 C 364.333 21.094,360.002 20.966,359.876 21.294 M315.243 21.375 C 315.200 21.490,315.183 28.483,315.207 36.917 L 315.250 52.250 317.320 52.297 C 318.864 52.332,319.425 52.290,319.526 52.130 C 319.601 52.013,319.663 49.385,319.664 46.292 L 319.667 40.667 322.328 40.667 C 325.769 40.667,326.150 40.815,327.292 42.599 C 327.590 43.065,327.833 43.527,327.833 43.626 C 327.833 43.725,327.890 43.831,327.958 43.861 C 328.027 43.892,328.223 44.179,328.394 44.500 C 329.617 46.794,330.065 47.612,330.385 48.143 C 330.586 48.477,330.893 49.031,331.068 49.375 C 331.243 49.719,331.443 50.000,331.513 50.000 C 331.583 50.000,331.690 50.225,331.750 50.500 C 331.810 50.775,331.929 51.000,332.013 51.000 C 332.098 51.000,332.167 51.102,332.167 51.228 C 332.167 51.353,332.322 51.653,332.512 51.894 C 332.991 52.503,337.500 52.598,337.500 52.000 C 337.500 51.817,337.433 51.667,337.351 51.667 C 337.270 51.667,337.160 51.496,337.108 51.288 C 337.056 51.080,336.860 50.746,336.673 50.545 C 336.486 50.345,336.333 50.136,336.333 50.081 C 336.333 49.862,335.403 48.070,335.167 47.833 C 335.121 47.788,334.896 47.375,334.667 46.917 C 334.438 46.458,334.194 46.058,334.125 46.028 C 334.056 45.997,334.000 45.866,334.000 45.736 C 334.000 45.606,333.931 45.500,333.847 45.500 C 333.762 45.500,333.644 45.275,333.583 45.000 C 333.523 44.725,333.417 44.500,333.347 44.500 C 333.277 44.500,333.077 44.201,332.902 43.835 C 332.727 43.470,332.527 43.170,332.458 43.169 C 332.390 43.168,332.333 43.021,332.333 42.843 C 332.333 42.665,332.265 42.477,332.181 42.426 C 332.097 42.374,331.859 41.976,331.651 41.541 C 331.443 41.106,331.222 40.712,331.159 40.667 C 330.714 40.341,330.856 39.876,331.496 39.570 C 331.863 39.394,332.164 39.194,332.165 39.125 C 332.166 39.056,332.263 39.000,332.382 39.000 C 332.632 39.000,334.833 36.773,334.833 36.520 C 334.833 36.427,334.931 36.290,335.051 36.217 C 335.281 36.076,335.833 34.993,335.833 34.683 C 335.833 34.582,335.903 34.500,335.988 34.500 C 336.073 34.500,336.194 34.087,336.257 33.581 C 336.321 33.076,336.439 32.621,336.519 32.571 C 336.709 32.454,336.713 29.215,336.523 29.098 C 336.444 29.049,336.334 28.671,336.277 28.258 C 336.220 27.845,336.101 27.374,336.012 27.212 C 335.923 27.050,335.719 26.617,335.558 26.250 C 335.398 25.883,335.222 25.546,335.167 25.500 C 335.112 25.454,334.886 25.154,334.664 24.833 C 334.150 24.091,332.816 22.833,332.542 22.833 C 332.427 22.833,332.333 22.764,332.333 22.679 C 332.333 22.477,330.738 21.702,330.038 21.564 C 329.738 21.505,329.453 21.392,329.403 21.312 C 329.251 21.066,315.338 21.128,315.243 21.375 M340.207 36.707 L 340.250 52.250 349.250 52.250 L 358.250 52.250 358.250 50.083 L 358.250 47.917 351.458 47.873 L 344.667 47.830 344.667 43.331 L 344.667 38.833 350.717 38.833 C 357.833 38.833,357.167 39.076,357.167 36.484 C 357.167 34.082,357.929 34.333,350.653 34.333 L 344.667 34.333 344.667 29.919 L 344.667 25.504 351.375 25.460 L 358.083 25.417 358.083 23.333 L 358.083 21.250 349.124 21.207 L 340.165 21.164 340.207 36.707 M302.667 21.959 C 302.987 22.163,303.361 22.383,303.496 22.448 C 303.936 22.657,304.667 23.383,304.667 23.611 C 304.667 23.733,304.736 23.833,304.820 23.833 C 304.904 23.833,305.023 24.057,305.083 24.331 C 305.143 24.605,305.262 24.872,305.346 24.925 C 305.543 25.047,305.549 28.284,305.352 28.405 C 305.270 28.456,305.156 28.686,305.098 28.918 C 304.913 29.653,304.025 30.598,303.051 31.094 C 302.702 31.271,302.392 31.473,302.361 31.542 C 302.331 31.610,300.024 31.667,297.236 31.667 L 292.167 31.667 292.167 26.570 L 292.167 21.474 297.125 21.530 C 301.919 21.585,302.103 21.599,302.667 21.959 M25.320 24.763 C 25.202 25.061,25.095 25.164,25.045 25.027 C 24.999 24.904,25.046 24.721,25.148 24.619 C 25.250 24.517,25.342 24.280,25.353 24.092 C 25.366 23.855,25.394 23.831,25.443 24.013 C 25.482 24.158,25.426 24.495,25.320 24.763 M14.333 24.473 C 14.333 24.550,14.577 24.624,14.875 24.638 C 15.173 24.652,15.627 24.721,15.883 24.793 L 16.350 24.923 16.342 34.170 C 16.338 39.256,16.315 43.441,16.292 43.470 C 16.173 43.620,13.500 42.347,13.500 42.140 C 13.500 42.063,13.379 42.000,13.232 42.000 C 12.932 42.000,12.575 41.705,11.101 40.236 C 9.576 38.716,8.436 36.818,8.228 35.452 C 8.169 35.066,8.048 34.657,7.958 34.543 C 7.748 34.277,7.759 29.376,7.970 29.113 C 8.057 29.005,8.180 28.673,8.244 28.375 C 8.308 28.077,8.429 27.833,8.513 27.833 C 8.598 27.833,8.667 27.721,8.667 27.583 C 8.667 27.446,8.723 27.331,8.792 27.329 C 8.860 27.326,9.092 27.040,9.306 26.693 C 9.694 26.063,11.219 25.000,11.734 25.000 C 11.880 25.000,12.000 24.925,12.000 24.833 C 12.000 24.742,12.296 24.667,12.657 24.667 C 13.018 24.667,13.360 24.592,13.417 24.500 C 13.541 24.299,14.333 24.275,14.333 24.473 M24.951 26.373 C 24.911 26.580,24.877 26.450,24.875 26.083 C 24.874 25.717,24.906 25.547,24.948 25.706 C 24.990 25.866,24.991 26.166,24.951 26.373 M329.499 26.083 C 330.769 26.931,331.833 28.287,331.833 29.057 C 331.833 29.198,331.908 29.360,332.000 29.417 C 332.206 29.544,332.223 32.279,332.019 32.405 C 331.938 32.455,331.822 32.760,331.761 33.081 C 331.701 33.403,331.585 33.667,331.504 33.667 C 331.422 33.667,331.314 33.800,331.262 33.962 C 331.141 34.345,330.238 35.333,330.009 35.333 C 329.913 35.333,329.833 35.393,329.833 35.465 C 329.833 36.043,328.597 36.222,324.125 36.292 L 319.667 36.362 319.667 30.921 L 319.667 25.480 324.208 25.532 L 328.750 25.583 329.499 26.083 M24.625 36.375 C 24.598 38.048,24.575 36.679,24.575 33.333 C 24.575 29.988,24.598 28.619,24.625 30.292 C 24.652 31.965,24.652 34.702,24.625 36.375 M303.942 37.011 C 304.857 37.403,306.281 38.807,306.440 39.473 C 306.498 39.717,306.629 40.021,306.730 40.150 C 306.966 40.447,306.960 43.650,306.724 43.804 C 306.629 43.866,306.500 44.124,306.438 44.378 C 306.228 45.239,305.067 46.408,304.000 46.834 C 303.771 46.925,303.453 47.075,303.294 47.167 C 303.117 47.268,300.893 47.333,297.586 47.333 L 292.167 47.333 292.167 42.000 L 292.167 36.667 297.653 36.667 C 302.827 36.667,303.185 36.686,303.942 37.011 M9.574 39.315 C 9.448 39.441,9.004 38.961,9.101 38.804 C 9.155 38.718,9.298 38.782,9.419 38.948 C 9.540 39.114,9.610 39.279,9.574 39.315 M10.913 40.975 C 10.817 41.071,10.178 40.295,10.178 40.083 C 10.178 39.992,10.360 40.139,10.582 40.410 C 10.804 40.682,10.953 40.936,10.913 40.975 M24.000 41.167 C 23.804 41.442,23.681 41.667,23.727 41.667 C 23.773 41.667,23.971 41.442,24.167 41.167 C 24.362 40.892,24.485 40.667,24.439 40.667 C 24.394 40.667,24.196 40.892,24.000 41.167 M20.539 46.125 C 20.107 46.748,19.967 47.000,20.051 47.000 C 20.090 47.000,20.321 46.700,20.564 46.333 C 21.057 45.588,21.035 45.408,20.539 46.125 M24.625 62.530 C 24.599 64.851,24.577 63.000,24.577 58.417 C 24.577 53.833,24.599 51.934,24.625 54.197 C 24.651 56.459,24.651 60.209,24.625 62.530 M16.848 51.458 C 16.438 52.058,16.413 52.128,16.745 51.750 C 17.186 51.247,17.564 50.667,17.451 50.667 C 17.417 50.667,17.146 51.023,16.848 51.458 M20.244 55.208 C 19.987 55.598,19.883 55.829,20.013 55.721 C 20.264 55.514,20.902 54.500,20.782 54.500 C 20.743 54.500,20.501 54.819,20.244 55.208 M18.589 57.598 C 18.434 57.835,18.335 58.058,18.370 58.093 C 18.406 58.128,18.566 57.934,18.727 57.662 C 19.086 57.053,18.978 57.004,18.589 57.598 " stroke="none" fill="#1678ec" fill-rule="evenodd"></path><path id="path3" d="M36.750 2.517 C 32.256 2.915,27.546 3.736,26.327 4.333 C 26.186 4.402,25.755 4.512,25.369 4.577 C 24.984 4.642,24.626 4.764,24.574 4.848 C 24.523 4.932,24.359 5.000,24.211 5.000 C 23.408 5.000,20.903 6.462,19.724 7.619 L 18.838 8.488 19.193 9.090 C 19.548 9.692,21.110 11.000,21.473 11.000 C 21.580 11.000,21.667 11.056,21.668 11.125 C 21.670 11.319,22.383 11.598,22.710 11.533 C 22.872 11.501,22.960 11.404,22.907 11.318 C 22.854 11.232,22.741 11.204,22.657 11.256 C 22.236 11.516,19.333 9.251,19.333 8.663 C 19.333 7.890,22.380 5.781,24.043 5.401 C 24.296 5.344,24.544 5.230,24.595 5.148 C 24.645 5.067,24.865 5.000,25.083 5.000 C 25.302 5.000,25.523 4.932,25.574 4.848 C 25.626 4.764,25.987 4.643,26.376 4.579 C 26.765 4.514,27.158 4.414,27.250 4.356 C 27.412 4.253,28.542 3.989,30.250 3.656 C 30.708 3.566,31.796 3.414,32.667 3.317 C 33.537 3.220,34.549 3.054,34.915 2.947 C 35.848 2.675,47.028 2.687,48.500 2.962 C 49.096 3.073,50.146 3.236,50.833 3.325 C 52.934 3.597,55.626 4.124,56.039 4.345 C 56.199 4.430,56.433 4.500,56.559 4.500 C 57.710 4.500,62.148 6.539,63.278 7.587 C 64.425 8.651,63.972 9.606,61.783 10.735 C 61.444 10.909,61.167 11.116,61.167 11.193 C 61.167 11.270,60.960 11.334,60.708 11.336 C 60.375 11.338,60.314 11.379,60.485 11.487 C 60.695 11.620,61.422 11.425,61.667 11.170 C 61.712 11.122,61.968 10.970,62.234 10.833 C 63.035 10.420,64.333 9.046,64.333 8.611 C 64.333 7.760,60.342 5.000,59.111 5.000 C 58.969 5.000,58.811 4.932,58.759 4.848 C 58.707 4.764,58.349 4.642,57.964 4.577 C 57.578 4.512,57.147 4.402,57.006 4.333 C 55.747 3.716,51.019 2.902,46.417 2.509 C 44.249 2.324,38.874 2.328,36.750 2.517 M66.209 9.250 C 66.211 9.617,66.245 9.747,66.285 9.540 C 66.324 9.332,66.323 9.032,66.281 8.873 C 66.239 8.714,66.207 8.883,66.209 9.250 M65.846 9.969 C 65.808 10.605,63.077 13.000,62.391 13.000 C 62.267 13.000,62.167 13.075,62.167 13.167 C 62.167 13.258,62.042 13.333,61.889 13.333 C 61.736 13.333,61.661 13.383,61.721 13.443 C 61.838 13.560,63.044 13.005,63.139 12.792 C 63.169 12.723,63.289 12.667,63.405 12.667 C 63.521 12.667,63.796 12.510,64.016 12.319 C 64.236 12.128,64.626 11.809,64.881 11.611 C 65.460 11.161,66.055 10.235,65.944 9.958 C 65.880 9.799,65.857 9.802,65.846 9.969 M61.083 13.667 C 61.027 13.758,60.822 13.833,60.629 13.833 C 60.436 13.833,60.322 13.878,60.377 13.933 C 60.522 14.077,61.500 13.834,61.500 13.653 C 61.500 13.448,61.213 13.457,61.083 13.667 M36.708 14.453 C 36.960 14.491,37.373 14.491,37.625 14.453 C 37.877 14.415,37.671 14.383,37.167 14.383 C 36.662 14.383,36.456 14.415,36.708 14.453 M45.708 14.453 C 45.960 14.491,46.373 14.491,46.625 14.453 C 46.877 14.415,46.671 14.383,46.167 14.383 C 45.663 14.383,45.456 14.415,45.708 14.453 M57.250 15.000 C 57.193 15.092,57.301 15.167,57.490 15.167 C 57.679 15.167,57.833 15.092,57.833 15.000 C 57.833 14.908,57.725 14.833,57.593 14.833 C 57.461 14.833,57.307 14.908,57.250 15.000 M55.208 15.615 C 55.369 15.657,55.631 15.657,55.792 15.615 C 55.952 15.573,55.821 15.539,55.500 15.539 C 55.179 15.539,55.048 15.573,55.208 15.615 M53.833 15.833 C 53.833 16.044,54.174 16.044,54.500 15.833 C 54.695 15.707,54.649 15.671,54.292 15.669 C 54.040 15.668,53.833 15.742,53.833 15.833 M52.292 16.118 C 52.498 16.157,52.835 16.157,53.042 16.118 C 53.248 16.078,53.079 16.045,52.667 16.045 C 52.254 16.045,52.085 16.078,52.292 16.118 M50.500 16.333 C 50.317 16.451,50.443 16.496,50.968 16.497 C 51.405 16.499,51.646 16.435,51.583 16.333 C 51.453 16.122,50.827 16.122,50.500 16.333 M48.292 16.621 C 48.590 16.658,49.077 16.658,49.375 16.621 C 49.673 16.584,49.429 16.553,48.833 16.553 C 48.237 16.553,47.994 16.584,48.292 16.621 M33.708 16.953 C 33.960 16.991,34.373 16.991,34.625 16.953 C 34.877 16.915,34.671 16.883,34.167 16.883 C 33.662 16.883,33.456 16.915,33.708 16.953 M38.886 16.958 C 40.427 16.986,42.902 16.986,44.386 16.958 C 45.869 16.930,44.608 16.908,41.583 16.908 C 38.558 16.908,37.344 16.931,38.886 16.958 M32.500 17.167 C 32.500 17.375,32.677 17.375,33.000 17.167 C 33.202 17.036,33.178 17.005,32.875 17.003 C 32.669 17.001,32.500 17.075,32.500 17.167 M30.700 17.867 C 30.398 18.054,30.177 18.233,30.209 18.265 C 30.301 18.356,31.488 17.765,31.495 17.625 C 31.503 17.434,31.302 17.495,30.700 17.867 M28.912 19.129 C 27.494 20.272,26.250 21.893,25.528 23.540 C 25.298 24.064,25.821 23.504,26.075 22.954 C 26.742 21.509,27.547 20.543,29.500 18.846 C 30.415 18.051,30.007 18.247,28.912 19.129 M358.229 23.250 C 358.229 24.258,358.257 24.649,358.290 24.119 C 358.323 23.588,358.323 22.763,358.289 22.286 C 358.256 21.808,358.229 22.242,358.229 23.250 M315.080 36.833 C 315.080 45.221,315.100 48.652,315.125 44.458 C 315.150 40.265,315.150 33.402,315.125 29.208 C 315.100 25.015,315.080 28.446,315.080 36.833 M25.353 24.092 C 25.342 24.280,25.250 24.517,25.148 24.619 C 25.046 24.721,24.999 24.904,25.045 25.027 C 25.155 25.327,25.535 24.358,25.443 24.013 C 25.394 23.831,25.366 23.855,25.353 24.092 M16.031 24.936 C 16.186 24.983,16.351 25.147,16.397 25.302 C 16.458 25.506,16.472 25.492,16.447 25.252 C 16.427 25.058,16.276 24.906,16.081 24.886 C 15.841 24.862,15.827 24.876,16.031 24.936 M24.875 26.083 C 24.877 26.450,24.911 26.580,24.951 26.373 C 24.991 26.166,24.990 25.866,24.948 25.706 C 24.906 25.547,24.874 25.717,24.875 26.083 M24.575 33.333 C 24.575 36.679,24.598 38.048,24.625 36.375 C 24.652 34.702,24.652 31.965,24.625 30.292 C 24.598 28.619,24.575 29.988,24.575 33.333 M9.101 38.804 C 9.048 38.891,9.117 39.056,9.256 39.172 C 9.595 39.453,9.692 39.321,9.419 38.948 C 9.298 38.782,9.155 38.718,9.101 38.804 M24.545 39.792 C 24.440 40.068,22.884 42.355,22.509 42.785 C 22.412 42.895,22.333 43.032,22.333 43.088 C 22.333 43.144,22.240 43.295,22.125 43.423 C 21.682 43.917,21.500 44.156,21.500 44.245 C 21.500 44.295,21.087 44.894,20.583 45.576 C 20.079 46.258,19.667 46.862,19.667 46.920 C 19.667 46.977,19.573 47.122,19.458 47.241 C 19.344 47.361,19.137 47.627,19.000 47.833 C 18.862 48.038,18.544 48.497,18.292 48.852 C 18.040 49.207,17.833 49.567,17.833 49.651 C 17.833 49.736,17.772 49.831,17.698 49.861 C 17.433 49.970,16.145 51.853,16.208 52.041 C 16.243 52.146,16.956 51.261,17.792 50.074 C 18.628 48.888,19.392 47.826,19.490 47.715 C 19.587 47.605,19.667 47.468,19.667 47.412 C 19.667 47.356,19.760 47.206,19.875 47.079 C 19.990 46.952,20.483 46.263,20.971 45.549 C 21.459 44.834,22.565 43.245,23.429 42.016 C 24.293 40.788,25.000 39.719,25.000 39.641 C 25.000 39.383,24.658 39.496,24.545 39.792 M10.178 40.083 C 10.178 40.295,10.817 41.071,10.913 40.975 C 10.953 40.936,10.804 40.682,10.582 40.410 C 10.360 40.139,10.178 39.992,10.178 40.083 M24.364 49.424 C 24.072 49.838,23.833 50.243,23.833 50.324 C 23.833 50.406,23.769 50.497,23.690 50.528 C 23.611 50.558,22.993 51.408,22.315 52.417 C 21.638 53.425,21.026 54.325,20.955 54.417 C 20.518 54.987,19.014 57.172,18.747 57.625 C 18.572 57.923,18.369 58.167,18.297 58.167 C 18.225 58.167,18.167 58.234,18.167 58.317 C 18.167 58.519,17.016 60.219,16.775 60.372 C 16.670 60.440,16.658 60.495,16.750 60.495 C 17.116 60.495,17.377 60.171,19.363 57.250 C 20.049 56.242,20.960 54.906,21.388 54.281 C 21.816 53.657,22.167 53.075,22.167 52.989 C 22.167 52.904,22.225 52.833,22.296 52.833 C 22.367 52.833,22.870 52.161,23.413 51.339 C 23.956 50.517,24.436 49.881,24.480 49.924 C 24.523 49.967,24.655 49.724,24.772 49.383 C 25.063 48.536,24.984 48.544,24.364 49.424 M24.577 58.417 C 24.577 63.000,24.599 64.851,24.625 62.530 C 24.651 60.209,24.651 56.459,24.625 54.197 C 24.599 51.934,24.577 53.833,24.577 58.417 M16.333 61.073 C 16.333 61.297,16.395 61.518,16.470 61.565 C 16.545 61.611,16.574 61.428,16.534 61.158 C 16.447 60.562,16.333 60.515,16.333 61.073 " stroke="none" fill="#094cbb" fill-rule="evenodd"></path><path id="path4" d="M38.958 2.951 C 39.165 2.991,39.502 2.991,39.708 2.951 C 39.915 2.911,39.746 2.879,39.333 2.879 C 38.921 2.879,38.752 2.911,38.958 2.951 M43.625 2.951 C 43.831 2.991,44.169 2.991,44.375 2.951 C 44.581 2.911,44.413 2.879,44.000 2.879 C 43.587 2.879,43.419 2.911,43.625 2.951 M38.460 7.951 C 38.668 7.991,38.968 7.990,39.127 7.948 C 39.286 7.906,39.117 7.874,38.750 7.875 C 38.383 7.877,38.253 7.911,38.460 7.951 M44.294 7.951 C 44.501 7.991,44.801 7.990,44.960 7.948 C 45.120 7.906,44.950 7.874,44.583 7.875 C 44.217 7.877,44.086 7.911,44.294 7.951 M60.556 25.500 C 60.556 26.188,60.585 26.469,60.621 26.125 C 60.657 25.781,60.657 25.219,60.621 24.875 C 60.585 24.531,60.556 24.813,60.556 25.500 " stroke="none" fill="#6ca9ee" fill-rule="evenodd"></path><path id="path5" d="M40.792 2.956 C 41.273 2.990,42.060 2.990,42.542 2.956 C 43.023 2.923,42.629 2.895,41.667 2.895 C 40.704 2.895,40.310 2.923,40.792 2.956 M36.875 3.115 C 37.035 3.157,37.298 3.157,37.458 3.115 C 37.619 3.073,37.487 3.039,37.167 3.039 C 36.846 3.039,36.715 3.073,36.875 3.115 M45.875 3.115 C 46.035 3.157,46.298 3.157,46.458 3.115 C 46.619 3.073,46.487 3.039,46.167 3.039 C 45.846 3.039,45.715 3.073,45.875 3.115 M34.875 3.282 C 35.035 3.323,35.298 3.323,35.458 3.282 C 35.619 3.240,35.487 3.205,35.167 3.205 C 34.846 3.205,34.715 3.240,34.875 3.282 M28.917 4.167 C 28.707 4.257,28.676 4.310,28.833 4.310 C 28.971 4.310,29.233 4.245,29.417 4.167 C 29.627 4.076,29.658 4.023,29.500 4.023 C 29.363 4.023,29.100 4.088,28.917 4.167 M62.875 7.658 C 63.310 8.045,63.673 8.487,63.680 8.639 C 63.689 8.834,63.719 8.850,63.782 8.694 C 63.876 8.457,62.975 7.425,62.417 7.130 C 62.233 7.033,62.440 7.271,62.875 7.658 M40.958 7.789 C 41.348 7.824,41.985 7.824,42.375 7.789 C 42.765 7.754,42.446 7.725,41.667 7.725 C 40.887 7.725,40.569 7.754,40.958 7.789 M19.500 8.885 C 19.500 8.914,19.744 9.158,20.042 9.427 L 20.583 9.917 20.094 9.375 C 19.638 8.870,19.500 8.757,19.500 8.885 M60.560 22.833 C 60.560 23.704,60.588 24.060,60.623 23.625 C 60.657 23.190,60.657 22.477,60.623 22.042 C 60.588 21.606,60.560 21.962,60.560 22.833 M53.583 23.756 C 53.167 23.957,53.153 23.980,53.500 23.895 C 53.972 23.779,54.503 23.509,54.250 23.513 C 54.158 23.514,53.858 23.623,53.583 23.756 M52.407 24.239 C 52.131 24.442,52.118 24.510,52.316 24.697 C 52.508 24.878,52.527 24.878,52.424 24.697 C 52.350 24.565,52.423 24.385,52.608 24.244 C 52.778 24.116,52.875 24.008,52.824 24.005 C 52.772 24.002,52.585 24.107,52.407 24.239 M54.088 26.032 C 54.155 26.208,53.997 26.617,53.669 27.116 C 53.292 27.690,53.261 27.779,53.558 27.431 C 54.241 26.631,54.428 26.194,54.187 25.955 C 54.023 25.792,54.003 25.808,54.088 26.032 M30.167 33.219 C 30.167 33.260,30.442 33.504,30.779 33.760 C 31.115 34.017,31.338 34.142,31.273 34.038 C 31.142 33.825,30.167 33.103,30.167 33.219 M48.896 33.958 C 48.403 34.635,48.251 34.980,48.657 34.500 C 49.033 34.056,49.383 33.500,49.287 33.500 C 49.255 33.500,49.079 33.706,48.896 33.958 M54.372 34.125 C 53.941 34.748,53.800 35.000,53.885 35.000 C 53.924 35.000,54.154 34.700,54.397 34.333 C 54.890 33.588,54.869 33.408,54.372 34.125 M34.227 36.295 C 34.358 36.509,35.333 37.230,35.333 37.114 C 35.333 37.073,35.058 36.830,34.721 36.573 C 34.385 36.316,34.162 36.191,34.227 36.295 M46.229 37.792 C 45.736 38.469,45.584 38.813,45.990 38.333 C 46.366 37.889,46.716 37.333,46.621 37.333 C 46.589 37.333,46.413 37.540,46.229 37.792 M51.439 38.375 L 51.139 38.917 51.482 38.500 C 51.787 38.130,51.922 37.833,51.786 37.833 C 51.760 37.833,51.604 38.077,51.439 38.375 M25.756 38.931 C 25.600 39.168,25.502 39.391,25.537 39.426 C 25.572 39.461,25.732 39.267,25.893 38.995 C 26.252 38.387,26.145 38.337,25.756 38.931 M45.167 39.333 C 44.971 39.608,44.848 39.833,44.894 39.833 C 44.940 39.833,45.138 39.608,45.333 39.333 C 45.529 39.058,45.652 38.833,45.606 38.833 C 45.560 38.833,45.362 39.058,45.167 39.333 M24.244 41.208 C 23.987 41.598,23.883 41.829,24.013 41.721 C 24.264 41.514,24.902 40.500,24.782 40.500 C 24.743 40.500,24.501 40.819,24.244 41.208 M41.000 41.389 C 41.000 41.434,41.300 41.710,41.667 42.000 C 42.033 42.290,42.333 42.491,42.333 42.445 C 42.333 42.399,42.033 42.124,41.667 41.833 C 41.300 41.543,41.000 41.343,41.000 41.389 M33.917 41.911 C 34.192 42.153,34.642 42.503,34.917 42.689 L 35.417 43.028 34.917 42.589 C 34.642 42.347,34.192 41.997,33.917 41.811 L 33.417 41.472 33.917 41.911 M27.705 44.125 C 27.274 44.748,27.134 45.000,27.218 45.000 C 27.257 45.000,27.488 44.700,27.730 44.333 C 28.223 43.588,28.202 43.408,27.705 44.125 M37.500 44.555 C 37.500 44.601,37.800 44.876,38.167 45.167 C 38.533 45.457,38.833 45.657,38.833 45.611 C 38.833 45.566,38.533 45.290,38.167 45.000 C 37.800 44.710,37.500 44.509,37.500 44.555 M46.372 45.625 C 45.941 46.248,45.800 46.500,45.885 46.500 C 45.924 46.500,46.154 46.200,46.397 45.833 C 46.890 45.088,46.869 44.908,46.372 45.625 M20.833 46.083 C 20.550 46.496,20.355 46.833,20.401 46.833 C 20.446 46.833,20.716 46.496,21.000 46.083 C 21.284 45.671,21.479 45.333,21.433 45.333 C 21.387 45.333,21.117 45.671,20.833 46.083 M41.667 47.722 C 41.667 47.768,41.967 48.043,42.333 48.333 C 42.700 48.624,43.000 48.824,43.000 48.778 C 43.000 48.732,42.700 48.457,42.333 48.167 C 41.967 47.876,41.667 47.676,41.667 47.722 M43.312 49.042 C 43.565 49.364,43.925 49.423,44.082 49.169 C 44.141 49.074,44.073 49.046,43.923 49.104 C 43.780 49.159,43.532 49.102,43.373 48.977 C 43.111 48.772,43.105 48.778,43.312 49.042 M16.542 52.110 C 16.383 52.174,16.333 53.151,16.333 56.198 C 16.333 59.781,16.361 60.192,16.597 60.101 C 16.742 60.046,16.896 60.000,16.940 60.000 C 16.984 60.000,16.973 59.924,16.915 59.830 C 16.857 59.737,16.818 57.937,16.827 55.830 C 16.837 53.724,16.823 52.006,16.797 52.013 C 16.771 52.020,16.656 52.064,16.542 52.110 M17.539 58.792 C 17.107 59.415,16.967 59.667,17.051 59.667 C 17.090 59.667,17.321 59.367,17.564 59.000 C 18.057 58.255,18.035 58.075,17.539 58.792 " stroke="none" fill="#84bcf8" fill-rule="evenodd"></path><path id="path6" d="M40.798 7.957 C 41.375 7.990,42.275 7.989,42.798 7.956 C 43.322 7.923,42.850 7.897,41.750 7.897 C 40.650 7.897,40.222 7.924,40.798 7.957 M35.333 8.167 L 34.417 8.279 35.250 8.285 C 35.708 8.289,36.608 8.238,37.250 8.172 L 38.417 8.052 37.333 8.053 C 36.737 8.054,35.837 8.105,35.333 8.167 M46.083 8.172 C 46.725 8.238,47.625 8.290,48.083 8.288 L 48.917 8.284 47.917 8.160 C 47.367 8.092,46.467 8.040,45.917 8.044 L 44.917 8.052 46.083 8.172 M33.375 8.448 C 33.535 8.490,33.798 8.490,33.958 8.448 C 34.119 8.406,33.987 8.372,33.667 8.372 C 33.346 8.372,33.215 8.406,33.375 8.448 M49.375 8.448 C 49.535 8.490,49.798 8.490,49.958 8.448 C 50.119 8.406,49.987 8.372,49.667 8.372 C 49.346 8.372,49.215 8.406,49.375 8.448 M31.417 8.667 C 30.724 8.843,31.406 8.851,32.250 8.676 C 32.811 8.560,32.837 8.538,32.417 8.539 C 32.142 8.539,31.692 8.597,31.417 8.667 M51.083 8.676 C 51.928 8.851,52.610 8.843,51.917 8.667 C 51.642 8.597,51.192 8.539,50.917 8.539 C 50.496 8.538,50.523 8.560,51.083 8.676 M29.250 9.080 C 28.792 9.197,28.567 9.295,28.750 9.298 C 28.933 9.300,29.458 9.205,29.917 9.087 C 30.375 8.969,30.600 8.871,30.417 8.869 C 30.233 8.867,29.708 8.962,29.250 9.080 M53.000 9.000 C 53.229 9.073,53.604 9.132,53.833 9.130 C 54.208 9.128,54.199 9.114,53.750 9.000 C 53.045 8.821,52.440 8.821,53.000 9.000 M27.417 9.500 C 27.207 9.590,27.176 9.643,27.333 9.643 C 27.471 9.643,27.733 9.579,27.917 9.500 C 28.127 9.410,28.158 9.357,28.000 9.357 C 27.863 9.357,27.600 9.421,27.417 9.500 M55.750 9.595 C 56.208 9.723,56.658 9.820,56.750 9.813 C 57.032 9.789,55.605 9.359,55.250 9.361 C 55.067 9.362,55.292 9.467,55.750 9.595 M24.417 10.423 C 24.000 10.623,23.986 10.646,24.333 10.562 C 24.806 10.446,25.336 10.176,25.083 10.179 C 24.992 10.181,24.692 10.290,24.417 10.423 M58.333 10.305 C 58.471 10.390,58.771 10.510,59.000 10.571 C 59.290 10.649,59.340 10.635,59.167 10.528 C 59.029 10.443,58.729 10.324,58.500 10.262 C 58.210 10.185,58.160 10.198,58.333 10.305 M35.208 14.115 C 35.369 14.157,35.631 14.157,35.792 14.115 C 35.952 14.073,35.821 14.039,35.500 14.039 C 35.179 14.039,35.048 14.073,35.208 14.115 M47.542 14.115 C 47.702 14.157,47.965 14.157,48.125 14.115 C 48.285 14.073,48.154 14.039,47.833 14.039 C 47.512 14.039,47.381 14.073,47.542 14.115 M37.542 14.286 C 37.794 14.324,38.206 14.324,38.458 14.286 C 38.710 14.248,38.504 14.217,38.000 14.217 C 37.496 14.217,37.290 14.248,37.542 14.286 M44.875 14.286 C 45.127 14.324,45.540 14.324,45.792 14.286 C 46.044 14.248,45.837 14.217,45.333 14.217 C 44.829 14.217,44.623 14.248,44.875 14.286 " stroke="none" fill="#646464" fill-rule="evenodd"></path><path id="path7" d="M37.544 2.953 C 37.797 2.991,38.172 2.990,38.377 2.951 C 38.582 2.911,38.375 2.880,37.917 2.881 C 37.458 2.882,37.291 2.915,37.544 2.953 M45.044 2.953 C 45.297 2.991,45.672 2.990,45.877 2.951 C 46.082 2.911,45.875 2.880,45.417 2.881 C 44.958 2.882,44.791 2.915,45.044 2.953 M60.664 22.216 L 60.745 23.250 60.799 22.351 C 60.828 21.857,60.792 21.392,60.718 21.317 C 60.644 21.243,60.620 21.647,60.664 22.216 M60.564 28.583 C 60.564 29.683,60.591 30.112,60.624 29.535 C 60.656 28.959,60.656 28.059,60.623 27.535 C 60.590 27.012,60.563 27.483,60.564 28.583 " stroke="none" fill="#519cee" fill-rule="evenodd"></path><path id="path8" d="M32.875 13.948 C 33.035 13.990,33.298 13.990,33.458 13.948 C 33.619 13.906,33.487 13.872,33.167 13.872 C 32.846 13.872,32.715 13.906,32.875 13.948 M49.875 13.948 C 50.035 13.990,50.298 13.990,50.458 13.948 C 50.619 13.906,50.487 13.872,50.167 13.872 C 49.846 13.872,49.715 13.906,49.875 13.948 M34.127 14.118 C 34.334 14.158,34.634 14.156,34.794 14.115 C 34.953 14.073,34.783 14.040,34.417 14.042 C 34.050 14.044,33.920 14.078,34.127 14.118 M48.627 14.118 C 48.834 14.158,49.134 14.156,49.294 14.115 C 49.453 14.073,49.283 14.040,48.917 14.042 C 48.550 14.044,48.420 14.078,48.627 14.118 M36.125 14.284 C 36.331 14.324,36.669 14.324,36.875 14.284 C 37.081 14.245,36.912 14.212,36.500 14.212 C 36.087 14.212,35.919 14.245,36.125 14.284 M46.458 14.284 C 46.665 14.324,47.002 14.324,47.208 14.284 C 47.415 14.245,47.246 14.212,46.833 14.212 C 46.421 14.212,46.252 14.245,46.458 14.284 M39.792 14.458 C 40.823 14.487,42.510 14.487,43.542 14.458 C 44.573 14.429,43.729 14.405,41.667 14.405 C 39.604 14.405,38.760 14.429,39.792 14.458 " stroke="none" fill="#145ca4" fill-rule="evenodd"></path></g></svg>