<svg id="svg" version="1.1" xmlns="http://www.w3.org/2000/svg" xmlns:xlink="http://www.w3.org/1999/xlink" width="400" height="210" viewBox="0, 0, 400,210"><g id="svgg"><path id="path0" d="M0.000 105.042 L 0.000 210.084 200.000 210.084 L 400.000 210.084 400.000 105.042 L 400.000 0.000 200.000 0.000 L 0.000 0.000 0.000 105.042 M149.024 76.625 C 151.201 77.666,153.741 80.036,154.600 81.828 C 154.878 82.405,155.181 83.036,155.274 83.228 C 155.980 84.685,156.027 89.508,155.354 91.492 C 152.476 99.980,140.275 102.641,133.542 96.249 C 127.629 90.637,129.110 80.396,136.348 76.845 C 138.685 75.699,139.097 75.630,143.277 75.685 L 147.164 75.735 149.024 76.625 M231.737 75.969 C 242.318 79.110,243.428 93.807,233.436 98.458 C 220.063 104.683,207.487 88.506,218.076 78.702 C 221.105 75.898,227.313 74.656,231.737 75.969 M279.016 76.023 C 282.391 77.184,282.651 77.501,281.618 79.200 C 280.594 80.887,280.403 81.017,279.682 80.511 C 275.908 77.866,269.516 78.882,267.227 82.492 C 262.310 90.245,271.005 99.357,279.506 95.361 C 280.678 94.810,280.872 94.929,281.418 96.538 C 281.898 97.949,281.774 98.222,280.422 98.736 C 277.629 99.796,274.448 100.052,271.504 99.455 C 258.818 96.884,257.714 80.104,269.958 75.970 C 271.444 75.468,277.506 75.503,279.016 76.023 M102.867 76.628 C 103.045 77.061,103.311 77.700,103.458 78.046 C 103.604 78.393,103.892 79.102,104.097 79.622 C 104.302 80.142,104.658 80.993,104.888 81.513 C 105.118 82.033,105.435 82.824,105.594 83.272 C 105.752 83.719,106.319 85.137,106.853 86.423 C 107.388 87.709,108.212 89.696,108.686 90.840 L 109.547 92.919 109.973 91.969 C 110.207 91.447,110.527 90.700,110.683 90.310 C 110.839 89.920,111.159 89.175,111.394 88.655 C 112.413 86.398,112.605 85.851,112.605 85.214 C 112.605 84.842,112.519 84.448,112.413 84.338 C 112.135 84.048,109.034 76.535,109.034 76.150 C 109.034 75.875,109.335 75.834,110.967 75.885 L 112.901 75.945 113.891 78.249 L 114.881 80.552 115.424 79.326 C 115.722 78.651,115.966 78.054,115.966 77.999 C 115.966 77.944,116.098 77.602,116.259 77.238 C 116.420 76.874,116.606 76.410,116.673 76.208 C 116.827 75.737,120.318 75.650,120.496 76.112 C 120.600 76.384,119.948 78.091,118.755 80.672 C 116.620 85.290,116.656 84.726,118.267 88.340 C 118.989 89.958,119.734 91.636,119.923 92.069 C 120.271 92.866,120.588 93.102,120.588 92.564 C 120.588 92.273,121.675 89.516,122.065 88.816 C 122.177 88.615,122.269 88.346,122.269 88.217 C 122.269 88.089,122.402 87.686,122.564 87.322 C 122.726 86.958,123.356 85.383,123.964 83.824 C 124.572 82.264,125.524 79.853,126.079 78.466 L 127.087 75.945 129.090 75.885 C 130.851 75.832,131.092 75.868,131.092 76.179 C 131.092 76.513,129.267 81.225,128.254 83.508 C 127.997 84.086,127.616 84.984,127.407 85.504 C 127.198 86.024,126.807 86.949,126.539 87.559 C 126.270 88.169,126.050 88.722,126.050 88.788 C 126.050 88.853,125.918 89.205,125.756 89.569 C 125.595 89.933,124.645 92.216,123.646 94.643 C 121.366 100.180,121.684 99.673,120.443 99.747 C 119.163 99.823,119.215 99.881,117.850 96.842 C 117.256 95.517,116.463 93.771,116.090 92.962 C 115.716 92.153,115.276 91.184,115.112 90.809 C 114.650 89.752,114.637 89.767,113.436 92.752 C 113.064 93.676,112.536 94.929,112.262 95.536 C 111.989 96.142,111.527 97.182,111.236 97.847 C 110.430 99.690,110.440 99.679,109.392 99.748 C 108.240 99.824,108.165 99.735,107.041 96.954 C 106.621 95.914,106.047 94.605,105.765 94.046 C 105.483 93.486,105.252 92.948,105.252 92.850 C 105.252 92.752,104.874 91.857,104.412 90.861 C 103.950 89.866,103.571 89.012,103.571 88.964 C 103.571 88.878,103.390 88.465,101.708 84.733 C 101.231 83.673,100.840 82.743,100.840 82.666 C 100.840 82.589,100.557 81.913,100.210 81.164 C 99.863 80.415,99.580 79.769,99.580 79.727 C 99.580 79.685,99.296 79.038,98.950 78.290 C 98.603 77.541,98.319 76.683,98.319 76.384 L 98.319 75.840 100.431 75.840 L 102.542 75.840 102.867 76.628 M169.408 76.073 C 174.231 77.371,176.234 81.569,174.148 86.007 C 173.419 87.558,171.155 89.496,170.071 89.496 C 169.893 89.496,169.748 89.524,169.748 89.558 C 169.748 89.630,173.642 95.592,173.892 95.903 C 176.243 98.821,176.155 99.398,173.372 99.324 L 171.113 99.265 169.433 96.694 C 168.508 95.280,167.188 93.248,166.499 92.177 C 164.974 89.809,165.095 89.900,163.550 89.967 L 162.290 90.021 162.185 94.643 L 162.080 99.265 160.326 99.326 C 159.214 99.365,158.465 99.298,158.278 99.143 C 157.965 98.883,157.814 76.290,158.123 75.980 C 158.365 75.739,168.474 75.822,169.408 76.073 M182.983 81.408 L 183.088 86.870 183.543 86.345 C 184.010 85.805,185.565 83.918,187.605 81.415 C 188.241 80.636,188.927 79.803,189.130 79.566 C 189.333 79.328,190.083 78.393,190.796 77.487 L 192.093 75.840 194.669 75.840 C 196.126 75.840,197.299 75.930,197.371 76.046 C 197.442 76.160,195.485 78.644,193.025 81.566 C 190.564 84.488,188.426 87.036,188.274 87.228 C 188.041 87.522,188.057 87.638,188.379 87.964 C 188.589 88.177,189.032 88.680,189.363 89.081 C 189.695 89.483,190.498 90.381,191.149 91.078 C 191.800 91.775,192.652 92.721,193.042 93.179 C 193.433 93.638,194.190 94.485,194.724 95.063 C 198.823 99.497,198.806 99.371,195.326 99.367 C 192.265 99.363,192.832 99.693,189.927 96.218 C 188.622 94.659,187.117 92.867,186.582 92.237 C 186.047 91.608,185.245 90.662,184.800 90.137 C 184.355 89.611,183.788 88.944,183.540 88.655 L 183.088 88.130 182.983 93.697 L 182.878 99.265 180.991 99.326 C 178.335 99.413,178.571 100.567,178.571 87.502 C 178.571 74.614,178.325 75.802,180.984 75.886 L 182.878 75.945 182.983 81.408 M214.391 77.626 L 214.391 79.307 209.086 79.363 L 203.782 79.419 203.782 82.567 L 203.782 85.714 207.931 85.718 C 212.900 85.721,212.641 85.609,212.562 87.728 L 212.500 89.391 208.145 89.448 L 203.789 89.504 203.733 94.385 L 203.676 99.265 201.923 99.326 C 200.811 99.365,200.062 99.298,199.875 99.143 C 199.560 98.882,199.412 76.289,199.723 75.978 C 199.801 75.899,203.134 75.860,207.128 75.890 L 214.391 75.945 214.391 77.626 M253.741 76.068 C 260.425 77.608,261.403 85.826,255.307 89.233 C 255.049 89.378,254.695 89.496,254.520 89.496 C 254.107 89.496,254.119 89.605,254.604 90.292 C 256.512 92.992,259.979 98.509,259.979 98.845 C 259.979 99.233,259.819 99.269,257.869 99.324 C 255.359 99.395,255.673 99.632,253.239 95.815 C 252.324 94.380,251.100 92.489,250.518 91.613 L 249.461 90.021 248.102 90.021 L 246.744 90.021 246.639 94.643 L 246.534 99.265 244.647 99.326 C 243.053 99.378,242.718 99.331,242.493 99.023 C 242.117 98.509,242.103 76.468,242.479 76.092 C 242.808 75.763,252.328 75.742,253.741 76.068 M299.790 77.626 L 299.790 79.412 294.654 79.412 L 289.518 79.412 289.454 82.353 L 289.391 85.295 293.487 85.298 C 298.398 85.301,298.145 85.190,298.066 87.308 L 298.004 88.971 293.749 89.076 C 291.409 89.133,289.495 89.252,289.495 89.338 C 289.496 89.425,289.496 90.867,289.496 92.542 L 289.496 95.588 294.744 95.588 L 299.992 95.588 300.112 96.067 C 300.178 96.331,300.204 97.158,300.169 97.906 L 300.105 99.265 292.882 99.320 C 287.726 99.359,285.577 99.307,285.372 99.137 C 285.065 98.882,284.921 76.283,285.224 75.980 C 285.301 75.903,288.610 75.840,292.577 75.840 L 299.790 75.840 299.790 77.626 M140.966 79.237 C 132.547 81.024,132.161 93.295,140.448 95.704 C 147.164 97.657,153.167 91.254,150.913 84.544 C 150.296 82.708,147.718 79.833,146.688 79.832 C 146.542 79.832,146.259 79.744,146.058 79.636 C 144.948 79.039,142.723 78.864,140.966 79.237 M225.210 79.279 C 219.845 80.628,217.390 86.067,219.676 91.539 C 222.332 97.896,233.535 97.126,235.316 90.463 C 235.443 89.989,235.631 89.384,235.735 89.118 C 237.728 84.029,231.071 77.806,225.210 79.279 M162.232 82.826 L 162.290 86.239 165.023 86.298 C 168.934 86.381,170.168 85.538,170.168 82.783 C 170.168 79.976,169.335 79.414,165.173 79.413 L 162.174 79.412 162.232 82.826 M246.686 82.826 L 246.744 86.239 249.417 86.298 C 251.974 86.354,252.126 86.334,252.943 85.818 C 254.961 84.544,255.308 81.978,253.682 80.352 L 252.742 79.412 249.685 79.412 L 246.628 79.412 246.686 82.826 M229.832 103.247 C 238.515 104.931,242.901 113.566,238.920 121.138 C 234.510 129.528,220.064 129.542,215.708 121.162 C 210.750 111.622,219.008 101.148,229.832 103.247 M257.264 103.162 C 259.857 103.412,261.370 103.782,262.973 104.558 C 264.264 105.183,264.276 105.244,263.426 106.905 C 262.514 108.688,262.417 108.739,261.194 108.100 C 256.094 105.433,249.047 106.961,246.996 111.178 C 243.749 117.854,248.720 124.034,257.063 123.691 C 260.566 123.546,260.294 123.836,260.294 120.251 L 260.294 117.227 257.987 117.227 C 255.315 117.227,255.391 117.298,255.503 114.909 L 255.567 113.550 259.742 113.493 C 262.644 113.454,264.005 113.510,264.206 113.677 C 264.610 114.012,264.635 125.674,264.233 126.004 C 264.089 126.123,263.214 126.412,262.290 126.646 C 253.541 128.864,246.355 126.787,243.059 121.087 C 239.508 114.947,242.300 107.003,248.950 104.326 C 249.470 104.117,250.131 103.849,250.420 103.730 C 250.709 103.611,251.796 103.395,252.836 103.250 C 253.876 103.105,254.781 102.976,254.848 102.963 C 254.915 102.951,256.002 103.041,257.264 103.162 M291.387 103.247 C 298.503 104.627,302.705 110.286,301.712 117.153 C 301.570 118.136,301.378 119.098,301.286 119.291 C 300.182 121.605,299.741 122.322,298.794 123.337 C 297.370 124.864,296.352 125.560,294.183 126.487 L 292.424 127.238 293.562 128.314 C 294.993 129.667,296.807 130.846,298.487 131.513 C 300.046 132.132,300.107 132.390,299.037 133.848 C 298.361 134.769,298.200 134.874,297.473 134.874 C 295.213 134.874,290.031 131.395,287.756 128.350 C 287.321 127.769,286.953 127.544,286.089 127.335 C 283.032 126.593,281.729 125.997,280.203 124.641 C 270.348 115.889,278.285 100.706,291.387 103.247 M203.950 103.613 C 204.138 103.802,204.202 106.307,204.202 113.592 L 204.202 123.319 209.412 123.319 C 215.406 123.319,215.126 123.226,215.126 125.226 C 215.126 127.230,215.621 127.115,207.328 127.051 L 200.105 126.996 200.051 115.350 C 200.008 106.172,200.052 103.668,200.261 103.536 C 200.685 103.266,203.665 103.329,203.950 103.613 M272.428 103.536 C 272.637 103.668,272.681 106.172,272.638 115.350 L 272.584 126.996 271.011 127.059 C 270.146 127.093,269.224 127.068,268.963 127.002 L 268.487 126.883 268.487 115.374 C 268.487 106.703,268.550 103.803,268.739 103.613 C 269.024 103.329,272.004 103.266,272.428 103.536 M225.277 107.035 C 215.593 109.403,217.207 123.739,227.158 123.739 C 233.960 123.739,237.638 117.648,234.795 111.094 C 233.480 108.063,228.960 106.135,225.277 107.035 M286.861 107.016 C 282.124 108.167,279.320 112.762,280.546 117.366 C 283.202 127.341,297.722 125.141,297.224 114.840 C 296.961 109.378,292.135 105.735,286.861 107.016 " stroke="none" fill="#fbfbfb" fill-rule="evenodd"></path><path id="path1" d="M140.126 75.972 C 128.054 78.310,126.853 94.854,138.482 98.616 C 144.572 100.586,151.716 98.043,154.187 93.024 C 157.495 86.305,154.456 78.991,147.269 76.369 C 146.326 76.025,141.295 75.745,140.126 75.972 M224.685 75.963 C 222.802 76.417,222.193 76.628,220.907 77.267 C 211.218 82.082,213.525 96.990,224.265 98.962 C 239.980 101.848,246.558 81.802,231.683 76.356 C 230.788 76.028,225.616 75.738,224.685 75.963 M271.310 76.042 C 264.601 77.483,260.537 83.863,262.178 90.377 C 263.987 97.554,271.794 101.041,280.098 98.380 C 280.648 98.203,281.152 97.973,281.216 97.869 C 281.309 97.719,280.777 95.938,280.544 95.620 C 280.514 95.579,279.939 95.737,279.266 95.970 C 274.421 97.646,268.768 95.987,266.761 92.299 C 263.687 86.651,266.114 80.200,271.818 78.857 C 274.502 78.225,279.022 78.902,279.726 80.041 C 280.004 80.491,280.432 80.207,281.183 79.077 C 281.612 78.431,281.933 77.875,281.896 77.842 C 281.696 77.665,279.528 76.644,278.744 76.357 C 277.682 75.968,272.648 75.755,271.310 76.042 M98.699 76.161 C 98.638 76.222,99.151 77.569,99.838 79.155 C 100.526 80.740,101.840 83.787,102.758 85.924 C 103.677 88.062,104.665 90.331,104.955 90.966 C 105.245 91.602,106.165 93.729,107.000 95.693 L 108.518 99.265 109.286 99.329 C 110.021 99.391,110.073 99.350,110.498 98.384 C 110.743 97.828,111.133 96.949,111.366 96.429 C 111.599 95.909,112.375 94.120,113.090 92.454 C 114.602 88.933,114.718 88.836,115.462 90.478 C 115.767 91.151,116.442 92.647,116.962 93.803 C 117.481 94.958,118.269 96.683,118.712 97.637 L 119.518 99.370 120.332 99.370 C 121.261 99.370,121.104 99.642,123.413 94.013 C 124.930 90.316,124.776 90.690,126.016 87.710 C 126.593 86.324,127.409 84.338,127.829 83.298 C 128.249 82.258,128.678 81.218,128.784 80.987 C 129.749 78.869,130.649 76.364,130.499 76.213 C 130.398 76.112,129.676 76.058,128.895 76.093 L 127.474 76.155 126.479 78.676 C 125.931 80.063,124.801 82.946,123.966 85.084 C 123.132 87.222,122.369 89.160,122.271 89.391 C 122.173 89.622,121.778 90.638,121.393 91.648 C 120.526 93.925,120.281 93.963,119.387 91.957 C 118.359 89.650,117.443 87.618,116.888 86.411 C 116.263 85.053,116.419 84.522,119.215 78.468 C 120.263 76.200,120.260 76.168,119.027 76.090 C 117.816 76.013,117.017 76.175,117.017 76.495 C 117.017 76.620,116.888 77.020,116.730 77.384 C 116.573 77.748,116.276 78.472,116.071 78.992 C 114.995 81.727,114.977 81.738,114.284 80.200 C 112.235 75.647,112.583 76.058,110.767 76.054 C 109.165 76.050,109.132 75.624,111.096 80.261 C 111.999 82.394,112.854 84.429,112.996 84.783 C 113.255 85.429,112.765 86.832,110.507 91.904 C 110.299 92.370,110.072 92.925,110.002 93.135 C 109.724 93.973,109.193 93.338,108.276 91.071 C 107.762 89.800,107.258 88.571,107.157 88.340 C 107.056 88.109,106.591 86.975,106.125 85.819 C 103.589 79.535,102.227 76.349,102.019 76.211 C 101.754 76.036,98.868 75.992,98.699 76.161 M158.666 76.190 C 158.460 76.272,158.403 78.736,158.403 87.518 L 158.403 98.739 160.084 98.739 L 161.765 98.739 161.768 94.590 C 161.771 89.177,161.661 89.496,163.535 89.496 C 165.453 89.496,165.185 89.231,168.472 94.380 L 171.255 98.739 173.127 98.739 C 175.342 98.739,175.323 98.790,173.891 96.690 C 169.404 90.105,169.029 89.387,169.905 89.060 C 175.632 86.923,176.088 78.807,170.588 76.913 C 168.471 76.183,159.960 75.667,158.666 76.190 M179.298 76.313 C 179.243 76.457,179.222 81.539,179.252 87.605 L 179.307 98.634 180.935 98.696 L 182.563 98.757 182.563 87.404 L 182.563 76.050 180.981 76.050 C 179.909 76.050,179.366 76.135,179.298 76.313 M192.407 76.313 C 192.231 76.457,191.480 77.332,190.739 78.256 C 189.997 79.181,189.341 79.984,189.281 80.042 C 189.220 80.100,188.449 81.045,187.567 82.143 C 186.685 83.241,185.482 84.706,184.895 85.399 C 183.576 86.956,183.255 87.545,183.520 87.916 C 183.629 88.069,185.373 90.153,187.395 92.548 C 189.417 94.942,191.402 97.311,191.807 97.811 L 192.542 98.719 194.905 98.729 C 197.357 98.740,197.572 98.656,196.821 97.984 C 196.575 97.764,195.372 96.450,194.146 95.063 C 191.931 92.556,191.375 91.939,188.900 89.238 C 188.188 88.461,187.606 87.705,187.607 87.558 C 187.608 87.410,189.686 84.832,192.225 81.828 C 194.765 78.824,196.844 76.295,196.845 76.208 C 196.851 75.930,192.757 76.026,192.407 76.313 M200.234 76.337 C 200.062 76.544,200.011 79.676,200.051 87.629 L 200.105 98.634 201.733 98.696 L 203.361 98.757 203.361 94.218 C 203.361 88.293,202.866 88.866,207.991 88.866 L 212.185 88.866 212.185 87.500 L 212.185 86.134 207.901 86.134 C 202.853 86.134,203.361 86.534,203.361 82.563 C 203.361 78.569,202.727 78.992,208.718 78.992 C 213.177 78.992,213.837 78.950,213.948 78.659 C 214.168 78.087,214.087 76.566,213.824 76.303 C 213.433 75.912,200.559 75.945,200.234 76.337 M242.997 76.190 C 242.920 76.268,242.857 81.373,242.857 87.535 L 242.857 98.739 244.534 98.739 L 246.210 98.739 246.267 94.170 L 246.324 89.601 247.994 89.601 L 249.663 89.601 250.304 90.475 C 250.657 90.955,251.478 92.184,252.129 93.206 C 252.779 94.227,253.846 95.890,254.499 96.901 L 255.687 98.739 257.570 98.739 C 258.606 98.739,259.454 98.684,259.454 98.616 C 259.454 98.508,258.238 96.625,254.654 91.183 C 253.463 89.375,253.467 89.260,254.728 88.888 C 260.008 87.329,260.180 78.907,254.972 76.934 C 252.927 76.160,243.607 75.581,242.997 76.190 M285.601 76.313 C 285.545 76.457,285.525 81.539,285.555 87.605 L 285.609 98.634 292.700 98.690 L 299.790 98.745 299.790 97.482 L 299.790 96.218 294.800 96.216 C 288.115 96.212,288.844 96.689,288.913 92.359 L 288.971 88.761 293.339 88.704 L 297.708 88.647 297.646 87.233 L 297.584 85.819 293.219 85.763 L 288.855 85.706 288.913 82.401 L 288.971 79.097 294.223 78.992 L 299.475 78.887 299.539 77.646 C 299.583 76.795,299.517 76.350,299.329 76.231 C 298.852 75.928,285.718 76.007,285.601 76.313 M145.273 78.857 C 153.297 81.000,154.207 92.238,146.644 95.776 C 145.258 96.424,140.946 96.585,139.790 96.031 C 139.455 95.871,138.863 95.587,138.474 95.401 C 137.347 94.862,135.596 93.028,134.922 91.682 C 131.414 84.672,137.733 76.843,145.273 78.857 M229.782 78.871 C 236.289 80.603,238.466 89.117,233.627 93.909 C 229.576 97.921,222.184 97.023,219.563 92.201 C 215.604 84.917,221.857 76.761,229.782 78.871 M169.145 79.505 C 171.339 80.995,171.290 84.202,169.046 86.009 C 168.135 86.743,162.804 87.156,162.073 86.549 C 161.754 86.285,161.599 80.088,161.892 79.324 C 162.133 78.697,168.177 78.847,169.145 79.505 M253.992 80.003 L 255.042 81.015 255.042 82.535 C 255.042 84.663,254.403 85.721,252.682 86.440 C 251.701 86.850,246.865 86.907,246.471 86.513 C 246.199 86.241,246.095 79.395,246.359 79.132 C 246.436 79.055,247.948 78.992,249.721 78.992 L 252.943 78.992 253.992 80.003 M224.790 103.705 C 212.685 105.276,211.116 122.536,222.731 126.345 C 232.456 129.533,241.778 121.936,239.590 112.605 C 238.122 106.349,232.139 102.751,224.790 103.705 M252.836 103.697 C 246.339 104.646,242.017 109.254,242.017 115.231 C 242.017 124.483,251.488 129.326,263.078 126.000 L 263.866 125.774 263.866 119.815 L 263.866 113.856 259.926 113.913 L 255.987 113.971 255.925 115.284 L 255.862 116.597 258.071 116.597 C 260.817 116.597,260.714 116.448,260.714 120.444 C 260.714 124.020,260.809 123.869,258.379 124.180 C 249.352 125.336,243.036 118.407,246.487 111.134 C 248.613 106.653,255.885 104.885,261.148 107.570 C 262.265 108.140,262.272 108.137,262.998 106.743 C 263.719 105.358,263.700 105.305,262.274 104.703 C 260.424 103.923,255.144 103.359,252.836 103.697 M286.239 103.762 C 273.091 105.770,273.067 124.757,286.210 126.793 C 286.657 126.862,287.224 127.131,287.471 127.391 C 290.208 130.268,290.957 131.013,291.592 131.486 C 291.999 131.789,292.458 132.157,292.612 132.303 C 292.766 132.449,293.711 132.952,294.713 133.420 C 295.714 133.889,296.698 134.361,296.898 134.468 C 297.558 134.822,297.854 134.677,298.631 133.618 C 299.384 132.592,299.443 132.143,298.825 132.143 C 297.990 132.143,294.675 130.081,293.015 128.529 C 291.952 127.537,291.679 126.681,292.425 126.681 C 292.649 126.681,292.891 126.586,292.962 126.471 C 293.034 126.355,293.236 126.261,293.413 126.261 C 295.682 126.261,299.810 122.195,300.828 118.956 C 303.642 110.009,296.186 102.244,286.239 103.762 M200.560 103.922 C 200.483 103.999,200.420 109.151,200.420 115.371 L 200.420 126.681 207.573 126.681 L 214.726 126.681 214.663 125.368 L 214.601 124.055 209.244 123.940 C 206.297 123.878,203.863 123.807,203.834 123.783 C 203.805 123.759,203.782 119.398,203.782 114.093 C 203.782 108.787,203.724 104.297,203.654 104.114 C 203.523 103.771,200.875 103.607,200.560 103.922 M269.117 115.284 L 269.118 126.681 270.693 126.681 L 272.269 126.681 272.269 115.353 L 272.269 104.025 270.693 103.956 L 269.117 103.887 269.117 115.284 M229.647 106.602 C 233.887 107.889,236.144 110.925,236.148 115.349 C 236.159 125.923,221.277 127.652,218.498 117.400 C 217.971 115.458,218.617 111.458,219.619 110.452 C 219.763 110.307,220.057 109.919,220.273 109.590 C 221.854 107.172,226.571 105.668,229.647 106.602 M291.583 106.719 C 297.962 108.618,299.936 117.359,295.004 121.866 C 289.214 127.158,279.895 123.225,279.802 115.449 C 279.752 111.261,282.242 107.929,286.450 106.553 C 287.561 106.190,290.080 106.271,291.583 106.719 " stroke="none" fill="#294b6e" fill-rule="evenodd"></path><path id="path2" d="M199.888 87.500 C 199.888 93.739,199.915 96.262,199.947 93.105 C 199.980 89.948,199.980 84.843,199.947 81.760 C 199.915 78.678,199.888 81.261,199.888 87.500 M242.535 87.395 C 242.535 93.577,242.562 96.106,242.594 93.015 C 242.627 89.924,242.627 84.866,242.594 81.775 C 242.562 78.684,242.535 81.213,242.535 87.395 M203.656 82.668 C 203.657 84.517,203.689 85.245,203.728 84.286 C 203.767 83.328,203.767 81.815,203.727 80.925 C 203.688 80.035,203.656 80.819,203.656 82.668 M174.643 82.563 C 174.643 83.199,174.682 83.459,174.730 83.141 C 174.778 82.823,174.778 82.303,174.730 81.985 C 174.682 81.668,174.643 81.928,174.643 82.563 M291.555 85.661 C 292.746 85.699,294.637 85.698,295.757 85.661 C 296.877 85.623,295.903 85.592,293.592 85.592 C 291.282 85.593,290.365 85.624,291.555 85.661 M265.609 87.185 C 265.609 87.820,265.649 88.080,265.697 87.763 C 265.745 87.445,265.745 86.925,265.697 86.607 C 265.649 86.289,265.609 86.549,265.609 87.185 M163.498 86.500 C 164.278 86.541,165.554 86.541,166.334 86.500 C 167.114 86.460,166.476 86.427,164.916 86.427 C 163.356 86.427,162.718 86.460,163.498 86.500 M247.952 86.500 C 248.732 86.541,250.008 86.541,250.788 86.500 C 251.568 86.460,250.930 86.427,249.370 86.427 C 247.810 86.427,247.172 86.460,247.952 86.500 M235.984 87.500 C 235.986 88.078,236.027 88.289,236.075 87.970 C 236.123 87.650,236.122 87.178,236.072 86.919 C 236.022 86.661,235.983 86.922,235.984 87.500 M218.547 87.920 C 218.549 88.498,218.590 88.709,218.638 88.390 C 218.686 88.071,218.685 87.598,218.635 87.340 C 218.585 87.081,218.546 87.342,218.547 87.920 M205.830 89.232 C 207.014 89.270,208.952 89.270,210.137 89.232 C 211.321 89.195,210.352 89.164,207.983 89.164 C 205.614 89.164,204.645 89.195,205.830 89.232 M203.661 94.013 C 203.661 96.555,203.691 97.566,203.728 96.259 C 203.765 94.953,203.765 92.873,203.728 91.638 C 203.691 90.402,203.661 91.471,203.661 94.013 M220.378 93.133 C 220.378 93.169,220.685 93.476,221.061 93.816 L 221.744 94.433 221.127 93.750 C 220.551 93.114,220.378 92.971,220.378 93.133 M292.082 95.955 C 293.561 95.992,295.925 95.991,297.334 95.955 C 298.742 95.919,297.532 95.889,294.643 95.889 C 291.754 95.890,290.602 95.919,292.082 95.955 M142.492 96.369 C 142.812 96.418,143.284 96.416,143.543 96.366 C 143.801 96.317,143.540 96.277,142.962 96.279 C 142.384 96.280,142.173 96.321,142.492 96.369 M226.838 96.367 C 227.098 96.417,227.524 96.417,227.784 96.367 C 228.044 96.317,227.831 96.276,227.311 96.276 C 226.791 96.276,226.578 96.317,226.838 96.367 M158.247 98.739 C 158.312 98.982,158.693 99.058,159.891 99.071 L 161.450 99.088 159.985 99.008 C 159.174 98.964,158.440 98.816,158.341 98.676 C 158.214 98.499,158.186 98.517,158.247 98.739 M259.664 98.718 C 259.664 98.911,259.128 98.960,257.582 98.911 C 256.438 98.874,255.545 98.915,255.599 99.002 C 255.754 99.252,259.620 99.190,259.778 98.936 C 259.854 98.812,259.859 98.655,259.790 98.585 C 259.721 98.516,259.664 98.576,259.664 98.718 M285.475 99.005 C 285.564 99.093,288.844 99.140,292.765 99.110 L 299.895 99.054 292.605 98.949 C 288.595 98.892,285.387 98.917,285.475 99.005 M172.538 99.104 C 173.090 99.148,173.941 99.147,174.429 99.103 C 174.916 99.059,174.464 99.024,173.424 99.024 C 172.384 99.025,171.986 99.061,172.538 99.104 M179.989 99.103 C 180.481 99.148,181.284 99.148,181.775 99.103 C 182.266 99.059,181.864 99.023,180.882 99.023 C 179.900 99.023,179.498 99.059,179.989 99.103 M193.758 99.105 C 194.426 99.147,195.466 99.146,196.069 99.104 C 196.671 99.062,196.124 99.028,194.853 99.028 C 193.582 99.029,193.089 99.063,193.758 99.105 M200.683 99.103 C 201.116 99.148,201.825 99.148,202.258 99.103 C 202.692 99.057,202.337 99.020,201.471 99.020 C 200.604 99.020,200.249 99.057,200.683 99.103 M243.645 99.103 C 244.136 99.148,244.940 99.148,245.431 99.103 C 245.922 99.059,245.520 99.023,244.538 99.023 C 243.556 99.023,243.154 99.059,243.645 99.103 M141.229 99.515 C 141.431 99.567,141.762 99.567,141.964 99.515 C 142.166 99.462,142.001 99.418,141.597 99.418 C 141.192 99.418,141.027 99.462,141.229 99.515 M225.683 99.515 C 225.885 99.567,226.216 99.567,226.418 99.515 C 226.620 99.462,226.455 99.418,226.050 99.418 C 225.646 99.418,225.481 99.462,225.683 99.515 M226.628 103.303 C 227.004 103.350,227.618 103.350,227.994 103.303 C 228.369 103.257,228.062 103.219,227.311 103.219 C 226.560 103.219,226.253 103.257,226.628 103.303 M288.187 103.304 C 288.564 103.350,289.131 103.349,289.447 103.301 C 289.763 103.253,289.454 103.215,288.761 103.216 C 288.067 103.218,287.809 103.257,288.187 103.304 M201.208 103.725 C 201.699 103.769,202.503 103.769,202.994 103.725 C 203.485 103.681,203.083 103.645,202.101 103.645 C 201.119 103.645,200.717 103.681,201.208 103.725 M270.011 103.724 C 270.444 103.770,271.153 103.770,271.586 103.724 C 272.019 103.679,271.665 103.642,270.798 103.642 C 269.932 103.642,269.577 103.679,270.011 103.724 M200.098 115.336 C 200.098 121.518,200.125 124.047,200.157 120.956 C 200.190 117.865,200.190 112.807,200.157 109.716 C 200.125 106.626,200.098 109.154,200.098 115.336 M236.765 107.038 C 237.157 107.442,237.525 107.773,237.582 107.773 C 237.640 107.773,237.367 107.442,236.975 107.038 C 236.583 106.633,236.215 106.303,236.157 106.303 C 236.099 106.303,236.373 106.633,236.765 107.038 M264.168 119.853 C 264.168 123.088,264.197 124.382,264.233 122.729 C 264.268 121.075,264.268 118.428,264.233 116.847 C 264.197 115.265,264.168 116.618,264.168 119.853 M260.378 120.273 C 260.378 122.006,260.411 122.687,260.450 121.787 C 260.490 120.886,260.490 119.468,260.450 118.635 C 260.410 117.803,260.378 118.540,260.378 120.273 M206.787 123.686 C 208.267 123.723,210.631 123.723,212.040 123.686 C 213.448 123.650,212.237 123.620,209.349 123.620 C 206.460 123.621,205.307 123.650,206.787 123.686 M226.943 124.094 C 227.145 124.147,227.476 124.147,227.679 124.094 C 227.881 124.042,227.715 123.998,227.311 123.998 C 226.907 123.998,226.741 124.042,226.943 124.094 M255.405 124.101 C 255.778 124.148,256.440 124.148,256.876 124.103 C 257.311 124.057,257.006 124.019,256.197 124.019 C 255.389 124.018,255.032 124.055,255.405 124.101 " stroke="none" fill="#a1b1c1" fill-rule="evenodd"></path><path id="path3" d="M141.971 75.785 C 142.582 75.828,143.527 75.828,144.072 75.784 C 144.617 75.741,144.118 75.706,142.962 75.707 C 141.807 75.708,141.361 75.743,141.971 75.785 M226.425 75.785 C 227.036 75.828,227.981 75.828,228.526 75.784 C 229.071 75.741,228.571 75.706,227.416 75.707 C 226.261 75.708,225.815 75.743,226.425 75.785 M273.484 75.785 C 274.094 75.828,275.040 75.828,275.585 75.784 C 276.130 75.741,275.630 75.706,274.475 75.707 C 273.319 75.708,272.873 75.743,273.484 75.785 M285.342 87.330 C 285.316 93.592,285.365 98.759,285.452 98.812 C 285.595 98.901,285.592 90.601,285.446 80.042 C 285.415 77.789,285.368 81.068,285.342 87.330 M158.291 87.395 C 158.291 93.577,158.318 96.106,158.351 93.015 C 158.383 89.924,158.383 84.866,158.351 81.775 C 158.318 78.684,158.291 81.213,158.291 87.395 M214.145 77.626 C 214.145 78.435,214.183 78.740,214.229 78.304 C 214.274 77.868,214.274 77.206,214.227 76.834 C 214.181 76.461,214.144 76.817,214.145 77.626 M299.647 77.521 C 299.647 78.272,299.685 78.579,299.732 78.204 C 299.778 77.828,299.778 77.214,299.732 76.838 C 299.685 76.463,299.647 76.770,299.647 77.521 M162.112 79.149 C 162.058 79.236,162.879 79.282,163.937 79.251 C 167.412 79.150,167.798 79.068,164.981 79.029 C 163.457 79.009,162.166 79.063,162.112 79.149 M203.709 79.149 C 203.655 79.236,205.138 79.282,207.005 79.253 C 213.348 79.152,213.983 79.078,208.888 79.035 C 206.093 79.011,203.762 79.063,203.709 79.149 M246.565 79.149 C 246.511 79.236,247.333 79.282,248.391 79.251 C 251.866 79.150,252.251 79.068,249.435 79.029 C 247.910 79.009,246.619 79.063,246.565 79.149 M289.213 79.149 C 289.159 79.236,290.690 79.282,292.614 79.253 C 299.075 79.153,299.722 79.078,294.498 79.035 C 291.645 79.011,289.267 79.063,289.213 79.149 M233.508 81.303 C 233.960 81.765,234.376 82.143,234.434 82.143 C 234.492 82.143,234.170 81.765,233.718 81.303 C 233.267 80.840,232.851 80.462,232.793 80.462 C 232.735 80.462,233.057 80.840,233.508 81.303 M136.436 81.355 L 135.819 82.038 136.502 81.421 C 136.878 81.081,137.185 80.774,137.185 80.738 C 137.185 80.576,137.012 80.719,136.436 81.355 M254.885 82.248 C 254.887 82.710,254.930 82.874,254.981 82.613 C 255.031 82.352,255.029 81.974,254.976 81.773 C 254.924 81.572,254.883 81.786,254.885 82.248 M297.730 87.128 L 297.689 88.647 293.540 88.708 L 289.391 88.770 293.547 88.818 C 298.273 88.872,297.961 89.008,297.845 86.953 L 297.770 85.609 297.730 87.128 M205.830 86.081 C 207.014 86.119,208.952 86.119,210.137 86.081 C 211.321 86.044,210.352 86.013,207.983 86.013 C 205.614 86.013,204.645 86.044,205.830 86.081 M239.965 86.555 C 239.965 86.959,240.008 87.124,240.061 86.922 C 240.114 86.720,240.114 86.389,240.061 86.187 C 240.008 85.985,239.965 86.150,239.965 86.555 M261.624 87.500 C 261.624 88.309,261.662 88.614,261.708 88.178 C 261.753 87.742,261.753 87.080,261.706 86.707 C 261.660 86.335,261.623 86.691,261.624 87.500 M130.105 87.605 C 130.105 88.241,130.144 88.501,130.192 88.183 C 130.241 87.865,130.241 87.345,130.192 87.027 C 130.144 86.710,130.105 86.970,130.105 87.605 M239.969 88.340 C 239.971 88.803,240.014 88.967,240.065 88.706 C 240.115 88.444,240.113 88.066,240.060 87.865 C 240.008 87.664,239.967 87.878,239.969 88.340 M193.697 94.433 C 194.089 94.837,194.457 95.168,194.515 95.168 C 194.573 95.168,194.300 94.837,193.908 94.433 C 193.516 94.028,193.148 93.697,193.090 93.697 C 193.032 93.697,193.306 94.028,193.697 94.433 M236.650 95.851 L 235.819 96.744 236.712 95.913 C 237.203 95.456,237.605 95.055,237.605 95.020 C 237.605 94.861,237.422 95.020,236.650 95.851 M217.857 95.903 C 218.249 96.308,218.617 96.639,218.675 96.639 C 218.733 96.639,218.459 96.308,218.067 95.903 C 217.675 95.499,217.307 95.168,217.250 95.168 C 217.192 95.168,217.465 95.499,217.857 95.903 M121.313 99.146 C 121.203 99.253,120.735 99.379,120.273 99.425 L 119.433 99.509 120.300 99.545 C 120.851 99.567,121.262 99.465,121.429 99.265 C 121.715 98.919,121.632 98.833,121.313 99.146 M108.879 99.521 C 109.198 99.569,109.671 99.567,109.929 99.518 C 110.188 99.468,109.926 99.428,109.349 99.430 C 108.771 99.431,108.560 99.472,108.879 99.521 M142.597 99.518 C 142.858 99.569,143.236 99.567,143.437 99.514 C 143.638 99.462,143.424 99.420,142.962 99.423 C 142.500 99.425,142.336 99.468,142.597 99.518 M227.051 99.518 C 227.312 99.569,227.690 99.567,227.891 99.514 C 228.092 99.462,227.878 99.420,227.416 99.423 C 226.954 99.425,226.789 99.468,227.051 99.518 M274.320 99.518 C 274.581 99.569,274.959 99.567,275.160 99.514 C 275.361 99.462,275.147 99.420,274.685 99.423 C 274.223 99.425,274.058 99.468,274.320 99.518 M253.521 103.510 C 253.783 103.560,254.161 103.558,254.362 103.506 C 254.563 103.453,254.349 103.412,253.887 103.414 C 253.424 103.417,253.260 103.460,253.521 103.510 M256.148 103.512 C 256.467 103.560,256.940 103.559,257.198 103.509 C 257.457 103.459,257.195 103.420,256.618 103.421 C 256.040 103.423,255.829 103.464,256.148 103.512 M203.879 113.550 C 203.878 118.981,203.906 121.233,203.939 118.554 C 203.972 115.876,203.972 111.433,203.939 108.680 C 203.906 105.928,203.879 108.120,203.879 113.550 M244.958 107.248 C 244.448 107.768,244.077 108.193,244.135 108.193 C 244.193 108.193,244.658 107.768,245.168 107.248 C 245.678 106.728,246.049 106.303,245.991 106.303 C 245.933 106.303,245.468 106.728,244.958 107.248 M254.674 106.453 C 254.992 106.501,255.512 106.501,255.830 106.453 C 256.148 106.405,255.888 106.365,255.252 106.365 C 254.617 106.365,254.357 106.405,254.674 106.453 M235.977 114.391 C 235.980 114.853,236.023 115.017,236.073 114.756 C 236.123 114.495,236.121 114.116,236.069 113.916 C 236.016 113.715,235.975 113.929,235.977 114.391 M245.657 115.021 C 245.658 115.830,245.696 116.135,245.742 115.699 C 245.787 115.263,245.786 114.601,245.740 114.229 C 245.693 113.856,245.656 114.212,245.657 115.021 M255.760 113.940 C 255.700 114.097,255.685 114.829,255.726 115.568 L 255.801 116.912 255.842 115.393 L 255.882 113.875 259.926 113.813 L 263.971 113.751 259.920 113.703 C 256.672 113.665,255.848 113.712,255.760 113.940 M239.985 115.231 C 239.986 116.040,240.024 116.345,240.069 115.909 C 240.115 115.473,240.114 114.812,240.068 114.439 C 240.021 114.066,239.984 114.422,239.985 115.231 M235.977 116.282 C 235.980 116.744,236.023 116.908,236.073 116.647 C 236.123 116.385,236.121 116.007,236.069 115.806 C 236.016 115.606,235.975 115.819,235.977 116.282 M256.992 116.961 C 257.544 117.005,258.395 117.004,258.882 116.960 C 259.370 116.916,258.918 116.881,257.878 116.881 C 256.838 116.882,256.439 116.918,256.992 116.961 M247.479 120.444 C 247.479 120.480,247.786 120.787,248.162 121.127 L 248.845 121.744 248.228 121.061 C 247.652 120.424,247.479 120.282,247.479 120.444 M245.159 123.372 C 246.030 124.299,246.218 124.466,246.218 124.308 C 246.218 124.275,245.769 123.826,245.221 123.311 L 244.223 122.374 245.159 123.372 M217.848 123.582 C 218.719 124.509,218.908 124.676,218.908 124.519 C 218.908 124.485,218.459 124.036,217.910 123.521 L 216.912 122.584 217.848 123.582 M236.543 123.687 L 235.819 124.475 236.607 123.751 C 237.340 123.077,237.492 122.899,237.331 122.899 C 237.296 122.899,236.942 123.254,236.543 123.687 M214.773 125.420 C 214.773 126.171,214.811 126.478,214.858 126.103 C 214.904 125.727,214.904 125.113,214.858 124.737 C 214.811 124.362,214.773 124.669,214.773 125.420 M200.391 126.736 C 200.480 126.824,203.713 126.872,207.576 126.841 L 214.601 126.785 207.416 126.681 C 203.464 126.623,200.303 126.648,200.391 126.736 M226.628 127.253 C 227.004 127.299,227.618 127.299,227.994 127.253 C 228.369 127.206,228.062 127.168,227.311 127.168 C 226.560 127.168,226.253 127.206,226.628 127.253 M254.152 127.249 C 254.413 127.300,254.791 127.298,254.992 127.245 C 255.193 127.193,254.979 127.151,254.517 127.154 C 254.055 127.156,253.890 127.199,254.152 127.249 M256.040 127.249 C 256.300 127.299,256.725 127.299,256.985 127.249 C 257.245 127.199,257.033 127.158,256.513 127.158 C 255.993 127.158,255.780 127.199,256.040 127.249 " stroke="none" fill="#849cb4" fill-rule="evenodd"></path><path id="path4" d="M179.132 76.190 C 178.928 76.394,178.966 98.374,179.171 98.696 C 179.294 98.891,179.818 98.951,181.006 98.907 L 182.668 98.845 182.671 87.500 L 182.674 76.155 182.617 87.456 L 182.559 98.757 180.933 98.696 L 179.307 98.634 179.307 87.342 C 179.307 81.132,179.299 76.050,179.289 76.050 C 179.280 76.050,179.209 76.113,179.132 76.190 M242.743 76.313 C 242.688 76.457,242.667 81.539,242.698 87.605 L 242.752 98.634 242.857 87.342 C 242.915 81.132,242.936 76.050,242.903 76.050 C 242.871 76.050,242.799 76.169,242.743 76.313 M98.754 76.996 C 98.754 77.111,98.889 77.442,99.055 77.731 C 99.220 78.020,99.355 78.162,99.355 78.046 C 99.355 77.931,99.220 77.600,99.055 77.311 C 98.889 77.022,98.754 76.880,98.754 76.996 M256.723 77.797 C 256.723 77.833,257.030 78.140,257.405 78.480 L 258.088 79.097 257.471 78.414 C 256.896 77.777,256.723 77.635,256.723 77.797 M152.092 79.254 C 152.963 80.182,153.151 80.349,153.151 80.191 C 153.151 80.157,152.702 79.708,152.153 79.193 L 151.155 78.256 152.092 79.254 M173.319 78.939 C 173.594 79.315,173.851 79.622,173.891 79.622 C 174.051 79.622,173.530 78.834,173.186 78.554 C 172.959 78.370,173.009 78.517,173.319 78.939 M217.857 79.307 C 217.347 79.827,216.977 80.252,217.034 80.252 C 217.092 80.252,217.557 79.827,218.067 79.307 C 218.578 78.787,218.948 78.361,218.890 78.361 C 218.832 78.361,218.367 78.787,217.857 79.307 M236.546 79.254 C 237.416 80.182,237.605 80.349,237.605 80.191 C 237.605 80.157,237.156 79.708,236.607 79.193 L 235.609 78.256 236.546 79.254 M143.540 78.716 C 143.742 78.769,144.073 78.769,144.275 78.716 C 144.477 78.663,144.312 78.620,143.908 78.620 C 143.503 78.620,143.338 78.663,143.540 78.716 M227.994 78.716 C 228.196 78.769,228.527 78.769,228.729 78.716 C 228.931 78.663,228.766 78.620,228.361 78.620 C 227.957 78.620,227.791 78.663,227.994 78.716 M275.053 78.716 C 275.255 78.769,275.586 78.769,275.788 78.716 C 275.990 78.663,275.825 78.620,275.420 78.620 C 275.016 78.620,274.850 78.663,275.053 78.716 M223.622 79.318 C 223.221 79.640,223.221 79.642,223.634 79.452 C 223.866 79.345,224.196 79.206,224.370 79.142 C 224.642 79.041,224.640 79.023,224.357 79.008 C 224.177 78.999,223.846 79.139,223.622 79.318 M230.644 79.315 C 231.033 79.484,231.411 79.618,231.484 79.614 C 231.758 79.599,230.555 79.007,230.252 79.007 C 230.079 79.008,230.255 79.146,230.644 79.315 M246.312 79.262 C 246.254 79.411,246.234 81.089,246.266 82.991 L 246.325 86.450 246.429 82.720 C 246.532 79.059,246.520 78.719,246.312 79.262 M278.349 79.424 C 278.863 79.657,279.424 79.962,279.598 80.102 C 279.847 80.304,279.879 80.302,279.753 80.092 C 279.565 79.778,278.077 78.990,277.687 78.996 C 277.538 78.999,277.836 79.191,278.349 79.424 M288.958 79.265 C 288.900 79.415,288.880 80.809,288.913 82.364 L 288.972 85.189 289.077 82.090 C 289.179 79.039,289.166 78.722,288.958 79.265 M161.851 82.878 C 161.850 84.842,161.882 85.674,161.921 84.727 C 161.960 83.779,161.960 82.172,161.921 81.155 C 161.883 80.139,161.851 80.914,161.851 82.878 M203.446 82.563 C 203.446 84.354,203.478 85.087,203.518 84.191 C 203.557 83.296,203.557 81.830,203.518 80.935 C 203.478 80.039,203.446 80.772,203.446 82.563 M264.035 80.410 C 263.665 80.841,263.387 81.303,263.499 81.303 C 263.541 81.303,263.786 81.019,264.042 80.672 C 264.549 79.987,264.544 79.817,264.035 80.410 M149.160 81.197 C 149.552 81.602,149.920 81.933,149.977 81.933 C 150.035 81.933,149.762 81.602,149.370 81.197 C 148.978 80.793,148.610 80.462,148.552 80.462 C 148.494 80.462,148.768 80.793,149.160 81.197 M267.739 81.145 L 267.122 81.828 267.805 81.211 C 268.441 80.636,268.584 80.462,268.422 80.462 C 268.386 80.462,268.078 80.769,267.739 81.145 M170.483 82.773 C 170.483 83.560,170.553 84.094,170.638 83.961 C 170.722 83.828,170.792 83.293,170.792 82.773 C 170.792 82.253,170.722 81.719,170.638 81.585 C 170.553 81.452,170.483 81.986,170.483 82.773 M174.433 82.563 C 174.433 83.199,174.472 83.459,174.520 83.141 C 174.568 82.823,174.568 82.303,174.520 81.985 C 174.472 81.668,174.433 81.928,174.433 82.563 M258.872 82.563 C 258.872 82.967,258.916 83.133,258.968 82.931 C 259.021 82.728,259.021 82.398,258.968 82.195 C 258.916 81.993,258.872 82.159,258.872 82.563 M253.873 85.557 L 253.256 86.239 253.939 85.622 C 254.315 85.283,254.622 84.976,254.622 84.940 C 254.622 84.777,254.449 84.920,253.873 85.557 M214.755 85.924 C 214.755 86.329,214.798 86.494,214.851 86.292 C 214.904 86.090,214.904 85.759,214.851 85.557 C 214.798 85.355,214.755 85.520,214.755 85.924 M130.327 87.500 C 130.326 88.540,130.362 88.992,130.406 88.504 C 130.450 88.017,130.450 87.166,130.407 86.613 C 130.363 86.061,130.327 86.460,130.327 87.500 M218.349 87.500 C 218.350 88.424,218.387 88.776,218.431 88.282 C 218.476 87.788,218.475 87.032,218.430 86.602 C 218.385 86.171,218.349 86.576,218.349 87.500 M102.746 86.239 C 102.746 86.355,102.881 86.686,103.046 86.975 C 103.211 87.264,103.346 87.405,103.346 87.290 C 103.346 87.174,103.211 86.843,103.046 86.555 C 102.881 86.266,102.746 86.124,102.746 86.239 M155.531 87.500 C 155.532 88.309,155.570 88.614,155.616 88.178 C 155.661 87.742,155.660 87.080,155.614 86.707 C 155.567 86.335,155.530 86.691,155.531 87.500 M212.225 87.447 L 212.185 88.866 207.996 88.866 C 205.691 88.866,203.762 88.936,203.709 89.023 C 203.655 89.110,205.545 89.153,207.908 89.120 C 212.753 89.051,212.459 89.174,212.341 87.266 L 212.264 86.029 212.225 87.447 M151.748 87.605 C 151.748 88.356,151.786 88.663,151.833 88.288 C 151.879 87.912,151.879 87.298,151.833 86.922 C 151.786 86.547,151.748 86.854,151.748 87.605 M265.396 87.290 C 265.398 87.868,265.439 88.079,265.487 87.760 C 265.535 87.440,265.534 86.968,265.484 86.709 C 265.434 86.451,265.395 86.712,265.396 87.290 M133.886 87.605 C 133.886 88.241,133.926 88.501,133.974 88.183 C 134.022 87.865,134.022 87.345,133.974 87.027 C 133.926 86.710,133.886 86.970,133.886 87.605 M163.498 86.710 C 164.278 86.751,165.554 86.751,166.334 86.710 C 167.114 86.670,166.476 86.637,164.916 86.637 C 163.356 86.637,162.718 86.670,163.498 86.710 M247.952 86.710 C 248.732 86.751,250.008 86.751,250.788 86.710 C 251.568 86.670,250.930 86.637,249.370 86.637 C 247.810 86.637,247.172 86.670,247.952 86.710 M236.187 87.500 C 236.190 87.962,236.233 88.127,236.283 87.865 C 236.333 87.604,236.331 87.226,236.279 87.025 C 236.226 86.824,236.185 87.038,236.187 87.500 M214.545 87.605 C 214.545 88.009,214.588 88.175,214.641 87.973 C 214.693 87.770,214.693 87.440,214.641 87.237 C 214.588 87.035,214.545 87.201,214.545 87.605 M256.815 87.658 L 256.197 88.340 256.880 87.723 C 257.256 87.384,257.563 87.077,257.563 87.041 C 257.563 86.878,257.390 87.021,256.815 87.658 M188.550 88.866 C 189.002 89.328,189.418 89.706,189.476 89.706 C 189.534 89.706,189.212 89.328,188.761 88.866 C 188.309 88.403,187.893 88.025,187.835 88.025 C 187.777 88.025,188.099 88.403,188.550 88.866 M214.755 89.076 C 214.755 89.480,214.798 89.645,214.851 89.443 C 214.904 89.241,214.904 88.910,214.851 88.708 C 214.798 88.506,214.755 88.671,214.755 89.076 M125.244 89.400 C 124.892 90.172,124.959 90.337,125.340 89.635 C 125.518 89.307,125.624 88.999,125.576 88.951 C 125.528 88.903,125.379 89.105,125.244 89.400 M162.768 89.650 C 163.262 89.694,164.019 89.694,164.449 89.649 C 164.879 89.603,164.475 89.567,163.550 89.568 C 162.626 89.569,162.274 89.606,162.768 89.650 M203.409 94.081 L 203.361 98.771 201.700 98.703 C 200.786 98.665,200.083 98.705,200.137 98.792 C 200.314 99.076,203.365 98.976,203.477 98.682 C 203.534 98.534,203.553 96.384,203.519 93.902 L 203.458 89.391 203.409 94.081 M246.359 89.636 C 246.282 89.713,246.218 91.789,246.218 94.249 L 246.218 98.723 244.485 98.798 L 242.752 98.873 244.538 98.859 L 246.324 98.845 246.380 94.284 L 246.437 89.723 248.061 89.652 L 249.685 89.580 248.092 89.538 C 247.216 89.515,246.436 89.559,246.359 89.636 M288.951 92.752 C 288.951 94.601,288.983 95.329,289.022 94.370 C 289.061 93.412,289.061 91.899,289.022 91.009 C 288.982 90.119,288.950 90.903,288.951 92.752 M161.813 94.372 L 161.765 98.723 160.032 98.793 L 158.298 98.864 160.038 98.907 C 162.168 98.959,161.998 99.382,161.922 94.217 L 161.860 90.021 161.813 94.372 M190.651 91.176 C 191.103 91.639,191.519 92.017,191.577 92.017 C 191.635 92.017,191.313 91.639,190.861 91.176 C 190.410 90.714,189.994 90.336,189.936 90.336 C 189.878 90.336,190.200 90.714,190.651 91.176 M105.057 91.492 C 105.057 91.607,105.192 91.938,105.357 92.227 C 105.522 92.516,105.657 92.658,105.657 92.542 C 105.657 92.426,105.522 92.096,105.357 91.807 C 105.192 91.518,105.057 91.376,105.057 91.492 M150.401 92.279 C 150.267 92.539,149.957 92.988,149.711 93.276 L 149.265 93.800 149.759 93.381 C 150.228 92.985,150.968 91.807,150.748 91.807 C 150.691 91.807,150.535 92.019,150.401 92.279 M109.119 93.114 C 109.149 93.262,109.347 93.382,109.559 93.382 C 109.771 93.382,109.968 93.262,109.998 93.114 C 110.028 92.967,110.004 92.944,109.946 93.062 C 109.887 93.180,109.713 93.277,109.559 93.277 C 109.405 93.277,109.231 93.180,109.172 93.062 C 109.113 92.944,109.090 92.967,109.119 93.114 M220.790 93.750 C 221.660 94.678,221.849 94.844,221.849 94.687 C 221.849 94.653,221.400 94.204,220.851 93.689 L 219.853 92.752 220.790 93.750 M233.499 93.960 L 232.668 94.853 233.561 94.022 C 234.391 93.250,234.550 93.067,234.391 93.067 C 234.357 93.067,233.955 93.469,233.499 93.960 M267.962 93.908 C 268.413 94.370,268.830 94.748,268.888 94.748 C 268.946 94.748,268.624 94.370,268.172 93.908 C 267.721 93.445,267.304 93.067,267.247 93.067 C 267.189 93.067,267.511 93.445,267.962 93.908 M252.618 94.275 C 252.942 94.766,253.247 95.168,253.296 95.168 C 253.448 95.168,252.643 93.889,252.328 93.629 C 252.164 93.493,252.294 93.784,252.618 94.275 M194.118 95.063 C 194.510 95.467,194.878 95.798,194.935 95.798 C 194.993 95.798,194.720 95.467,194.328 95.063 C 193.936 94.659,193.568 94.328,193.510 94.328 C 193.452 94.328,193.726 94.659,194.118 95.063 M264.907 95.641 C 265.778 96.568,265.966 96.735,265.966 96.577 C 265.966 96.544,265.517 96.095,264.968 95.579 L 263.971 94.643 264.907 95.641 M133.508 95.798 C 133.960 96.261,134.376 96.639,134.434 96.639 C 134.492 96.639,134.170 96.261,133.718 95.798 C 133.267 95.336,132.851 94.958,132.793 94.958 C 132.735 94.958,133.057 95.336,133.508 95.798 M195.693 96.849 C 196.145 97.311,196.561 97.689,196.619 97.689 C 196.677 97.689,196.355 97.311,195.903 96.849 C 195.452 96.387,195.036 96.008,194.978 96.008 C 194.920 96.008,195.242 96.387,195.693 96.849 M294.643 96.164 L 299.790 96.226 299.790 97.488 L 299.790 98.750 292.657 98.692 C 288.734 98.661,285.597 98.707,285.685 98.795 C 285.774 98.883,289.007 98.930,292.871 98.900 L 299.895 98.845 299.895 97.479 L 299.895 96.113 294.695 96.108 L 289.496 96.102 294.643 96.164 M258.339 96.865 C 258.548 97.220,258.853 97.622,259.017 97.758 C 259.181 97.893,259.050 97.602,258.726 97.111 C 258.046 96.080,257.778 95.910,258.339 96.865 M274.737 96.581 C 275.113 96.627,275.727 96.627,276.103 96.581 C 276.478 96.534,276.171 96.496,275.420 96.496 C 274.669 96.496,274.362 96.534,274.737 96.581 M259.374 98.413 C 259.537 98.840,255.935 98.899,255.462 98.477 C 255.211 98.253,255.209 98.269,255.446 98.582 C 255.822 99.079,259.664 99.138,259.664 98.647 C 259.664 98.480,259.570 98.286,259.456 98.216 C 259.337 98.142,259.302 98.226,259.374 98.413 M175.000 98.521 C 175.000 98.632,174.173 98.755,173.162 98.793 L 171.324 98.863 173.267 98.906 C 174.873 98.942,175.210 98.895,175.210 98.634 C 175.210 98.461,175.163 98.319,175.105 98.319 C 175.047 98.319,175.000 98.410,175.000 98.521 M194.958 98.739 L 192.542 98.866 195.011 98.908 C 196.544 98.934,197.479 98.870,197.479 98.739 C 197.479 98.624,197.455 98.548,197.426 98.571 C 197.398 98.594,196.287 98.670,194.958 98.739 M141.126 99.308 C 141.388 99.358,141.766 99.357,141.967 99.304 C 142.168 99.251,141.954 99.210,141.492 99.213 C 141.029 99.215,140.865 99.258,141.126 99.308 M143.960 99.304 C 144.162 99.357,144.493 99.357,144.695 99.304 C 144.898 99.252,144.732 99.208,144.328 99.208 C 143.923 99.208,143.758 99.252,143.960 99.304 M225.580 99.308 C 225.842 99.358,226.220 99.357,226.421 99.304 C 226.621 99.251,226.408 99.210,225.945 99.213 C 225.483 99.215,225.319 99.258,225.580 99.308 M228.311 99.308 C 228.573 99.358,228.951 99.357,229.152 99.304 C 229.352 99.251,229.139 99.210,228.676 99.213 C 228.214 99.215,228.050 99.258,228.311 99.308 M272.952 99.304 C 273.154 99.357,273.485 99.357,273.687 99.304 C 273.889 99.252,273.724 99.208,273.319 99.208 C 272.915 99.208,272.749 99.252,272.952 99.304 M275.790 99.308 C 276.052 99.358,276.430 99.357,276.631 99.304 C 276.831 99.251,276.618 99.210,276.155 99.213 C 275.693 99.215,275.529 99.258,275.790 99.308 M226.523 103.514 C 226.956 103.560,227.665 103.560,228.099 103.514 C 228.532 103.469,228.178 103.432,227.311 103.432 C 226.444 103.432,226.090 103.469,226.523 103.514 M286.450 103.549 C 285.987 103.619,287.027 103.676,288.761 103.676 C 290.646 103.676,291.532 103.619,290.966 103.534 C 289.836 103.365,287.614 103.372,286.450 103.549 M257.405 103.716 C 257.608 103.769,257.939 103.769,258.141 103.716 C 258.343 103.663,258.178 103.620,257.773 103.620 C 257.369 103.620,257.203 103.663,257.405 103.716 M269.006 115.231 C 269.006 121.586,269.032 124.216,269.065 121.076 C 269.098 117.935,269.098 112.736,269.065 109.521 C 269.032 106.307,269.006 108.876,269.006 115.231 M270.744 103.932 L 272.265 104.010 272.322 115.345 L 272.379 126.681 272.377 115.284 L 272.374 103.887 270.798 103.871 L 269.223 103.855 270.744 103.932 M283.858 104.200 C 283.242 104.422,282.438 104.803,282.073 105.048 C 281.302 105.564,281.398 105.537,283.042 104.769 C 283.709 104.457,284.371 104.200,284.512 104.198 C 284.653 104.197,284.911 104.104,285.084 103.992 C 285.574 103.675,285.087 103.758,283.858 104.200 M200.308 115.336 C 200.308 121.518,200.335 124.047,200.367 120.956 C 200.400 117.865,200.400 112.807,200.367 109.716 C 200.335 106.626,200.308 109.154,200.308 115.336 M294.118 104.501 C 294.703 104.853,295.163 104.945,294.842 104.645 C 294.733 104.543,294.407 104.397,294.118 104.322 L 293.592 104.184 294.118 104.501 M217.952 106.985 L 217.122 107.878 218.015 107.048 C 218.845 106.275,219.004 106.092,218.845 106.092 C 218.811 106.092,218.409 106.494,217.952 106.985 M279.265 107.201 C 278.688 107.811,278.102 108.543,277.962 108.829 C 277.757 109.248,277.801 109.227,278.189 108.718 C 278.453 108.372,279.086 107.639,279.595 107.090 C 280.103 106.541,280.473 106.092,280.416 106.092 C 280.360 106.092,279.841 106.591,279.265 107.201 M226.418 106.456 C 226.909 106.501,227.713 106.501,228.204 106.456 C 228.695 106.412,228.293 106.376,227.311 106.376 C 226.329 106.376,225.927 106.412,226.418 106.456 M236.660 107.143 C 237.111 107.605,237.527 107.983,237.585 107.983 C 237.643 107.983,237.321 107.605,236.870 107.143 C 236.418 106.681,236.002 106.303,235.944 106.303 C 235.886 106.303,236.208 106.681,236.660 107.143 M256.320 106.378 C 256.368 106.420,256.833 106.510,257.353 106.579 C 257.984 106.663,258.159 106.642,257.878 106.518 C 257.477 106.340,256.138 106.220,256.320 106.378 M286.838 106.463 C 286.705 106.548,287.624 106.618,288.880 106.618 C 290.135 106.618,291.000 106.553,290.802 106.475 C 290.311 106.281,287.139 106.271,286.838 106.463 M298.110 107.038 C 298.398 107.384,298.658 107.707,298.687 107.756 C 298.716 107.804,298.786 107.797,298.842 107.740 C 298.899 107.684,298.639 107.361,298.265 107.022 L 297.586 106.408 298.110 107.038 M284.454 107.364 C 283.818 107.713,282.967 108.348,282.563 108.775 L 281.828 109.551 282.573 108.872 C 282.983 108.498,283.929 107.864,284.674 107.462 C 285.420 107.061,285.935 106.732,285.819 106.731 C 285.704 106.731,285.089 107.016,284.454 107.364 M292.427 107.152 C 292.941 107.388,293.503 107.696,293.675 107.835 C 293.922 108.035,293.955 108.032,293.830 107.824 C 293.643 107.513,292.760 107.041,292.017 106.854 C 291.728 106.781,291.912 106.915,292.427 107.152 M247.991 109.086 L 247.374 109.769 248.057 109.152 C 248.693 108.577,248.836 108.403,248.674 108.403 C 248.638 108.403,248.330 108.711,247.991 109.086 M300.031 109.716 C 300.284 110.207,300.667 111.129,300.883 111.765 C 301.156 112.569,301.239 112.697,301.158 112.185 C 301.036 111.421,299.903 108.824,299.692 108.824 C 299.625 108.824,299.778 109.225,300.031 109.716 M295.698 109.669 C 295.910 109.904,296.300 110.447,296.565 110.877 C 296.829 111.308,297.049 111.583,297.052 111.489 C 297.063 111.205,295.714 109.244,295.507 109.244 C 295.400 109.244,295.486 109.435,295.698 109.669 M281.225 110.347 L 280.847 111.029 281.280 110.504 C 281.664 110.038,281.835 109.664,281.663 109.664 C 281.630 109.664,281.433 109.971,281.225 110.347 M219.260 111.039 C 218.767 112.074,218.836 112.250,219.352 111.272 C 219.587 110.828,219.741 110.427,219.696 110.382 C 219.650 110.337,219.454 110.632,219.260 111.039 M242.148 112.298 C 242.076 112.486,242.025 112.797,242.035 112.990 C 242.045 113.183,242.136 113.061,242.238 112.721 C 242.436 112.058,242.366 111.729,242.148 112.298 M276.185 113.603 C 276.028 114.555,276.051 116.263,276.233 117.110 C 276.306 117.450,276.366 116.623,276.366 115.272 C 276.366 112.516,276.365 112.514,276.185 113.603 M218.326 114.076 C 218.326 114.480,218.369 114.645,218.422 114.443 C 218.475 114.241,218.475 113.910,218.422 113.708 C 218.369 113.506,218.326 113.671,218.326 114.076 M279.801 114.443 C 279.760 114.877,279.782 115.657,279.848 116.176 C 279.942 116.906,279.975 116.726,279.993 115.389 C 280.017 113.563,279.927 113.117,279.801 114.443 M263.915 119.785 C 263.870 125.322,263.836 125.817,263.498 125.906 C 263.153 125.996,263.154 126.003,263.504 126.026 C 264.076 126.063,264.087 125.929,264.023 119.640 L 263.964 113.761 263.915 119.785 M241.872 115.231 C 241.873 115.924,241.912 116.183,241.959 115.805 C 242.006 115.427,242.005 114.860,241.957 114.545 C 241.909 114.229,241.871 114.538,241.872 115.231 M214.556 115.231 C 214.557 115.809,214.598 116.020,214.647 115.701 C 214.695 115.382,214.694 114.909,214.644 114.650 C 214.594 114.392,214.554 114.653,214.556 115.231 M218.326 116.387 C 218.326 116.791,218.369 116.956,218.422 116.754 C 218.475 116.552,218.475 116.221,218.422 116.019 C 218.369 115.817,218.326 115.982,218.326 116.387 M256.513 116.733 C 258.252 116.887,260.458 116.899,260.367 116.754 C 260.313 116.668,259.259 116.613,258.023 116.632 C 256.788 116.651,256.108 116.697,256.513 116.733 M242.020 117.560 C 242.022 117.781,242.119 118.104,242.236 118.277 C 242.392 118.507,242.412 118.422,242.309 117.962 C 242.136 117.190,242.016 117.022,242.020 117.560 M260.551 120.332 C 260.506 123.445,260.490 123.549,260.032 123.733 C 259.712 123.862,259.669 123.927,259.901 123.936 C 260.622 123.964,260.728 123.451,260.661 120.245 L 260.597 117.122 260.551 120.332 M301.004 118.277 C 300.933 118.566,300.814 119.039,300.741 119.328 C 300.658 119.654,300.733 119.579,300.941 119.128 C 301.125 118.730,301.244 118.257,301.205 118.078 C 301.161 117.873,301.086 117.947,301.004 118.277 M276.807 119.328 C 277.015 120.118,277.897 121.797,278.200 121.979 C 278.413 122.107,278.414 122.075,278.206 121.818 C 278.063 121.641,277.659 120.890,277.307 120.150 C 276.956 119.409,276.731 119.039,276.807 119.328 M280.679 119.178 C 280.662 119.611,282.306 121.727,283.071 122.256 C 283.312 122.422,283.102 122.134,282.606 121.615 C 282.110 121.096,281.475 120.298,281.195 119.842 C 280.915 119.386,280.682 119.087,280.679 119.178 M295.285 121.388 C 294.260 122.569,294.259 122.573,295.144 121.744 C 295.891 121.045,296.611 120.136,296.383 120.180 C 296.350 120.186,295.856 120.730,295.285 121.388 M233.499 121.691 L 232.668 122.584 233.561 121.754 C 234.391 120.981,234.550 120.798,234.391 120.798 C 234.357 120.798,233.955 121.200,233.499 121.691 M299.555 121.686 C 299.417 121.943,298.826 122.675,298.241 123.314 L 297.178 124.475 298.229 123.477 C 299.177 122.576,300.190 121.218,299.914 121.218 C 299.854 121.218,299.692 121.429,299.555 121.686 M236.442 123.582 L 235.399 124.685 236.502 123.642 C 237.109 123.069,237.605 122.573,237.605 122.539 C 237.605 122.383,237.410 122.557,236.442 123.582 M283.613 122.651 C 283.613 122.750,283.850 122.939,284.139 123.071 C 284.428 123.203,284.664 123.276,284.664 123.234 C 284.664 123.192,284.428 123.003,284.139 122.813 C 283.850 122.624,283.613 122.551,283.613 122.651 M292.962 123.127 C 292.384 123.458,291.986 123.732,292.078 123.735 C 292.348 123.743,293.868 122.923,294.011 122.692 C 294.176 122.424,294.213 122.409,292.962 123.127 M205.882 123.886 C 210.297 124.036,214.706 124.041,214.706 123.897 C 214.706 123.810,212.319 123.759,209.401 123.783 C 206.484 123.806,204.900 123.853,205.882 123.886 M229.202 123.950 C 228.769 124.088,228.750 124.121,229.097 124.136 C 229.328 124.145,229.659 124.062,229.832 123.950 C 230.200 123.712,229.944 123.712,229.202 123.950 M252.941 123.940 C 253.114 124.057,253.438 124.155,253.659 124.156 C 254.196 124.161,254.029 124.040,253.256 123.868 C 252.796 123.765,252.711 123.784,252.941 123.940 M286.345 123.940 C 286.518 124.057,286.841 124.155,287.062 124.156 C 287.600 124.161,287.432 124.040,286.660 123.868 C 286.199 123.765,286.114 123.784,286.345 123.940 M290.651 123.950 C 290.070 124.098,290.062 124.112,290.546 124.132 C 290.835 124.143,291.213 124.062,291.387 123.950 C 291.744 123.719,291.559 123.719,290.651 123.950 M218.736 124.278 C 218.930 124.502,219.403 124.864,219.786 125.082 C 220.609 125.551,220.392 125.319,219.223 124.477 C 218.734 124.125,218.530 124.042,218.736 124.278 M226.943 124.304 C 227.145 124.357,227.476 124.357,227.679 124.304 C 227.881 124.252,227.715 124.208,227.311 124.208 C 226.907 124.208,226.741 124.252,226.943 124.304 M255.405 124.311 C 255.778 124.358,256.440 124.358,256.876 124.313 C 257.311 124.268,257.006 124.230,256.197 124.229 C 255.389 124.228,255.032 124.265,255.405 124.311 M288.395 124.308 C 288.657 124.358,289.035 124.357,289.236 124.304 C 289.437 124.251,289.223 124.210,288.761 124.213 C 288.298 124.215,288.134 124.258,288.395 124.308 M295.171 125.535 C 294.653 125.818,294.340 126.050,294.477 126.050 C 294.737 126.050,296.218 125.229,296.218 125.084 C 296.218 124.963,296.205 124.968,295.171 125.535 M281.933 125.553 C 281.933 125.695,283.432 126.302,283.533 126.201 C 283.580 126.154,283.239 125.967,282.775 125.785 C 282.312 125.603,281.933 125.498,281.933 125.553 M285.924 126.891 C 286.643 127.121,287.195 127.121,286.660 126.891 C 286.429 126.791,286.050 126.713,285.819 126.716 C 285.482 126.721,285.502 126.756,285.924 126.891 M287.389 127.416 C 287.802 127.984,290.387 130.711,290.300 130.487 C 290.262 130.388,289.523 129.563,288.658 128.652 C 287.792 127.741,287.222 127.185,287.389 127.416 M292.200 127.681 C 292.309 127.884,292.613 128.239,292.876 128.469 C 293.268 128.811,293.248 128.744,292.766 128.099 C 292.143 127.265,291.870 127.063,292.200 127.681 M293.689 129.084 C 294.301 129.826,298.412 132.330,298.642 132.100 C 298.681 132.061,298.033 131.678,297.203 131.248 C 296.373 130.819,295.173 130.072,294.538 129.590 C 293.902 129.107,293.520 128.879,293.689 129.084 M291.378 131.489 C 291.893 131.954,292.358 132.292,292.411 132.239 C 292.464 132.186,292.468 132.118,292.419 132.088 C 292.371 132.058,291.907 131.721,291.387 131.338 L 290.441 130.643 291.378 131.489 M299.252 132.309 C 299.342 132.469,299.177 132.881,298.852 133.307 C 298.547 133.707,298.345 134.034,298.403 134.034 C 298.782 134.034,299.622 132.522,299.371 132.291 C 299.157 132.092,299.131 132.096,299.252 132.309 M293.697 133.086 C 293.697 133.230,294.984 133.868,295.080 133.772 C 295.125 133.726,294.833 133.532,294.430 133.339 C 294.027 133.147,293.697 133.033,293.697 133.086 M295.406 133.922 C 295.583 134.098,297.059 134.672,297.059 134.564 C 297.059 134.507,296.716 134.316,296.298 134.141 C 295.523 133.818,295.230 133.746,295.406 133.922 " stroke="none" fill="#8e8e8e" fill-rule="evenodd"></path><path id="path5" d="M268.795 115.336 C 268.795 121.633,268.822 124.210,268.855 121.061 C 268.888 117.912,268.888 112.760,268.855 109.611 C 268.822 106.463,268.795 109.039,268.795 115.336 M279.294 106.985 L 278.676 107.668 279.359 107.051 C 279.996 106.476,280.139 106.303,279.976 106.303 C 279.940 106.303,279.633 106.610,279.294 106.985 M301.544 115.336 C 301.544 116.318,301.580 116.720,301.624 116.229 C 301.669 115.738,301.669 114.934,301.624 114.443 C 301.580 113.952,301.544 114.354,301.544 115.336 M297.550 115.336 C 297.550 116.203,297.587 116.557,297.632 116.124 C 297.677 115.691,297.677 114.982,297.632 114.548 C 297.587 114.115,297.550 114.470,297.550 115.336 M269.911 126.835 C 270.405 126.879,271.161 126.879,271.592 126.833 C 272.022 126.788,271.618 126.752,270.693 126.753 C 269.769 126.753,269.417 126.790,269.911 126.835 M289.181 129.622 C 289.632 130.084,290.049 130.462,290.106 130.462 C 290.164 130.462,289.842 130.084,289.391 129.622 C 288.939 129.160,288.523 128.782,288.465 128.782 C 288.407 128.782,288.729 129.160,289.181 129.622 " stroke="none" fill="#a1a1a4" fill-rule="evenodd"></path><path id="path6" d="M158.123 75.980 C 157.814 76.290,157.965 98.883,158.278 99.143 C 158.733 99.521,162.021 99.356,162.131 98.950 C 162.197 98.707,162.173 98.697,162.025 98.906 C 161.888 99.101,161.331 99.160,160.066 99.116 L 158.298 99.055 158.244 87.619 C 158.201 78.609,158.246 76.147,158.454 76.015 C 158.609 75.916,158.625 75.845,158.491 75.844 C 158.366 75.842,158.200 75.903,158.123 75.980 M167.910 75.985 C 168.112 76.038,168.443 76.038,168.645 75.985 C 168.847 75.932,168.682 75.889,168.277 75.889 C 167.873 75.889,167.707 75.932,167.910 75.985 M191.506 76.576 C 191.197 76.980,190.980 77.311,191.022 77.311 C 191.064 77.311,191.392 76.980,191.750 76.576 C 192.108 76.171,192.326 75.840,192.234 75.840 C 192.142 75.840,191.814 76.171,191.506 76.576 M197.053 76.043 C 197.315 76.208,197.283 76.330,196.849 76.827 L 196.335 77.416 196.933 76.860 C 197.502 76.331,197.532 75.837,196.994 75.844 C 196.841 75.846,196.865 75.923,197.053 76.043 M199.720 75.980 C 199.448 76.252,199.557 98.843,199.832 99.118 C 200.109 99.395,203.479 99.479,203.644 99.212 C 203.698 99.126,202.877 99.055,201.819 99.055 L 199.895 99.055 199.841 87.619 C 199.798 78.609,199.842 76.147,200.051 76.015 C 200.206 75.916,200.221 75.845,200.088 75.844 C 199.962 75.842,199.797 75.903,199.720 75.980 M252.153 75.985 C 252.356 76.038,252.686 76.038,252.889 75.985 C 253.091 75.932,252.925 75.889,252.521 75.889 C 252.117 75.889,251.951 75.932,252.153 75.985 M285.180 76.103 C 285.125 76.247,285.105 81.471,285.136 87.710 L 285.193 99.055 285.243 87.570 C 285.283 78.617,285.352 76.062,285.557 75.979 C 285.762 75.896,285.761 75.870,285.550 75.857 C 285.402 75.848,285.236 75.959,285.180 76.103 M178.620 87.407 C 178.582 96.223,178.629 98.738,178.838 99.023 C 179.173 99.482,182.805 99.459,182.898 98.997 C 182.928 98.850,182.904 98.826,182.845 98.944 C 182.756 99.124,179.098 99.277,178.944 99.107 C 178.917 99.078,178.845 93.902,178.782 87.605 L 178.669 76.155 178.620 87.407 M242.325 87.500 C 242.325 93.739,242.352 96.262,242.384 93.105 C 242.417 89.948,242.417 84.843,242.384 81.760 C 242.352 78.678,242.325 81.261,242.325 87.500 M281.741 77.352 C 281.925 77.503,282.130 77.768,282.197 77.941 C 282.297 78.197,282.323 78.188,282.336 77.896 C 282.345 77.698,282.140 77.433,281.880 77.307 C 281.479 77.112,281.458 77.119,281.741 77.352 M257.353 78.046 C 257.745 78.451,258.113 78.782,258.171 78.782 C 258.228 78.782,257.955 78.451,257.563 78.046 C 257.171 77.642,256.803 77.311,256.745 77.311 C 256.688 77.311,256.961 77.642,257.353 78.046 M152.416 79.202 C 153.102 79.895,153.711 80.462,153.768 80.462 C 153.826 80.462,153.312 79.895,152.626 79.202 C 151.940 78.508,151.331 77.941,151.274 77.941 C 151.216 77.941,151.730 78.508,152.416 79.202 M217.640 79.149 L 216.492 80.357 217.700 79.209 C 218.364 78.577,218.908 78.034,218.908 78.001 C 218.908 77.845,218.707 78.027,217.640 79.149 M236.660 78.992 C 237.229 79.569,237.742 80.042,237.799 80.042 C 237.857 80.042,237.439 79.569,236.870 78.992 C 236.301 78.414,235.788 77.941,235.730 77.941 C 235.672 77.941,236.091 78.414,236.660 78.992 M115.580 78.896 C 115.228 79.668,115.296 79.833,115.676 79.131 C 115.854 78.803,115.960 78.495,115.912 78.447 C 115.864 78.399,115.715 78.601,115.580 78.896 M133.182 79.149 L 132.458 79.937 133.246 79.213 C 133.979 78.539,134.130 78.361,133.970 78.361 C 133.935 78.361,133.580 78.716,133.182 79.149 M264.798 79.044 L 264.181 79.727 264.863 79.110 C 265.500 78.535,265.643 78.361,265.480 78.361 C 265.444 78.361,265.137 78.669,264.798 79.044 M214.286 78.836 C 214.286 79.020,214.120 79.214,213.918 79.267 C 213.574 79.357,213.574 79.365,213.925 79.387 C 214.304 79.412,214.656 78.872,214.417 78.632 C 214.345 78.560,214.286 78.652,214.286 78.836 M226.943 78.926 C 227.145 78.979,227.476 78.979,227.679 78.926 C 227.881 78.873,227.715 78.830,227.311 78.830 C 226.907 78.830,226.741 78.873,226.943 78.926 M274.002 78.926 C 274.204 78.979,274.535 78.979,274.737 78.926 C 274.940 78.873,274.774 78.830,274.370 78.830 C 273.965 78.830,273.800 78.873,274.002 78.926 M144.538 79.202 C 145.256 79.432,145.808 79.432,145.273 79.202 C 145.042 79.102,144.664 79.024,144.433 79.027 C 144.095 79.032,144.116 79.066,144.538 79.202 M225.000 79.211 C 224.770 79.367,224.855 79.387,225.315 79.284 C 226.088 79.111,226.255 78.991,225.718 78.995 C 225.496 78.997,225.173 79.094,225.000 79.211 M258.549 79.724 C 258.742 80.127,258.936 80.420,258.982 80.374 C 259.078 80.278,258.440 78.992,258.296 78.992 C 258.243 78.992,258.357 79.321,258.549 79.724 M163.611 79.357 C 164.338 79.399,165.472 79.398,166.132 79.357 C 166.792 79.315,166.197 79.281,164.811 79.282 C 163.424 79.282,162.884 79.316,163.611 79.357 M206.250 79.359 C 207.550 79.395,209.677 79.395,210.977 79.359 C 212.277 79.322,211.213 79.291,208.613 79.291 C 206.014 79.291,204.950 79.322,206.250 79.359 M248.057 79.357 C 248.779 79.398,249.961 79.398,250.683 79.357 C 251.405 79.316,250.814 79.283,249.370 79.283 C 247.925 79.283,247.335 79.316,248.057 79.357 M289.378 79.475 C 289.320 79.626,289.302 80.973,289.339 82.469 L 289.404 85.189 289.450 82.304 L 289.496 79.420 294.275 79.359 L 299.055 79.298 294.269 79.250 C 290.495 79.212,289.460 79.260,289.378 79.475 M253.216 79.867 C 253.541 80.137,253.998 80.595,254.232 80.883 C 254.467 81.172,254.589 81.266,254.504 81.092 C 254.259 80.593,253.505 79.812,253.046 79.584 C 252.807 79.464,252.880 79.586,253.216 79.867 M136.652 81.565 L 135.609 82.668 136.712 81.626 C 137.737 80.657,137.911 80.462,137.755 80.462 C 137.721 80.462,137.225 80.959,136.652 81.565 M221.612 80.888 C 221.309 81.114,220.806 81.655,220.494 82.089 L 219.928 82.878 220.573 82.151 C 220.928 81.751,221.479 81.210,221.796 80.950 C 222.507 80.369,222.370 80.322,221.612 80.888 M129.026 81.206 C 128.674 81.979,128.741 82.144,129.121 81.442 C 129.299 81.114,129.405 80.806,129.357 80.758 C 129.309 80.710,129.160 80.912,129.026 81.206 M170.235 82.773 C 170.235 83.524,170.273 83.831,170.320 83.456 C 170.367 83.080,170.367 82.466,170.320 82.090 C 170.273 81.715,170.235 82.022,170.235 82.773 M174.850 82.668 C 174.852 83.246,174.892 83.457,174.941 83.138 C 174.989 82.819,174.988 82.346,174.938 82.087 C 174.888 81.829,174.848 82.090,174.850 82.668 M254.682 82.668 C 254.684 83.246,254.724 83.457,254.773 83.138 C 254.821 82.819,254.820 82.346,254.770 82.087 C 254.720 81.829,254.680 82.090,254.682 82.668 M111.359 82.038 C 111.359 82.153,111.495 82.484,111.660 82.773 C 111.825 83.062,111.960 83.204,111.960 83.088 C 111.960 82.973,111.825 82.642,111.660 82.353 C 111.495 82.064,111.359 81.922,111.359 82.038 M259.292 82.563 C 259.292 82.967,259.336 83.133,259.389 82.931 C 259.441 82.728,259.441 82.398,259.389 82.195 C 259.336 81.993,259.292 82.159,259.292 82.563 M215.160 82.677 C 214.808 83.450,214.875 83.614,215.256 82.912 C 215.434 82.584,215.540 82.276,215.492 82.228 C 215.444 82.180,215.294 82.382,215.160 82.677 M234.250 82.384 C 234.247 82.459,234.479 82.932,234.766 83.434 C 235.054 83.937,235.290 84.254,235.291 84.139 C 235.292 83.906,234.261 82.167,234.250 82.384 M262.174 82.907 C 262.058 83.212,262.002 83.501,262.050 83.548 C 262.097 83.596,262.237 83.346,262.360 82.994 C 262.633 82.210,262.468 82.133,262.174 82.907 M101.275 83.718 C 101.275 83.834,101.410 84.165,101.576 84.454 C 101.741 84.743,101.876 84.884,101.876 84.769 C 101.876 84.653,101.741 84.322,101.576 84.034 C 101.410 83.745,101.275 83.603,101.275 83.718 M239.735 84.034 C 239.735 84.207,239.817 84.538,239.916 84.769 C 240.030 85.034,240.097 85.073,240.097 84.874 C 240.097 84.701,240.015 84.370,239.916 84.139 C 239.802 83.874,239.735 83.835,239.735 84.034 M253.549 85.353 C 253.248 85.610,252.823 85.939,252.604 86.085 C 252.370 86.241,252.466 86.228,252.837 86.054 C 253.184 85.891,253.647 85.559,253.867 85.316 C 254.383 84.746,254.243 84.762,253.549 85.353 M116.822 85.399 C 116.822 85.515,116.957 85.846,117.122 86.134 C 117.287 86.423,117.422 86.565,117.422 86.450 C 117.422 86.334,117.287 86.003,117.122 85.714 C 116.957 85.425,116.822 85.284,116.822 85.399 M258.259 86.151 C 258.009 86.607,257.893 86.925,258.001 86.859 C 258.234 86.715,258.885 85.496,258.784 85.394 C 258.745 85.355,258.508 85.696,258.259 86.151 M290.336 85.436 C 293.090 85.583,298.051 85.596,297.828 85.455 C 297.694 85.370,295.693 85.317,293.382 85.337 C 291.071 85.357,289.701 85.401,290.336 85.436 M151.337 87.500 C 151.338 88.655,151.373 89.101,151.416 88.491 C 151.458 87.880,151.458 86.935,151.415 86.390 C 151.372 85.845,151.337 86.345,151.337 87.500 M188.957 86.187 L 188.340 86.870 189.023 86.253 C 189.399 85.913,189.706 85.606,189.706 85.570 C 189.706 85.408,189.533 85.551,188.957 86.187 M205.830 85.871 C 207.014 85.908,208.952 85.908,210.137 85.871 C 211.321 85.834,210.352 85.803,207.983 85.803 C 205.614 85.803,204.645 85.834,205.830 85.871 M240.175 86.345 C 240.175 86.749,240.218 86.914,240.271 86.712 C 240.324 86.510,240.324 86.179,240.271 85.977 C 240.218 85.775,240.175 85.940,240.175 86.345 M129.904 87.500 C 129.905 88.424,129.942 88.776,129.986 88.282 C 130.030 87.788,130.030 87.032,129.985 86.602 C 129.939 86.171,129.903 86.576,129.904 87.500 M261.417 87.500 C 261.417 88.424,261.454 88.776,261.499 88.282 C 261.543 87.788,261.542 87.032,261.497 86.602 C 261.452 86.171,261.416 86.576,261.417 87.500 M106.738 86.450 C 106.738 86.565,106.873 86.896,107.038 87.185 C 107.203 87.474,107.338 87.616,107.338 87.500 C 107.338 87.384,107.203 87.054,107.038 86.765 C 106.873 86.476,106.738 86.334,106.738 86.450 M134.307 87.605 C 134.307 88.241,134.346 88.501,134.394 88.183 C 134.442 87.865,134.442 87.345,134.394 87.027 C 134.346 86.710,134.307 86.970,134.307 87.605 M122.468 87.529 C 122.352 87.834,122.296 88.122,122.344 88.170 C 122.391 88.218,122.531 87.968,122.654 87.616 C 122.927 86.832,122.762 86.755,122.468 87.529 M257.025 87.868 L 256.408 88.550 257.090 87.933 C 257.466 87.594,257.773 87.287,257.773 87.251 C 257.773 87.088,257.600 87.231,257.025 87.868 M111.589 88.139 C 111.237 88.912,111.304 89.077,111.685 88.374 C 111.862 88.046,111.968 87.739,111.920 87.691 C 111.872 87.643,111.723 87.844,111.589 88.139 M171.744 88.577 C 171.366 88.898,171.289 89.026,171.551 88.896 C 171.936 88.704,172.658 88.013,172.452 88.033 C 172.409 88.037,172.090 88.282,171.744 88.577 M240.175 88.655 C 240.175 89.060,240.218 89.225,240.271 89.023 C 240.324 88.821,240.324 88.490,240.271 88.288 C 240.218 88.086,240.175 88.251,240.175 88.655 M214.334 89.076 C 214.334 89.480,214.378 89.645,214.431 89.443 C 214.483 89.241,214.483 88.910,214.431 88.708 C 214.378 88.506,214.334 88.671,214.334 89.076 M293.808 88.813 C 291.501 88.847,289.544 88.944,289.459 89.028 C 289.375 89.112,291.215 89.153,293.548 89.119 C 295.883 89.086,297.881 88.968,297.992 88.857 C 298.103 88.746,298.151 88.677,298.099 88.703 C 298.047 88.730,296.116 88.779,293.808 88.813 M103.586 88.971 C 103.586 89.086,103.721 89.417,103.887 89.706 C 104.052 89.995,104.187 90.137,104.187 90.021 C 104.187 89.905,104.052 89.575,103.887 89.286 C 103.721 88.997,103.586 88.855,103.586 88.971 M212.395 89.041 C 212.395 89.218,211.190 89.299,208.036 89.334 L 203.676 89.382 207.968 89.443 C 211.965 89.501,212.987 89.388,212.539 88.939 C 212.460 88.860,212.395 88.906,212.395 89.041 M289.382 92.542 L 289.391 95.693 294.695 95.699 L 300.000 95.704 294.754 95.643 L 289.507 95.581 289.440 92.486 L 289.373 89.391 289.382 92.542 M190.861 90.966 C 191.313 91.429,191.729 91.807,191.787 91.807 C 191.845 91.807,191.523 91.429,191.071 90.966 C 190.620 90.504,190.204 90.126,190.146 90.126 C 190.088 90.126,190.410 90.504,190.861 90.966 M108.418 90.651 C 108.418 90.767,108.553 91.098,108.718 91.387 C 108.884 91.675,109.019 91.817,109.019 91.702 C 109.019 91.586,108.884 91.255,108.718 90.966 C 108.553 90.678,108.418 90.536,108.418 90.651 M214.931 91.702 C 214.931 91.817,215.066 92.148,215.231 92.437 C 215.396 92.726,215.531 92.868,215.531 92.752 C 215.531 92.637,215.396 92.306,215.231 92.017 C 215.066 91.728,214.931 91.586,214.931 91.702 M239.321 92.216 C 239.198 92.569,239.142 92.857,239.197 92.857 C 239.339 92.857,239.735 91.766,239.631 91.662 C 239.583 91.614,239.444 91.864,239.321 92.216 M192.227 92.363 C 192.227 92.476,192.534 92.846,192.910 93.185 L 193.592 93.803 192.962 93.068 C 192.616 92.664,192.308 92.294,192.279 92.245 C 192.251 92.197,192.227 92.249,192.227 92.363 M148.950 93.592 C 148.439 94.112,148.069 94.538,148.127 94.538 C 148.185 94.538,148.649 94.112,149.160 93.592 C 149.670 93.072,150.040 92.647,149.982 92.647 C 149.925 92.647,149.460 93.072,148.950 93.592 M221.008 93.592 C 221.400 93.997,221.768 94.328,221.826 94.328 C 221.884 94.328,221.610 93.997,221.218 93.592 C 220.827 93.188,220.459 92.857,220.401 92.857 C 220.343 92.857,220.616 93.188,221.008 93.592 M238.578 93.750 L 238.200 94.433 238.633 93.908 C 239.017 93.442,239.188 93.067,239.016 93.067 C 238.983 93.067,238.786 93.374,238.578 93.750 M268.277 93.803 C 268.669 94.207,269.037 94.538,269.095 94.538 C 269.153 94.538,268.879 94.207,268.487 93.803 C 268.095 93.398,267.727 93.067,267.670 93.067 C 267.612 93.067,267.885 93.398,268.277 93.803 M112.639 94.232 C 112.287 95.004,112.354 95.169,112.735 94.467 C 112.913 94.139,113.019 93.831,112.971 93.783 C 112.923 93.735,112.773 93.937,112.639 94.232 M194.118 94.604 C 194.118 94.640,194.425 94.947,194.800 95.286 L 195.483 95.903 194.866 95.221 C 194.291 94.584,194.118 94.441,194.118 94.604 M216.597 94.814 C 216.597 94.850,216.904 95.157,217.279 95.496 L 217.962 96.113 217.345 95.431 C 216.770 94.794,216.597 94.651,216.597 94.814 M223.319 95.273 C 223.608 95.438,223.939 95.573,224.055 95.573 C 224.170 95.573,224.028 95.438,223.739 95.273 C 223.451 95.108,223.120 94.973,223.004 94.973 C 222.889 94.973,223.030 95.108,223.319 95.273 M279.938 95.166 C 279.863 95.289,279.956 95.318,280.167 95.237 C 280.391 95.151,280.629 95.244,280.808 95.489 C 280.964 95.703,281.092 95.785,281.092 95.670 C 281.092 95.129,280.202 94.740,279.938 95.166 M253.459 96.166 C 253.782 96.657,254.087 97.059,254.136 97.059 C 254.288 97.059,253.484 95.780,253.168 95.520 C 253.004 95.384,253.135 95.675,253.459 96.166 M140.126 95.789 C 140.299 95.906,140.622 96.003,140.844 96.005 C 141.381 96.009,141.214 95.889,140.441 95.716 C 139.981 95.613,139.896 95.633,140.126 95.789 M224.580 95.789 C 224.753 95.906,225.076 96.003,225.298 96.005 C 225.835 96.009,225.667 95.889,224.895 95.716 C 224.435 95.613,224.350 95.633,224.580 95.789 M271.639 95.789 C 271.812 95.906,272.135 96.003,272.356 96.005 C 272.894 96.009,272.726 95.889,271.954 95.716 C 271.494 95.613,271.409 95.633,271.639 95.789 M133.193 95.864 C 133.193 95.900,133.501 96.207,133.876 96.547 L 134.559 97.164 133.942 96.481 C 133.367 95.845,133.193 95.702,133.193 95.864 M142.174 96.160 C 142.550 96.207,143.164 96.207,143.540 96.160 C 143.915 96.114,143.608 96.076,142.857 96.076 C 142.106 96.076,141.799 96.114,142.174 96.160 M226.628 96.160 C 227.004 96.207,227.618 96.207,227.994 96.160 C 228.369 96.114,228.062 96.076,227.311 96.076 C 226.560 96.076,226.253 96.114,226.628 96.160 M196.534 97.269 C 196.985 97.731,197.401 98.109,197.459 98.109 C 197.517 98.109,197.195 97.731,196.744 97.269 C 196.292 96.807,195.876 96.429,195.818 96.429 C 195.760 96.429,196.082 96.807,196.534 97.269 M106.948 96.744 C 106.948 96.859,107.083 97.190,107.248 97.479 C 107.413 97.768,107.548 97.910,107.548 97.794 C 107.548 97.679,107.413 97.348,107.248 97.059 C 107.083 96.770,106.948 96.628,106.948 96.744 M254.795 98.217 C 255.302 99.247,255.700 99.389,257.903 99.325 C 260.112 99.261,260.719 98.854,259.727 98.101 C 259.404 97.856,259.387 97.857,259.611 98.109 C 260.356 98.944,259.982 99.160,257.788 99.160 L 255.703 99.160 255.145 98.477 C 254.839 98.101,254.681 97.984,254.795 98.217 M137.605 98.845 C 137.894 99.010,138.272 99.144,138.445 99.144 C 138.619 99.144,138.442 99.005,138.054 98.836 C 137.159 98.448,136.919 98.452,137.605 98.845 M170.883 98.897 C 171.286 99.372,175.629 99.660,175.631 99.212 C 175.631 99.126,174.677 99.085,173.510 99.122 C 171.702 99.179,171.321 99.132,170.936 98.806 L 170.483 98.424 170.883 98.897 M197.689 98.838 C 197.689 99.089,197.209 99.159,195.116 99.213 L 192.542 99.279 195.221 99.324 C 197.774 99.368,197.899 99.350,197.899 98.950 C 197.899 98.718,197.852 98.529,197.794 98.529 C 197.736 98.529,197.689 98.668,197.689 98.838 M246.429 98.929 C 246.429 99.121,245.917 99.171,244.452 99.122 C 243.365 99.085,242.520 99.126,242.574 99.212 C 242.729 99.461,246.385 99.400,246.542 99.146 C 246.618 99.022,246.624 98.865,246.555 98.796 C 246.485 98.726,246.429 98.786,246.429 98.929 M300.000 98.915 C 300.000 99.096,298.093 99.173,292.700 99.209 L 285.399 99.259 292.634 99.317 C 299.422 99.372,300.622 99.291,300.144 98.813 C 300.065 98.734,300.000 98.780,300.000 98.915 M140.336 99.576 C 140.855 99.746,142.589 99.861,142.419 99.714 C 142.371 99.672,141.765 99.585,141.071 99.521 C 140.288 99.448,140.010 99.469,140.336 99.576 M228.571 99.580 L 227.626 99.727 228.466 99.737 C 228.929 99.743,229.543 99.672,229.832 99.580 C 230.495 99.367,229.938 99.367,228.571 99.580 M276.050 99.580 L 275.105 99.727 275.945 99.737 C 276.408 99.743,277.022 99.672,277.311 99.580 C 277.974 99.367,277.417 99.367,276.050 99.580 M143.857 99.728 C 144.119 99.779,144.497 99.777,144.698 99.724 C 144.899 99.672,144.685 99.630,144.223 99.633 C 143.761 99.635,143.596 99.678,143.857 99.728 M225.578 99.728 C 225.838 99.778,226.263 99.778,226.523 99.728 C 226.783 99.678,226.570 99.637,226.050 99.637 C 225.530 99.637,225.318 99.678,225.578 99.728 M273.059 99.728 C 273.320 99.779,273.699 99.777,273.900 99.724 C 274.100 99.672,273.887 99.630,273.424 99.633 C 272.962 99.635,272.798 99.678,273.059 99.728 M226.424 103.095 C 226.918 103.140,227.674 103.139,228.104 103.094 C 228.535 103.049,228.130 103.012,227.206 103.013 C 226.282 103.014,225.929 103.051,226.424 103.095 M254.884 103.086 C 255.087 103.139,255.418 103.139,255.620 103.086 C 255.822 103.033,255.657 102.990,255.252 102.990 C 254.848 102.990,254.682 103.033,254.884 103.086 M287.978 103.095 C 288.472 103.140,289.229 103.139,289.659 103.094 C 290.089 103.049,289.685 103.012,288.761 103.013 C 287.836 103.014,287.484 103.051,287.978 103.095 M253.101 103.300 C 253.363 103.350,253.741 103.348,253.942 103.296 C 254.142 103.243,253.929 103.202,253.466 103.204 C 253.004 103.207,252.840 103.250,253.101 103.300 M256.565 103.302 C 256.883 103.350,257.403 103.350,257.721 103.302 C 258.038 103.254,257.778 103.214,257.143 103.214 C 256.507 103.214,256.247 103.254,256.565 103.302 M202.101 103.558 L 203.887 103.676 203.992 113.550 L 204.097 123.424 209.454 123.529 L 214.811 123.634 214.811 125.210 L 214.811 126.786 207.425 126.786 C 203.363 126.786,200.084 126.857,200.137 126.943 C 200.312 127.225,214.589 127.134,214.874 126.849 C 215.019 126.704,215.126 126.008,215.126 125.210 C 215.126 123.228,215.401 123.319,209.412 123.319 L 204.202 123.319 204.202 113.592 C 204.202 102.416,204.402 103.345,202.006 103.400 L 200.315 103.440 202.101 103.558 M258.876 103.506 C 259.078 103.559,259.409 103.559,259.611 103.506 C 259.814 103.453,259.648 103.410,259.244 103.410 C 258.839 103.410,258.674 103.453,258.876 103.506 M268.739 103.613 C 268.548 103.805,268.499 106.659,268.537 115.431 L 268.587 126.996 268.695 115.336 L 268.803 103.676 270.588 103.558 L 272.374 103.440 270.683 103.400 C 269.599 103.375,268.901 103.452,268.739 103.613 M246.582 105.575 C 246.151 105.868,245.798 106.153,245.798 106.208 C 245.798 106.263,246.176 106.058,246.639 105.752 C 247.373 105.267,247.621 105.042,247.423 105.042 C 247.392 105.042,247.014 105.282,246.582 105.575 M236.756 106.775 C 237.627 107.703,237.815 107.870,237.815 107.712 C 237.815 107.678,237.366 107.229,236.817 106.714 L 235.819 105.777 236.756 106.775 M298.529 107.038 C 298.921 107.442,299.289 107.773,299.347 107.773 C 299.405 107.773,299.131 107.442,298.739 107.038 C 298.348 106.633,297.980 106.303,297.922 106.303 C 297.864 106.303,298.137 106.633,298.529 107.038 M254.779 106.661 C 255.039 106.711,255.465 106.711,255.725 106.661 C 255.985 106.611,255.772 106.570,255.252 106.570 C 254.732 106.570,254.519 106.611,254.779 106.661 M228.782 106.933 C 229.070 107.025,229.496 107.101,229.727 107.101 C 230.060 107.101,230.038 107.066,229.622 106.933 C 229.333 106.840,228.908 106.765,228.676 106.765 C 228.344 106.765,228.366 106.800,228.782 106.933 M243.867 108.141 C 243.497 108.572,243.219 109.034,243.330 109.034 C 243.373 109.034,243.618 108.750,243.874 108.403 C 244.381 107.718,244.376 107.548,243.867 108.141 M241.713 112.722 C 241.634 113.143,241.612 113.530,241.663 113.582 C 241.714 113.633,241.821 113.330,241.900 112.908 C 241.979 112.487,242.002 112.100,241.951 112.049 C 241.899 111.997,241.792 112.300,241.713 112.722 M214.391 113.025 C 214.310 113.503,214.288 113.938,214.342 113.992 C 214.396 114.046,214.503 113.696,214.580 113.214 C 214.657 112.733,214.679 112.298,214.629 112.248 C 214.579 112.198,214.471 112.547,214.391 113.025 M246.139 112.718 C 246.067 112.906,246.017 113.217,246.026 113.410 C 246.036 113.603,246.128 113.482,246.230 113.141 C 246.428 112.478,246.358 112.150,246.139 112.718 M218.829 113.262 C 218.654 114.137,218.823 114.307,219.013 113.445 C 219.092 113.082,219.114 112.741,219.060 112.688 C 219.007 112.634,218.903 112.892,218.829 113.262 M255.550 113.729 C 255.490 113.885,255.475 114.665,255.516 115.462 L 255.590 116.912 255.631 115.279 L 255.672 113.647 259.926 113.704 L 264.181 113.761 264.237 119.748 C 264.288 125.190,264.260 125.759,263.934 125.998 C 263.737 126.142,263.669 126.261,263.783 126.261 C 264.435 126.261,264.496 125.716,264.496 119.853 C 264.496 115.542,264.428 113.882,264.244 113.697 C 263.859 113.313,255.699 113.342,255.550 113.729 M240.198 115.231 C 240.199 116.155,240.236 116.507,240.280 116.013 C 240.325 115.519,240.324 114.763,240.279 114.333 C 240.234 113.902,240.197 114.307,240.198 115.231 M301.751 115.336 C 301.751 116.203,301.788 116.557,301.834 116.124 C 301.879 115.691,301.879 114.982,301.834 114.548 C 301.788 114.115,301.751 114.470,301.751 115.336 M245.858 115.021 C 245.860 115.599,245.901 115.810,245.949 115.491 C 245.997 115.171,245.996 114.699,245.946 114.440 C 245.896 114.182,245.857 114.443,245.858 115.021 M297.334 115.231 C 297.335 115.924,297.374 116.183,297.421 115.805 C 297.468 115.427,297.467 114.860,297.419 114.545 C 297.371 114.229,297.333 114.538,297.334 115.231 M280.099 115.336 C 280.099 115.856,280.140 116.069,280.190 115.809 C 280.240 115.549,280.240 115.123,280.190 114.863 C 280.140 114.603,280.099 114.816,280.099 115.336 M235.624 116.927 C 235.547 117.235,235.524 117.527,235.574 117.577 C 235.623 117.626,235.727 117.415,235.804 117.107 C 235.882 116.799,235.904 116.507,235.855 116.457 C 235.805 116.408,235.702 116.619,235.624 116.927 M275.889 117.017 C 275.889 117.421,275.932 117.587,275.985 117.384 C 276.038 117.182,276.038 116.851,275.985 116.649 C 275.932 116.447,275.889 116.612,275.889 117.017 M241.639 117.122 C 241.639 117.353,241.714 117.778,241.807 118.067 C 241.940 118.483,241.975 118.505,241.975 118.172 C 241.975 117.941,241.899 117.516,241.807 117.227 C 241.674 116.811,241.639 116.789,241.639 117.122 M256.775 117.172 C 257.440 117.214,258.527 117.214,259.191 117.172 C 259.856 117.130,259.312 117.096,257.983 117.096 C 256.654 117.096,256.111 117.130,256.775 117.172 M239.826 118.187 C 239.749 118.495,239.726 118.788,239.775 118.837 C 239.825 118.887,239.929 118.675,240.006 118.367 C 240.083 118.059,240.106 117.767,240.056 117.718 C 240.007 117.668,239.903 117.879,239.826 118.187 M234.908 119.022 C 234.556 119.794,234.623 119.959,235.004 119.257 C 235.182 118.929,235.288 118.621,235.240 118.573 C 235.192 118.525,235.042 118.727,234.908 119.022 M248.319 120.874 C 248.839 121.428,249.454 121.981,249.685 122.103 C 249.916 122.226,250.058 122.284,250.000 122.232 C 249.942 122.181,249.328 121.628,248.634 121.003 L 247.374 119.866 248.319 120.874 M221.000 121.271 C 221.870 122.199,222.059 122.365,222.059 122.208 C 222.059 122.174,221.610 121.725,221.061 121.210 L 220.063 120.273 221.000 121.271 M233.392 121.376 L 232.668 122.164 233.456 121.440 C 234.189 120.766,234.340 120.588,234.180 120.588 C 234.145 120.588,233.790 120.943,233.392 121.376 M294.840 121.481 L 294.223 122.164 294.905 121.547 C 295.542 120.972,295.685 120.798,295.522 120.798 C 295.486 120.798,295.179 121.106,294.840 121.481 M243.469 121.813 C 243.582 122.025,243.840 122.332,244.041 122.496 C 244.268 122.681,244.218 122.534,243.908 122.111 C 243.356 121.358,243.150 121.217,243.469 121.813 M216.158 122.024 C 216.271 122.235,216.529 122.543,216.730 122.706 C 216.957 122.891,216.907 122.744,216.597 122.321 C 216.046 121.568,215.839 121.428,216.158 122.024 M236.758 123.687 L 235.609 124.895 236.817 123.747 C 237.939 122.680,238.121 122.479,237.966 122.479 C 237.933 122.479,237.389 123.023,236.758 123.687 M229.307 123.529 C 229.042 123.643,229.003 123.710,229.202 123.710 C 229.375 123.710,229.706 123.629,229.937 123.529 C 230.202 123.416,230.241 123.349,230.042 123.349 C 229.869 123.349,229.538 123.430,229.307 123.529 M252.731 123.529 C 253.449 123.759,254.002 123.759,253.466 123.529 C 253.235 123.430,252.857 123.352,252.626 123.355 C 252.288 123.360,252.309 123.394,252.731 123.529 M297.781 124.212 L 297.164 124.895 297.847 124.278 C 298.483 123.703,298.626 123.529,298.464 123.529 C 298.428 123.529,298.120 123.837,297.781 124.212 M226.424 123.894 C 226.918 123.938,227.674 123.937,228.104 123.892 C 228.535 123.847,228.130 123.811,227.206 123.812 C 226.282 123.812,225.929 123.849,226.424 123.894 M255.095 123.895 C 255.759 123.936,256.846 123.936,257.511 123.895 C 258.175 123.853,257.631 123.819,256.303 123.819 C 254.974 123.819,254.430 123.853,255.095 123.895 M289.236 123.888 C 289.497 123.938,289.875 123.936,290.076 123.884 C 290.277 123.831,290.063 123.790,289.601 123.792 C 289.139 123.795,288.974 123.838,289.236 123.888 M218.908 124.895 C 219.299 125.184,219.672 125.420,219.736 125.419 C 219.934 125.417,218.605 124.385,218.394 124.377 C 218.285 124.373,218.516 124.606,218.908 124.895 M261.660 126.681 C 261.395 126.794,261.356 126.861,261.555 126.861 C 261.728 126.861,262.059 126.780,262.290 126.681 C 262.555 126.567,262.594 126.500,262.395 126.500 C 262.222 126.500,261.891 126.581,261.660 126.681 M270.693 126.891 L 268.803 127.021 270.628 127.061 C 271.664 127.084,272.510 127.010,272.584 126.891 C 272.655 126.775,272.685 126.699,272.649 126.720 C 272.613 126.742,271.733 126.819,270.693 126.891 M227.311 127.311 L 224.895 127.437 227.206 127.464 C 228.477 127.479,229.706 127.410,229.937 127.311 C 230.168 127.212,230.215 127.143,230.042 127.158 C 229.869 127.172,228.640 127.241,227.311 127.311 M252.416 127.322 C 252.825 127.487,255.199 127.598,255.025 127.444 C 254.976 127.401,254.275 127.318,253.466 127.259 C 252.625 127.198,252.176 127.224,252.416 127.322 M256.460 127.463 C 256.836 127.510,257.450 127.510,257.826 127.463 C 258.201 127.416,257.894 127.378,257.143 127.378 C 256.392 127.378,256.085 127.416,256.460 127.463 M293.269 128.204 C 294.139 129.131,294.328 129.298,294.328 129.140 C 294.328 129.107,293.879 128.658,293.330 128.142 L 292.332 127.206 293.269 128.204 M298.319 131.618 C 298.608 131.783,298.939 131.918,299.055 131.918 C 299.170 131.918,299.028 131.783,298.739 131.618 C 298.451 131.453,298.120 131.317,298.004 131.317 C 297.889 131.317,298.030 131.453,298.319 131.618 " stroke="none" fill="#cdd5df" fill-rule="evenodd"></path><path id="path7" d="M178.879 87.395 C 178.879 93.577,178.906 96.106,178.939 93.015 C 178.972 89.924,178.972 84.866,178.939 81.775 C 178.906 78.684,178.879 81.213,178.879 87.395 M182.864 81.513 C 182.864 84.459,182.894 85.664,182.930 84.191 C 182.966 82.718,182.966 80.307,182.930 78.834 C 182.894 77.361,182.864 78.566,182.864 81.513 M289.167 79.475 C 289.110 79.626,289.090 80.973,289.123 82.469 L 289.183 85.189 289.287 82.195 C 289.389 79.246,289.375 78.933,289.167 79.475 M297.897 87.333 C 297.840 88.165,297.870 88.770,297.963 88.677 C 298.055 88.584,298.101 87.903,298.065 87.164 L 297.999 85.819 297.897 87.333 M212.460 87.500 C 212.461 88.193,212.500 88.452,212.547 88.074 C 212.594 87.696,212.593 87.129,212.545 86.813 C 212.497 86.498,212.459 86.807,212.460 87.500 M151.534 87.605 C 151.534 88.241,151.573 88.501,151.621 88.183 C 151.669 87.865,151.669 87.345,151.621 87.027 C 151.573 86.710,151.534 86.970,151.534 87.605 M214.339 87.500 C 214.341 87.962,214.384 88.127,214.434 87.865 C 214.485 87.604,214.483 87.226,214.430 87.025 C 214.377 86.824,214.336 87.038,214.339 87.500 M182.868 88.082 C 182.812 88.228,182.791 90.710,182.822 93.596 L 182.879 98.845 182.984 93.330 C 183.086 87.936,183.077 87.536,182.868 88.082 M289.160 92.542 C 289.160 94.275,289.192 94.956,289.232 94.056 C 289.271 93.155,289.271 91.737,289.231 90.904 C 289.192 90.072,289.159 90.809,289.160 92.542 M226.631 106.661 C 226.892 106.711,227.270 106.710,227.471 106.657 C 227.672 106.604,227.458 106.563,226.996 106.566 C 226.534 106.568,226.369 106.611,226.631 106.661 M288.187 106.665 C 288.564 106.712,289.131 106.711,289.447 106.663 C 289.763 106.615,289.454 106.577,288.761 106.578 C 288.067 106.579,287.809 106.618,288.187 106.665 M214.346 115.231 C 214.347 115.809,214.388 116.020,214.436 115.701 C 214.485 115.382,214.483 114.909,214.434 114.650 C 214.384 114.392,214.344 114.653,214.346 115.231 M217.647 123.634 C 218.039 124.039,218.407 124.370,218.465 124.370 C 218.523 124.370,218.249 124.039,217.857 123.634 C 217.465 123.230,217.097 122.899,217.039 122.899 C 216.982 122.899,217.255 123.230,217.647 123.634 " stroke="none" fill="#c4c4c6" fill-rule="evenodd"></path><path id="path8" d="M99.429 75.995 C 99.981 76.038,100.832 76.038,101.319 75.994 C 101.807 75.950,101.355 75.914,100.315 75.915 C 99.275 75.916,98.876 75.952,99.429 75.995 M110.137 75.993 C 110.570 76.039,111.279 76.039,111.712 75.993 C 112.145 75.948,111.791 75.911,110.924 75.911 C 110.058 75.911,109.703 75.948,110.137 75.993 M118.010 75.992 C 118.383 76.038,119.045 76.039,119.481 75.994 C 119.916 75.948,119.611 75.910,118.803 75.909 C 117.994 75.908,117.637 75.946,118.010 75.992 M128.314 75.994 C 128.809 76.039,129.565 76.038,129.995 75.993 C 130.425 75.948,130.021 75.912,129.097 75.912 C 128.172 75.913,127.820 75.950,128.314 75.994 M160.755 75.997 C 161.991 76.034,164.071 76.034,165.377 75.997 C 166.683 75.960,165.672 75.930,163.130 75.930 C 160.588 75.930,159.519 75.960,160.755 75.997 M180.205 75.994 C 180.699 76.039,181.456 76.038,181.886 75.993 C 182.316 75.948,181.912 75.912,180.987 75.912 C 180.063 75.913,179.711 75.950,180.205 75.994 M193.548 75.996 C 194.216 76.038,195.256 76.037,195.859 75.995 C 196.461 75.953,195.914 75.918,194.643 75.919 C 193.372 75.919,192.879 75.954,193.548 75.996 M203.637 75.998 C 205.580 76.032,208.700 76.032,210.570 75.997 C 212.440 75.963,210.851 75.934,207.038 75.934 C 203.225 75.934,201.695 75.963,203.637 75.998 M245.221 75.997 C 246.463 76.034,248.495 76.034,249.737 75.997 C 250.980 75.960,249.963 75.930,247.479 75.930 C 244.995 75.930,243.978 75.960,245.221 75.997 M289.141 75.998 C 291.084 76.032,294.204 76.032,296.074 75.997 C 297.945 75.963,296.355 75.934,292.542 75.934 C 288.729 75.934,287.199 75.963,289.141 75.998 M214.351 77.416 C 214.352 78.109,214.391 78.368,214.438 77.990 C 214.485 77.612,214.484 77.045,214.436 76.729 C 214.388 76.414,214.350 76.723,214.351 77.416 M162.068 79.473 C 162.010 79.622,161.990 81.206,162.022 82.992 L 162.081 86.239 162.186 82.720 C 162.288 79.262,162.276 78.930,162.068 79.473 M246.514 82.773 C 246.514 84.680,246.546 85.460,246.585 84.506 C 246.624 83.553,246.624 81.993,246.585 81.040 C 246.546 80.087,246.514 80.867,246.514 82.773 M155.737 87.500 C 155.739 88.193,155.778 88.452,155.825 88.074 C 155.871 87.696,155.870 87.129,155.822 86.813 C 155.774 86.498,155.736 86.807,155.737 87.500 M162.973 89.858 C 163.348 89.904,163.963 89.904,164.338 89.858 C 164.714 89.811,164.407 89.773,163.655 89.773 C 162.904 89.773,162.597 89.811,162.973 89.858 M247.426 89.858 C 247.802 89.904,248.416 89.904,248.792 89.858 C 249.168 89.811,248.860 89.773,248.109 89.773 C 247.358 89.773,247.051 89.811,247.426 89.858 M162.063 94.118 C 162.063 96.371,162.094 97.293,162.131 96.166 C 162.169 95.039,162.169 93.196,162.131 92.069 C 162.094 90.943,162.063 91.864,162.063 94.118 M246.517 94.433 C 246.518 96.859,246.548 97.823,246.585 96.575 C 246.623 95.326,246.623 93.341,246.585 92.163 C 246.548 90.985,246.517 92.006,246.517 94.433 M274.947 96.367 C 275.207 96.417,275.633 96.417,275.893 96.367 C 276.153 96.317,275.940 96.276,275.420 96.276 C 274.900 96.276,274.688 96.317,274.947 96.367 M300.067 97.479 C 300.067 98.230,300.105 98.537,300.152 98.162 C 300.199 97.786,300.199 97.172,300.152 96.796 C 300.105 96.421,300.067 96.728,300.067 97.479 M108.984 99.728 C 109.245 99.779,109.623 99.777,109.824 99.724 C 110.025 99.672,109.811 99.630,109.349 99.633 C 108.887 99.635,108.722 99.678,108.984 99.728 M119.908 99.728 C 120.169 99.779,120.547 99.777,120.748 99.724 C 120.949 99.672,120.735 99.630,120.273 99.633 C 119.811 99.635,119.647 99.678,119.908 99.728 M272.577 115.336 C 272.577 121.633,272.604 124.210,272.636 121.061 C 272.669 117.912,272.669 112.760,272.636 109.611 C 272.604 106.463,272.577 109.039,272.577 115.336 M275.905 115.231 C 275.907 115.924,275.946 116.183,275.993 115.805 C 276.039 115.427,276.038 114.860,275.990 114.545 C 275.943 114.229,275.904 114.538,275.905 115.231 " stroke="none" fill="#cccccc" fill-rule="evenodd"></path></g></svg>